<svg id="svg" version="1.1" xmlns="http://www.w3.org/2000/svg" xmlns:xlink="http://www.w3.org/1999/xlink" width="400" height="400" viewBox="0, 0, 400,400"><g id="svgg"><path id="path0" d="M90.000 123.200 C 90.000 123.420,89.460 123.600,88.800 123.600 C 88.140 123.600,87.600 123.780,87.600 124.000 C 87.600 124.220,87.143 124.400,86.584 124.400 C 85.450 124.400,79.600 129.932,79.600 131.003 C 79.600 131.331,79.420 131.600,79.200 131.600 C 78.980 131.600,78.800 131.949,78.800 132.376 C 78.800 132.803,78.620 133.264,78.400 133.400 C 77.891 133.714,77.868 142.566,78.374 143.505 C 78.579 143.887,78.983 144.785,79.271 145.500 C 79.560 146.215,79.931 146.800,80.098 146.800 C 80.264 146.800,80.400 147.041,80.400 147.336 C 80.400 148.112,83.804 151.600,84.560 151.600 C 84.912 151.600,85.200 151.780,85.200 152.000 C 85.200 152.220,85.560 152.400,86.000 152.400 C 86.440 152.400,86.800 152.580,86.800 152.800 C 86.800 153.020,87.149 153.200,87.576 153.200 C 88.003 153.200,88.464 153.380,88.600 153.600 C 88.743 153.832,90.937 154.000,93.824 154.000 C 96.875 154.000,98.800 153.845,98.800 153.600 C 98.800 153.380,99.034 153.200,99.320 153.200 C 100.056 153.200,101.993 152.259,101.997 151.900 C 101.999 151.735,102.256 151.600,102.568 151.600 C 103.308 151.600,106.800 148.108,106.800 147.368 C 106.800 147.056,106.980 146.800,107.200 146.800 C 107.420 146.800,107.600 146.440,107.600 146.000 C 107.600 145.560,107.780 145.200,108.000 145.200 C 108.220 145.200,108.400 144.660,108.400 144.000 C 108.400 143.340,108.580 142.800,108.800 142.800 C 109.042 142.800,109.200 141.067,109.200 138.400 C 109.200 135.733,109.042 134.000,108.800 134.000 C 108.580 134.000,108.396 133.595,108.391 133.100 C 108.386 132.605,108.030 131.750,107.600 131.200 C 107.170 130.650,106.814 130.061,106.809 129.891 C 106.792 129.306,102.416 125.200,101.809 125.200 C 101.474 125.200,101.200 125.020,101.200 124.800 C 101.200 124.580,100.840 124.400,100.400 124.400 C 99.960 124.400,99.600 124.220,99.600 124.000 C 99.600 123.780,99.071 123.600,98.424 123.600 C 97.777 123.600,97.136 123.420,97.000 123.200 C 96.864 122.980,95.233 122.800,93.376 122.800 C 91.392 122.800,90.000 122.965,90.000 123.200 M66.600 158.400 C 66.464 158.620,65.553 158.800,64.576 158.800 C 63.599 158.800,62.800 158.980,62.800 159.200 C 62.800 159.420,62.271 159.600,61.624 159.600 C 60.977 159.600,60.336 159.780,60.200 160.000 C 60.064 160.220,59.513 160.400,58.976 160.400 C 58.439 160.400,58.000 160.580,58.000 160.800 C 58.000 161.020,57.640 161.200,57.200 161.200 C 56.760 161.200,56.400 161.380,56.400 161.600 C 56.400 161.820,56.040 162.000,55.600 162.000 C 55.160 162.000,54.800 162.150,54.800 162.332 C 54.800 162.515,54.305 162.920,53.700 163.232 C 52.241 163.985,45.200 171.110,45.200 171.833 C 45.200 172.145,45.020 172.400,44.800 172.400 C 44.580 172.400,44.400 172.720,44.400 173.112 C 44.400 173.503,44.040 174.083,43.600 174.400 C 43.160 174.717,42.800 175.297,42.800 175.688 C 42.800 176.080,42.620 176.400,42.400 176.400 C 42.180 176.400,42.000 176.760,42.000 177.200 C 42.000 177.640,41.820 178.000,41.600 178.000 C 41.380 178.000,41.200 178.349,41.200 178.776 C 41.200 179.203,41.020 179.664,40.800 179.800 C 40.580 179.936,40.400 180.487,40.400 181.024 C 40.400 181.561,40.220 182.000,40.000 182.000 C 39.780 182.000,39.600 182.439,39.600 182.976 C 39.600 183.513,39.420 184.064,39.200 184.200 C 38.980 184.336,38.800 184.876,38.800 185.400 C 38.800 185.924,38.620 186.464,38.400 186.600 C 38.180 186.736,38.000 187.546,38.000 188.400 C 38.000 189.254,37.820 190.064,37.600 190.200 C 36.189 191.072,40.855 198.000,42.854 198.000 C 43.079 198.000,43.954 198.720,44.800 199.600 C 46.909 201.795,50.000 201.707,50.000 199.452 C 50.000 199.119,50.180 198.736,50.400 198.600 C 50.620 198.464,50.800 197.924,50.800 197.400 C 50.800 196.876,50.980 196.336,51.200 196.200 C 51.420 196.064,51.600 195.513,51.600 194.976 C 51.600 194.439,51.780 194.000,52.000 194.000 C 52.220 194.000,52.400 193.766,52.400 193.480 C 52.400 192.744,53.341 190.807,53.700 190.803 C 53.865 190.801,54.000 190.480,54.000 190.088 C 54.000 189.697,54.360 189.117,54.800 188.800 C 55.240 188.483,55.600 187.972,55.600 187.666 C 55.600 186.985,58.353 184.400,59.078 184.400 C 59.365 184.400,59.600 184.220,59.600 184.000 C 59.600 183.780,59.960 183.600,60.400 183.600 C 60.840 183.600,61.200 183.420,61.200 183.200 C 61.200 182.980,61.999 182.800,62.976 182.800 C 63.953 182.800,64.864 182.620,65.000 182.400 C 65.136 182.180,65.856 182.000,66.600 182.000 C 67.344 182.000,68.064 182.180,68.200 182.400 C 68.336 182.620,69.079 182.800,69.852 182.800 C 71.299 182.800,73.062 183.979,72.096 184.301 C 71.823 184.392,71.600 184.992,71.600 185.633 C 71.600 186.275,71.420 186.800,71.200 186.800 C 70.980 186.800,70.800 187.419,70.800 188.176 C 70.800 188.933,70.620 189.664,70.400 189.800 C 70.180 189.936,70.000 190.577,70.000 191.224 C 70.000 191.871,69.820 192.400,69.600 192.400 C 69.380 192.400,69.200 193.120,69.200 194.000 C 69.200 194.880,69.020 195.600,68.800 195.600 C 68.580 195.600,68.400 196.320,68.400 197.200 C 68.400 198.080,68.220 198.800,68.000 198.800 C 67.780 198.800,67.600 199.419,67.600 200.176 C 67.600 200.933,67.420 201.664,67.200 201.800 C 66.980 201.936,66.800 202.566,66.800 203.200 C 66.800 203.834,66.620 204.464,66.400 204.600 C 66.180 204.736,66.000 205.467,66.000 206.224 C 66.000 206.981,65.820 207.600,65.600 207.600 C 65.380 207.600,65.200 208.219,65.200 208.976 C 65.200 209.733,65.020 210.464,64.800 210.600 C 64.580 210.736,64.400 211.366,64.400 212.000 C 64.400 212.634,64.220 213.264,64.000 213.400 C 63.780 213.536,63.600 214.267,63.600 215.024 C 63.600 215.781,63.420 216.400,63.200 216.400 C 62.980 216.400,62.800 217.019,62.800 217.776 C 62.800 218.533,62.620 219.264,62.400 219.400 C 62.180 219.536,62.000 220.166,62.000 220.800 C 62.000 221.434,61.820 222.064,61.600 222.200 C 61.380 222.336,61.200 223.056,61.200 223.800 C 61.200 224.544,61.020 225.264,60.800 225.400 C 60.580 225.536,60.400 226.256,60.400 227.000 C 60.400 227.744,60.220 228.464,60.000 228.600 C 59.780 228.736,59.600 229.366,59.600 230.000 C 59.600 230.634,59.420 231.264,59.200 231.400 C 58.980 231.536,58.800 232.166,58.800 232.800 C 58.800 233.434,58.620 234.064,58.400 234.200 C 58.180 234.336,58.000 235.067,58.000 235.824 C 58.000 236.581,57.820 237.200,57.600 237.200 C 57.380 237.200,57.200 237.819,57.200 238.576 C 57.200 239.333,57.020 240.064,56.800 240.200 C 56.580 240.336,56.400 240.966,56.400 241.600 C 56.400 242.234,56.220 242.864,56.000 243.000 C 55.780 243.136,55.600 243.867,55.600 244.624 C 55.600 245.381,55.420 246.000,55.200 246.000 C 54.980 246.000,54.800 246.619,54.800 247.376 C 54.800 248.133,54.620 248.864,54.400 249.000 C 54.164 249.146,54.000 251.530,54.000 254.800 C 54.000 258.070,54.164 260.454,54.400 260.600 C 54.620 260.736,54.800 261.287,54.800 261.824 C 54.800 262.361,54.980 262.800,55.200 262.800 C 55.420 262.800,55.600 263.155,55.600 263.588 C 55.600 265.431,61.446 272.400,62.993 272.400 C 63.327 272.400,63.600 272.550,63.600 272.732 C 63.600 273.057,64.488 273.548,66.700 274.447 C 67.305 274.692,68.113 275.052,68.495 275.247 C 68.877 275.441,69.606 275.600,70.115 275.600 C 70.624 275.600,71.211 275.763,71.420 275.961 C 72.277 276.776,83.425 277.535,84.132 276.828 C 84.368 276.592,85.683 276.400,87.056 276.400 C 88.429 276.400,89.664 276.220,89.800 276.000 C 89.936 275.780,90.577 275.600,91.224 275.600 C 91.871 275.600,92.400 275.420,92.400 275.200 C 92.400 274.980,92.929 274.800,93.576 274.800 C 94.223 274.800,94.864 274.620,95.000 274.400 C 95.136 274.180,95.687 274.000,96.224 274.000 C 96.761 274.000,97.200 273.820,97.200 273.600 C 97.200 273.380,97.560 273.200,98.000 273.200 C 98.440 273.200,98.800 273.020,98.800 272.800 C 98.800 272.580,99.160 272.400,99.600 272.400 C 100.040 272.400,100.400 272.220,100.400 272.000 C 100.400 271.780,100.760 271.600,101.200 271.600 C 101.640 271.600,102.000 271.420,102.000 271.200 C 102.000 270.980,102.360 270.800,102.800 270.800 C 103.240 270.800,103.600 270.620,103.600 270.400 C 103.600 270.180,103.836 270.000,104.125 270.000 C 104.413 270.000,105.036 269.640,105.508 269.200 C 105.980 268.760,106.542 268.400,106.757 268.400 C 107.357 268.400,117.200 258.508,117.200 257.906 C 117.200 257.615,117.560 257.117,118.000 256.800 C 118.440 256.483,118.800 255.986,118.800 255.695 C 118.800 255.404,119.160 254.780,119.600 254.308 C 120.040 253.836,120.400 253.213,120.400 252.925 C 120.400 252.636,120.580 252.400,120.800 252.400 C 121.020 252.400,121.200 252.040,121.200 251.600 C 121.200 251.160,121.380 250.800,121.600 250.800 C 121.820 250.800,122.000 250.535,122.000 250.212 C 122.000 249.889,122.360 248.983,122.800 248.200 C 123.957 246.139,123.084 243.683,121.535 244.640 C 121.251 244.816,120.294 245.025,119.409 245.106 C 118.524 245.187,117.629 245.421,117.420 245.626 C 117.211 245.832,116.716 246.000,116.320 246.000 C 115.924 246.000,115.600 246.180,115.600 246.400 C 115.600 246.620,114.981 246.800,114.224 246.800 C 113.467 246.800,112.736 246.980,112.600 247.200 C 112.464 247.420,112.001 247.600,111.571 247.600 C 111.141 247.600,110.432 247.780,109.995 248.000 C 109.558 248.220,108.842 248.580,108.405 248.800 C 107.968 249.020,107.068 249.200,106.405 249.200 C 105.742 249.200,105.200 249.380,105.200 249.600 C 105.200 249.820,104.948 250.000,104.641 250.000 C 104.333 250.000,103.162 250.900,102.039 252.000 C 100.915 253.100,99.742 254.000,99.431 254.000 C 99.121 254.000,98.807 254.135,98.733 254.300 C 98.515 254.791,95.184 256.400,94.386 256.400 C 93.980 256.400,93.536 256.580,93.400 256.800 C 93.264 257.020,92.094 257.200,90.800 257.200 C 89.506 257.200,88.336 257.020,88.200 256.800 C 88.064 256.580,87.513 256.400,86.976 256.400 C 86.439 256.400,86.000 256.220,86.000 256.000 C 86.000 255.780,85.640 255.600,85.200 255.600 C 84.760 255.600,84.400 255.420,84.400 255.200 C 84.400 254.980,84.124 254.800,83.787 254.800 C 82.991 254.800,80.400 252.209,80.400 251.413 C 80.400 251.076,80.220 250.800,80.000 250.800 C 79.479 250.800,79.479 248.522,80.000 248.200 C 80.220 248.064,80.400 247.333,80.400 246.576 C 80.400 245.819,80.580 245.200,80.800 245.200 C 81.020 245.200,81.200 244.581,81.200 243.824 C 81.200 243.067,81.380 242.336,81.600 242.200 C 81.820 242.064,82.000 241.254,82.000 240.400 C 82.000 239.546,82.180 238.736,82.400 238.600 C 82.620 238.464,82.800 237.733,82.800 236.976 C 82.800 236.219,82.980 235.600,83.200 235.600 C 83.420 235.600,83.600 234.880,83.600 234.000 C 83.600 233.120,83.780 232.400,84.000 232.400 C 84.220 232.400,84.400 231.871,84.400 231.224 C 84.400 230.577,84.580 229.936,84.800 229.800 C 85.020 229.664,85.200 228.944,85.200 228.200 C 85.200 227.456,85.380 226.736,85.600 226.600 C 85.820 226.464,86.000 225.733,86.000 224.976 C 86.000 224.219,86.180 223.600,86.400 223.600 C 86.620 223.600,86.800 223.071,86.800 222.424 C 86.800 221.777,86.980 221.136,87.200 221.000 C 87.420 220.864,87.600 220.144,87.600 219.400 C 87.600 218.656,87.780 217.936,88.000 217.800 C 88.220 217.664,88.400 216.944,88.400 216.200 C 88.400 215.456,88.580 214.736,88.800 214.600 C 89.020 214.464,89.200 213.744,89.200 213.000 C 89.200 212.256,89.380 211.536,89.600 211.400 C 89.820 211.264,90.000 210.533,90.000 209.776 C 90.000 209.019,90.180 208.400,90.400 208.400 C 90.620 208.400,90.800 207.680,90.800 206.800 C 90.800 205.920,90.980 205.200,91.200 205.200 C 91.420 205.200,91.600 204.581,91.600 203.824 C 91.600 203.067,91.780 202.336,92.000 202.200 C 92.220 202.064,92.400 201.344,92.400 200.600 C 92.400 199.856,92.580 199.136,92.800 199.000 C 93.020 198.864,93.200 198.234,93.200 197.600 C 93.200 196.966,93.380 196.336,93.600 196.200 C 93.820 196.064,94.000 195.344,94.000 194.600 C 94.000 193.856,94.180 193.136,94.400 193.000 C 94.620 192.864,94.800 192.144,94.800 191.400 C 94.800 190.656,94.980 189.936,95.200 189.800 C 95.420 189.664,95.600 188.944,95.600 188.200 C 95.600 187.456,95.780 186.736,96.000 186.600 C 96.220 186.464,96.400 185.319,96.400 184.056 C 96.400 182.793,96.599 181.561,96.841 181.319 C 97.163 180.997,97.163 180.320,96.841 178.819 C 96.599 177.687,96.400 175.959,96.400 174.980 C 96.400 174.001,96.220 173.200,96.000 173.200 C 95.780 173.200,95.600 172.660,95.600 172.000 C 95.600 171.340,95.420 170.800,95.200 170.800 C 94.980 170.800,94.800 170.440,94.800 170.000 C 94.800 169.560,94.620 169.200,94.400 169.200 C 94.180 169.200,94.000 168.951,94.000 168.646 C 94.000 167.889,89.007 162.800,88.264 162.800 C 87.935 162.800,87.607 162.665,87.533 162.500 C 87.460 162.335,86.500 161.775,85.400 161.256 C 84.300 160.737,83.087 160.152,82.705 159.956 C 82.323 159.760,81.569 159.600,81.029 159.600 C 80.489 159.600,79.936 159.420,79.800 159.200 C 79.664 158.980,78.663 158.800,77.576 158.800 C 76.489 158.800,75.600 158.620,75.600 158.400 C 75.600 158.158,73.875 158.000,71.224 158.000 C 68.737 158.000,66.740 158.173,66.600 158.400 M342.800 159.153 C 342.800 159.348,342.426 159.605,341.968 159.724 C 340.683 160.060,341.080 161.763,342.482 161.925 C 343.525 162.045,343.569 162.149,343.682 164.725 L 343.800 167.400 345.300 167.524 L 346.800 167.648 346.800 165.624 C 346.800 164.511,346.980 163.600,347.200 163.600 C 347.420 163.600,347.600 163.240,347.600 162.800 C 347.600 160.667,348.379 162.344,348.482 164.700 C 348.611 167.649,349.730 168.634,351.020 166.932 C 351.536 166.250,351.575 166.248,351.587 166.900 C 351.602 167.725,353.938 167.902,354.703 167.137 C 355.054 166.786,355.308 166.792,355.752 167.160 C 357.154 168.324,359.426 164.717,358.445 162.884 C 358.200 162.427,358.000 161.578,358.000 160.998 C 358.000 158.470,355.378 157.970,354.168 160.267 C 353.269 161.974,352.400 162.449,352.400 161.233 C 352.400 160.775,352.241 160.400,352.047 160.400 C 351.852 160.400,351.599 160.040,351.484 159.600 C 351.261 158.749,342.800 158.313,342.800 159.153 M178.700 166.557 C 177.958 167.120,177.722 169.200,178.400 169.200 C 178.620 169.200,178.800 169.436,178.800 169.725 C 178.800 170.013,179.115 170.598,179.500 171.025 C 179.885 171.451,180.455 172.295,180.768 172.900 C 181.080 173.505,181.485 174.000,181.668 174.000 C 181.850 174.000,182.000 174.360,182.000 174.800 C 182.000 175.240,182.180 175.600,182.400 175.600 C 182.620 175.600,182.800 176.039,182.800 176.576 C 182.800 177.113,182.980 177.664,183.200 177.800 C 183.420 177.936,183.600 178.577,183.600 179.224 C 183.600 179.871,183.780 180.400,184.000 180.400 C 184.220 180.400,184.400 181.212,184.400 182.205 C 184.400 183.930,184.844 185.161,185.871 186.285 C 186.246 186.695,191.425 186.800,211.190 186.800 L 236.036 186.800 237.018 187.782 C 237.558 188.322,238.000 189.121,238.000 189.558 C 238.000 189.995,238.180 190.464,238.400 190.600 C 239.182 191.084,238.907 203.230,238.100 203.843 C 237.538 204.270,233.013 204.377,215.124 204.387 C 200.718 204.396,192.760 204.541,192.600 204.800 C 192.464 205.020,192.009 205.200,191.589 205.200 C 189.845 205.200,185.200 208.825,185.200 210.187 C 185.200 210.524,185.020 210.800,184.800 210.800 C 184.580 210.800,184.400 211.149,184.400 211.576 C 184.400 212.003,184.220 212.464,184.000 212.600 C 183.780 212.736,183.600 213.276,183.600 213.800 C 183.600 214.324,183.420 214.864,183.200 215.000 C 182.980 215.136,182.800 216.281,182.800 217.544 C 182.800 218.807,182.614 220.026,182.386 220.254 C 181.581 221.059,182.372 245.291,183.232 246.180 C 183.435 246.389,183.600 247.053,183.600 247.656 C 183.600 248.259,183.780 248.864,184.000 249.000 C 184.220 249.136,184.400 249.777,184.400 250.424 C 184.400 251.071,184.580 251.600,184.800 251.600 C 185.020 251.600,185.200 251.960,185.200 252.400 C 185.200 252.840,185.350 253.200,185.532 253.200 C 185.715 253.200,186.120 253.693,186.432 254.295 C 187.117 255.616,190.208 258.800,190.806 258.800 C 191.041 258.800,191.620 259.160,192.092 259.600 C 192.564 260.040,193.367 260.400,193.875 260.400 C 194.384 260.400,194.800 260.580,194.800 260.800 C 194.800 261.020,195.329 261.200,195.976 261.200 C 196.623 261.200,197.264 261.380,197.400 261.600 C 197.536 261.820,198.681 262.000,199.944 262.000 C 201.207 262.000,202.424 262.184,202.648 262.408 C 203.562 263.322,243.984 262.515,244.980 261.563 C 245.189 261.363,245.864 261.200,246.480 261.200 C 247.096 261.200,247.600 261.020,247.600 260.800 C 247.600 260.580,247.960 260.400,248.400 260.400 C 248.840 260.400,249.200 260.220,249.200 260.000 C 249.200 259.780,249.520 259.600,249.912 259.600 C 250.303 259.600,250.883 259.240,251.200 258.800 C 251.517 258.360,251.962 257.994,252.188 257.987 C 252.827 257.968,254.538 256.305,255.168 255.093 C 255.480 254.492,255.885 254.000,256.068 254.000 C 256.250 254.000,256.400 253.640,256.400 253.200 C 256.400 252.760,256.580 252.400,256.800 252.400 C 257.020 252.400,257.200 252.040,257.200 251.600 C 257.200 251.160,257.380 250.800,257.600 250.800 C 257.820 250.800,258.000 250.260,258.000 249.600 C 258.000 248.940,258.180 248.400,258.400 248.400 C 258.620 248.400,258.800 247.421,258.800 246.224 C 258.800 245.027,258.980 243.936,259.200 243.800 C 259.460 243.639,259.600 233.937,259.600 216.000 C 259.600 198.063,259.460 188.361,259.200 188.200 C 258.980 188.064,258.800 187.074,258.800 186.000 C 258.800 184.926,258.620 183.936,258.400 183.800 C 258.180 183.664,258.000 183.034,258.000 182.400 C 258.000 181.766,257.820 181.136,257.600 181.000 C 257.380 180.864,257.200 180.313,257.200 179.776 C 257.200 179.239,257.020 178.800,256.800 178.800 C 256.580 178.800,256.400 178.440,256.400 178.000 C 256.400 177.560,256.220 177.200,256.000 177.200 C 255.780 177.200,255.600 176.840,255.600 176.400 C 255.600 175.960,255.420 175.600,255.200 175.600 C 254.980 175.600,254.800 175.326,254.800 174.991 C 254.800 174.199,250.601 170.000,249.809 170.000 C 249.474 170.000,249.199 169.865,249.197 169.700 C 249.193 169.341,247.256 168.400,246.520 168.400 C 246.234 168.400,246.000 168.220,246.000 168.000 C 246.000 167.780,245.381 167.600,244.624 167.600 C 243.867 167.600,243.136 167.420,243.000 167.200 C 242.839 166.939,232.404 166.800,213.000 166.800 C 193.596 166.800,183.161 166.661,183.000 166.400 C 182.641 165.820,179.521 165.933,178.700 166.557 M258.700 166.557 C 257.711 167.308,257.772 169.659,258.800 170.400 C 259.240 170.717,259.600 171.214,259.600 171.505 C 259.600 171.796,259.960 172.420,260.400 172.892 C 260.840 173.364,261.200 173.987,261.200 174.275 C 261.200 174.564,261.380 174.800,261.600 174.800 C 261.820 174.800,262.000 175.160,262.000 175.600 C 262.000 176.040,262.180 176.400,262.400 176.400 C 262.620 176.400,262.800 176.929,262.800 177.576 C 262.800 178.223,262.980 178.864,263.200 179.000 C 263.420 179.136,263.600 179.676,263.600 180.200 C 263.600 180.724,263.780 181.264,264.000 181.400 C 264.220 181.536,264.400 182.436,264.400 183.400 C 264.400 184.364,264.580 185.264,264.800 185.400 C 265.050 185.555,265.200 189.596,265.200 196.200 C 265.200 202.804,265.350 206.845,265.600 207.000 C 265.820 207.136,266.000 208.846,266.000 210.800 C 266.000 212.754,266.180 214.464,266.400 214.600 C 266.620 214.736,266.800 215.197,266.800 215.624 C 266.800 216.051,266.980 216.400,267.200 216.400 C 267.420 216.400,267.600 216.720,267.600 217.112 C 267.600 217.503,267.960 218.083,268.400 218.400 C 268.840 218.717,269.200 219.205,269.200 219.484 C 269.200 220.133,272.781 222.777,273.676 222.790 C 274.048 222.796,274.464 222.980,274.600 223.200 C 274.736 223.420,275.341 223.600,275.944 223.600 C 276.547 223.600,277.241 223.801,277.486 224.046 C 277.803 224.363,284.092 224.495,299.166 224.501 C 318.412 224.509,320.404 224.570,320.446 225.155 C 321.025 233.218,320.084 241.200,318.554 241.200 C 318.249 241.200,318.000 241.380,318.000 241.600 C 318.000 241.863,309.124 242.000,292.171 242.000 C 264.502 242.000,265.200 241.950,265.200 243.948 C 265.200 244.391,265.020 244.864,264.800 245.000 C 264.580 245.136,264.400 246.137,264.400 247.224 C 264.400 248.311,264.220 249.200,264.000 249.200 C 263.780 249.200,263.600 249.549,263.600 249.976 C 263.600 250.403,263.420 250.864,263.200 251.000 C 262.980 251.136,262.800 251.687,262.800 252.224 C 262.800 252.761,262.620 253.200,262.400 253.200 C 262.180 253.200,262.000 253.560,262.000 254.000 C 262.000 254.440,261.820 254.800,261.600 254.800 C 261.380 254.800,261.200 255.160,261.200 255.600 C 261.200 256.040,261.050 256.400,260.868 256.400 C 260.685 256.400,260.280 256.895,259.968 257.500 C 259.655 258.105,259.085 258.949,258.700 259.375 C 257.863 260.303,257.790 261.728,258.547 262.356 C 259.667 263.286,325.607 262.527,326.580 261.573 C 326.789 261.368,327.543 261.200,328.256 261.200 C 328.969 261.200,329.664 261.020,329.800 260.800 C 329.936 260.580,330.397 260.400,330.824 260.400 C 331.251 260.400,331.600 260.220,331.600 260.000 C 331.600 259.780,331.836 259.600,332.125 259.600 C 332.413 259.600,333.036 259.240,333.508 258.800 C 333.980 258.360,334.520 258.000,334.708 258.000 C 335.139 258.000,337.200 255.870,337.200 255.425 C 337.200 255.243,337.518 254.803,337.907 254.447 C 338.296 254.091,339.035 252.900,339.551 251.800 C 340.066 250.700,340.648 249.487,340.844 249.105 C 341.040 248.723,341.200 247.789,341.200 247.029 C 341.200 246.269,341.380 245.536,341.600 245.400 C 341.862 245.238,342.000 231.734,342.000 206.190 L 342.000 167.228 341.159 166.778 C 340.697 166.531,339.987 166.415,339.581 166.521 C 339.176 166.627,336.726 166.555,334.137 166.362 C 331.096 166.135,329.289 166.151,329.035 166.405 C 328.818 166.622,326.966 166.800,324.920 166.800 L 321.200 166.800 321.200 167.976 C 321.200 168.623,321.020 169.264,320.800 169.400 C 320.544 169.559,320.400 175.728,320.400 186.596 L 320.400 203.545 308.700 203.795 C 302.265 203.933,294.930 204.086,292.400 204.135 C 285.444 204.271,286.007 205.170,286.003 193.924 C 286.001 188.041,285.848 184.353,285.600 184.200 C 285.380 184.064,285.200 182.714,285.200 181.200 C 285.200 179.686,285.020 178.336,284.800 178.200 C 284.580 178.064,284.400 177.254,284.400 176.400 C 284.400 175.546,284.220 174.736,284.000 174.600 C 283.780 174.464,283.600 173.913,283.600 173.376 C 283.600 172.839,283.420 172.400,283.200 172.400 C 282.980 172.400,282.796 171.995,282.791 171.500 C 282.786 171.005,282.430 170.150,282.000 169.600 C 281.570 169.050,281.214 168.452,281.209 168.271 C 281.173 166.960,280.066 166.800,271.052 166.800 C 265.480 166.800,261.953 166.648,261.800 166.400 C 261.448 165.831,259.528 165.928,258.700 166.557 M119.000 167.200 C 118.864 167.420,118.223 167.600,117.576 167.600 C 116.929 167.600,116.400 167.780,116.400 168.000 C 116.400 168.220,115.860 168.400,115.200 168.400 C 114.540 168.400,114.000 168.580,114.000 168.800 C 114.000 169.020,113.640 169.200,113.200 169.200 C 112.760 169.200,112.400 169.380,112.400 169.600 C 112.400 169.820,112.154 170.000,111.854 170.000 C 111.187 170.000,106.800 174.151,106.800 174.782 C 106.800 175.030,106.440 175.620,106.000 176.092 C 105.560 176.564,105.200 177.266,105.200 177.652 C 105.200 178.037,105.020 178.464,104.800 178.600 C 104.580 178.736,104.400 179.366,104.400 180.000 C 104.400 180.634,104.220 181.264,104.000 181.400 C 103.780 181.536,103.600 182.256,103.600 183.000 C 103.600 183.744,103.420 184.464,103.200 184.600 C 102.534 185.012,102.687 243.618,103.357 244.500 C 103.931 245.256,106.800 245.506,106.800 244.800 C 106.800 244.580,107.520 244.400,108.400 244.400 C 109.280 244.400,110.000 244.220,110.000 244.000 C 110.000 243.780,110.540 243.600,111.200 243.600 C 111.860 243.600,112.400 243.420,112.400 243.200 C 112.400 242.980,112.940 242.800,113.600 242.800 C 114.260 242.800,114.800 242.620,114.800 242.400 C 114.800 242.180,115.329 242.000,115.976 242.000 C 116.623 242.000,117.264 241.820,117.400 241.600 C 117.536 241.380,118.267 241.200,119.024 241.200 C 119.781 241.200,120.400 241.020,120.400 240.800 C 120.400 240.580,120.822 240.400,121.338 240.400 C 123.383 240.400,123.600 239.561,123.600 231.669 L 123.600 224.400 143.376 224.400 C 156.129 224.400,163.241 224.258,163.400 224.000 C 163.536 223.780,164.177 223.600,164.824 223.600 C 165.471 223.600,166.000 223.420,166.000 223.200 C 166.000 222.980,166.540 222.800,167.200 222.800 C 167.860 222.800,168.400 222.620,168.400 222.400 C 168.400 222.180,168.760 222.000,169.200 222.000 C 169.640 222.000,170.000 221.820,170.000 221.600 C 170.000 221.380,170.246 221.200,170.546 221.200 C 171.322 221.200,175.600 216.997,175.600 216.235 C 175.600 215.886,175.780 215.600,176.000 215.600 C 176.220 215.600,176.400 215.240,176.400 214.800 C 176.400 214.360,176.580 214.000,176.800 214.000 C 177.020 214.000,177.200 213.651,177.200 213.224 C 177.200 212.797,177.380 212.336,177.600 212.200 C 177.820 212.064,178.000 211.524,178.000 211.000 C 178.000 210.476,178.180 209.936,178.400 209.800 C 178.620 209.664,178.800 208.609,178.800 207.456 C 178.800 206.303,178.995 205.165,179.234 204.926 C 180.030 204.130,179.190 182.000,178.364 182.000 C 178.164 182.000,178.000 181.280,178.000 180.400 C 178.000 179.520,177.820 178.800,177.600 178.800 C 177.380 178.800,177.200 178.440,177.200 178.000 C 177.200 177.560,177.020 177.200,176.800 177.200 C 176.580 177.200,176.400 176.840,176.400 176.400 C 176.400 175.960,176.220 175.600,176.000 175.600 C 175.780 175.600,175.600 175.359,175.600 175.064 C 175.600 174.351,172.488 171.147,171.100 170.432 C 170.495 170.120,170.000 169.715,170.000 169.532 C 170.000 169.350,169.640 169.200,169.200 169.200 C 168.760 169.200,168.400 169.020,168.400 168.800 C 168.400 168.580,167.860 168.400,167.200 168.400 C 166.540 168.400,166.000 168.220,166.000 168.000 C 166.000 167.780,165.471 167.600,164.824 167.600 C 164.177 167.600,163.536 167.420,163.400 167.200 C 163.240 166.941,155.404 166.800,141.200 166.800 C 126.996 166.800,119.160 166.941,119.000 167.200 M158.300 187.883 C 158.984 189.355,158.989 201.041,158.306 202.487 C 157.819 203.520,156.008 204.108,153.800 203.949 C 149.319 203.628,124.522 203.733,124.110 204.075 C 123.376 204.684,123.367 188.231,124.100 187.398 C 124.516 186.925,127.374 186.828,141.200 186.818 L 157.800 186.806 158.300 187.883 M238.800 232.438 C 238.800 239.115,238.736 239.767,237.973 240.838 L 237.146 242.000 220.944 242.000 C 208.102 242.000,204.634 241.891,204.218 241.475 C 202.746 240.003,202.694 227.410,204.152 225.742 C 204.503 225.342,208.322 225.227,221.700 225.215 L 238.800 225.200 238.800 232.438 " stroke="none" fill="#04948c" fill-rule="evenodd"></path><path id="path1" d="" stroke="none" fill="#08948c" fill-rule="evenodd"></path><path id="path2" d="" stroke="none" fill="#08948c" fill-rule="evenodd"></path><path id="path3" d="" stroke="none" fill="#08948c" fill-rule="evenodd"></path><path id="path4" d="" stroke="none" fill="#08948c" fill-rule="evenodd"></path></g></svg>