<svg id="svg" version="1.1" xmlns="http://www.w3.org/2000/svg" width="400" height="400" viewBox="0, 0, 400,400"><g id="svgg"><path id="path0" d="M323.172 167.792 C 316.123 169.336,309.849 172.432,305.000 176.758 L 303.400 178.186 303.273 177.084 C 303.202 176.478,303.427 174.617,303.773 172.948 C 304.118 171.280,304.400 169.641,304.400 169.307 C 304.400 168.598,264.695 168.715,264.047 169.426 C 263.859 169.632,263.311 171.870,262.829 174.400 C 262.347 176.930,261.798 179.720,261.609 180.600 C 261.420 181.480,261.056 183.280,260.800 184.600 C 260.544 185.920,260.179 187.720,259.989 188.600 C 259.527 190.741,259.227 192.206,258.762 194.600 C 258.549 195.700,258.200 197.455,257.987 198.500 C 257.774 199.545,257.428 201.255,257.218 202.300 C 257.008 203.345,256.665 205.010,256.455 206.000 C 256.246 206.990,255.861 208.880,255.600 210.200 C 255.339 211.520,254.979 213.320,254.799 214.200 C 254.620 215.080,254.276 216.880,254.036 218.200 C 253.795 219.520,249.495 241.072,244.479 266.093 L 235.359 311.586 256.718 311.693 C 268.465 311.752,278.205 311.710,278.362 311.600 C 278.655 311.394,279.404 308.145,280.806 301.000 C 281.819 295.836,282.081 294.549,282.393 293.200 C 282.571 292.430,283.933 285.680,285.420 278.200 C 286.906 270.720,288.272 264.432,288.455 264.227 C 288.648 264.009,289.916 264.991,291.493 266.581 C 304.925 280.116,332.203 279.484,351.245 265.196 C 378.717 244.582,383.017 199.944,359.618 178.281 C 350.064 169.435,335.199 165.157,323.172 167.792 M218.200 169.600 C 219.287 169.795,219.479 169.907,218.800 169.949 C 217.234 170.048,216.685 170.604,216.515 172.263 C 216.429 173.108,216.187 173.971,215.979 174.180 C 215.771 174.389,215.600 174.963,215.600 175.456 C 215.600 175.949,215.420 176.464,215.200 176.600 C 214.980 176.736,214.800 177.276,214.800 177.800 C 214.800 178.324,214.620 178.864,214.400 179.000 C 214.180 179.136,214.000 179.676,214.000 180.200 C 214.000 180.724,213.820 181.264,213.600 181.400 C 213.380 181.536,213.200 182.076,213.200 182.600 C 213.200 183.124,213.020 183.664,212.800 183.800 C 212.580 183.936,212.400 184.487,212.400 185.024 C 212.400 185.561,212.220 186.000,212.000 186.000 C 211.780 186.000,211.600 186.360,211.600 186.800 C 211.600 187.240,211.420 187.600,211.200 187.600 C 210.980 187.600,210.800 188.140,210.800 188.800 C 210.800 189.460,210.620 190.000,210.400 190.000 C 210.180 190.000,210.000 190.439,210.000 190.976 C 210.000 191.513,209.820 192.064,209.600 192.200 C 209.380 192.336,209.200 192.876,209.200 193.400 C 209.200 193.924,209.037 194.454,208.837 194.577 C 208.638 194.700,208.351 195.700,208.200 196.800 C 208.049 197.900,207.762 198.900,207.563 199.023 C 207.363 199.146,207.200 199.676,207.200 200.200 C 207.200 200.724,207.020 201.264,206.800 201.400 C 206.580 201.536,206.400 202.076,206.400 202.600 C 206.400 203.124,206.220 203.664,206.000 203.800 C 205.780 203.936,205.600 204.476,205.600 205.000 C 205.600 205.524,205.420 206.064,205.200 206.200 C 204.980 206.336,204.800 206.876,204.800 207.400 C 204.800 207.924,204.620 208.464,204.400 208.600 C 204.180 208.736,204.000 209.276,204.000 209.800 C 204.000 210.324,203.820 210.864,203.600 211.000 C 203.380 211.136,203.200 211.687,203.200 212.224 C 203.200 212.761,203.020 213.200,202.800 213.200 C 202.580 213.200,202.400 213.560,202.400 214.000 C 202.400 214.440,202.220 214.800,202.000 214.800 C 201.780 214.800,201.600 215.340,201.600 216.000 C 201.600 216.660,201.420 217.200,201.200 217.200 C 200.980 217.200,200.800 217.639,200.800 218.176 C 200.800 218.713,200.620 219.264,200.400 219.400 C 200.180 219.536,200.000 220.076,200.000 220.600 C 200.000 221.124,199.820 221.664,199.600 221.800 C 199.380 221.936,199.200 222.476,199.200 223.000 C 199.200 223.524,199.020 224.064,198.800 224.200 C 198.580 224.336,198.400 224.876,198.400 225.400 C 198.400 225.924,198.220 226.464,198.000 226.600 C 197.780 226.736,197.600 227.276,197.600 227.800 C 197.600 228.324,197.420 228.864,197.200 229.000 C 196.980 229.136,196.800 229.676,196.800 230.200 C 196.800 230.724,196.620 231.264,196.400 231.400 C 196.180 231.536,196.000 232.076,196.000 232.600 C 196.000 233.124,195.820 233.664,195.600 233.800 C 195.380 233.936,195.200 234.487,195.200 235.024 C 195.200 235.561,195.020 236.000,194.800 236.000 C 194.580 236.000,194.400 236.540,194.400 237.200 C 194.400 237.860,194.220 238.400,194.000 238.400 C 193.780 238.400,193.600 238.755,193.600 239.188 C 193.600 239.621,193.254 240.592,192.831 241.345 C 192.408 242.098,191.937 243.546,191.785 244.562 C 191.632 245.578,191.348 246.508,191.154 246.629 C 190.959 246.749,190.800 247.276,190.800 247.800 C 190.800 248.324,190.620 248.864,190.400 249.000 C 190.180 249.136,190.000 249.676,190.000 250.200 C 190.000 250.724,189.820 251.264,189.600 251.400 C 189.380 251.536,189.200 252.076,189.200 252.600 C 189.200 253.124,189.020 253.664,188.800 253.800 C 188.580 253.936,188.400 254.476,188.400 255.000 C 188.400 255.524,188.220 256.064,188.000 256.200 C 187.780 256.336,187.600 256.876,187.600 257.400 C 187.600 257.924,187.420 258.464,187.200 258.600 C 186.980 258.736,186.800 259.276,186.800 259.800 C 186.800 260.324,186.620 260.864,186.400 261.000 C 186.180 261.136,186.000 261.687,186.000 262.224 C 186.000 262.761,185.820 263.200,185.600 263.200 C 185.380 263.200,185.200 263.474,185.200 263.810 C 185.200 264.145,184.750 264.591,184.200 264.800 C 183.650 265.009,183.200 265.269,183.200 265.378 C 183.200 265.486,183.470 265.471,183.800 265.345 C 184.634 265.025,184.469 266.734,183.033 273.286 C 182.868 274.038,222.889 274.427,223.352 273.678 C 223.466 273.493,223.765 272.185,224.016 270.771 C 224.267 269.357,224.627 267.480,224.815 266.600 C 225.190 264.846,225.415 263.715,226.046 260.400 C 226.276 259.190,226.616 257.480,226.800 256.600 C 226.984 255.720,227.344 253.920,227.600 252.600 C 227.856 251.280,228.216 249.480,228.400 248.600 C 228.584 247.720,228.944 245.920,229.200 244.600 C 229.456 243.280,229.816 241.480,230.000 240.600 C 230.184 239.720,230.544 237.920,230.800 236.600 C 231.056 235.280,231.416 233.480,231.600 232.600 C 232.117 230.133,232.664 227.362,234.602 217.400 C 236.631 206.974,237.124 204.472,237.600 202.200 C 237.784 201.320,238.144 199.520,238.400 198.200 C 238.656 196.880,239.016 195.080,239.200 194.200 C 239.384 193.320,239.743 191.520,239.997 190.200 C 240.252 188.880,240.619 187.170,240.813 186.400 C 241.008 185.630,241.271 184.370,241.399 183.600 C 241.637 182.159,242.144 179.555,242.800 176.400 C 243.006 175.410,243.334 173.700,243.530 172.600 C 243.726 171.500,244.021 170.285,244.186 169.900 C 244.468 169.240,243.681 169.203,230.543 169.257 C 222.874 169.288,217.320 169.442,218.200 169.600 M322.000 202.486 C 335.103 208.403,333.181 234.124,319.158 240.506 C 302.076 248.280,289.622 230.269,298.925 211.247 C 303.029 202.856,313.780 198.774,322.000 202.486 " stroke="none" fill="#60a841" fill-rule="evenodd"></path><path id="path1" d="M52.237 145.900 C 52.118 146.285,51.476 149.300,50.811 152.600 C 47.056 171.217,46.481 173.945,46.229 174.353 C 46.044 174.653,43.758 174.802,39.276 174.806 C 35.604 174.809,32.398 174.944,32.152 175.106 C 31.664 175.426,25.535 205.571,25.853 206.085 C 25.960 206.258,29.086 206.400,32.800 206.400 C 36.584 206.400,39.655 206.565,39.785 206.776 C 39.913 206.983,38.820 213.058,37.356 220.276 C 33.878 237.423,33.996 236.722,33.734 241.760 C 32.528 264.967,49.335 278.008,77.839 275.984 C 86.799 275.348,97.553 272.585,100.307 270.212 C 100.461 270.079,99.105 261.272,98.025 255.400 C 97.823 254.300,97.448 252.140,97.193 250.600 C 96.937 249.060,96.564 247.045,96.364 246.123 C 96.164 245.200,96.000 243.931,96.000 243.303 C 96.000 241.347,95.430 241.198,92.270 242.323 C 82.212 245.907,76.170 241.359,78.393 231.877 C 78.609 230.955,79.768 225.159,80.968 218.997 C 82.169 212.836,83.271 207.481,83.418 207.097 C 83.663 206.459,84.574 206.400,94.255 206.400 C 102.346 206.400,104.869 206.283,105.011 205.900 C 105.553 204.440,111.181 175.493,110.985 175.175 C 110.850 174.957,106.407 174.800,100.376 174.800 C 91.345 174.800,90.000 174.721,90.000 174.190 C 90.000 173.855,91.259 167.356,92.799 159.750 C 94.338 152.143,95.497 145.758,95.375 145.560 C 94.895 144.783,52.479 145.118,52.237 145.900 M161.000 167.637 C 150.981 169.381,143.426 172.523,136.238 177.935 C 118.588 191.225,109.797 213.737,113.171 237.000 C 117.203 264.786,143.158 282.133,168.651 274.079 C 172.849 272.753,181.580 267.673,182.131 266.235 C 182.239 265.955,182.973 265.419,183.763 265.044 C 184.553 264.669,185.200 264.101,185.200 263.781 C 185.200 263.462,185.380 263.200,185.600 263.200 C 185.820 263.200,186.000 262.761,186.000 262.224 C 186.000 261.687,186.180 261.136,186.400 261.000 C 186.620 260.864,186.800 260.324,186.800 259.800 C 186.800 259.276,186.980 258.736,187.200 258.600 C 187.420 258.464,187.600 257.924,187.600 257.400 C 187.600 256.876,187.780 256.336,188.000 256.200 C 188.220 256.064,188.400 255.524,188.400 255.000 C 188.400 254.476,188.580 253.936,188.800 253.800 C 189.020 253.664,189.200 253.124,189.200 252.600 C 189.200 252.076,189.380 251.536,189.600 251.400 C 189.820 251.264,190.000 250.724,190.000 250.200 C 190.000 249.676,190.180 249.136,190.400 249.000 C 190.620 248.864,190.800 248.324,190.800 247.800 C 190.800 247.276,190.959 246.749,191.154 246.629 C 191.348 246.508,191.632 245.578,191.785 244.562 C 191.937 243.546,192.408 242.098,192.831 241.345 C 193.254 240.592,193.600 239.621,193.600 239.188 C 193.600 238.755,193.780 238.400,194.000 238.400 C 194.220 238.400,194.400 237.860,194.400 237.200 C 194.400 236.540,194.580 236.000,194.800 236.000 C 195.020 236.000,195.200 235.561,195.200 235.024 C 195.200 234.487,195.380 233.936,195.600 233.800 C 195.820 233.664,196.000 233.124,196.000 232.600 C 196.000 232.076,196.180 231.536,196.400 231.400 C 196.620 231.264,196.800 230.724,196.800 230.200 C 196.800 229.676,196.980 229.136,197.200 229.000 C 197.420 228.864,197.600 228.324,197.600 227.800 C 197.600 227.276,197.780 226.736,198.000 226.600 C 198.220 226.464,198.400 225.924,198.400 225.400 C 198.400 224.876,198.580 224.336,198.800 224.200 C 199.020 224.064,199.200 223.524,199.200 223.000 C 199.200 222.476,199.380 221.936,199.600 221.800 C 199.820 221.664,200.000 221.124,200.000 220.600 C 200.000 220.076,200.180 219.536,200.400 219.400 C 200.620 219.264,200.800 218.713,200.800 218.176 C 200.800 217.639,200.980 217.200,201.200 217.200 C 201.420 217.200,201.600 216.660,201.600 216.000 C 201.600 215.340,201.780 214.800,202.000 214.800 C 202.220 214.800,202.400 214.440,202.400 214.000 C 202.400 213.560,202.580 213.200,202.800 213.200 C 203.020 213.200,203.200 212.761,203.200 212.224 C 203.200 211.687,203.380 211.136,203.600 211.000 C 203.820 210.864,204.000 210.324,204.000 209.800 C 204.000 209.276,204.180 208.736,204.400 208.600 C 204.620 208.464,204.800 207.924,204.800 207.400 C 204.800 206.876,204.980 206.336,205.200 206.200 C 205.420 206.064,205.600 205.524,205.600 205.000 C 205.600 204.476,205.780 203.936,206.000 203.800 C 206.220 203.664,206.400 203.124,206.400 202.600 C 206.400 202.076,206.580 201.536,206.800 201.400 C 207.020 201.264,207.200 200.724,207.200 200.200 C 207.200 199.676,207.363 199.146,207.563 199.023 C 207.762 198.900,208.049 197.900,208.200 196.800 C 208.351 195.700,208.638 194.700,208.837 194.577 C 209.037 194.454,209.200 193.924,209.200 193.400 C 209.200 192.876,209.380 192.336,209.600 192.200 C 209.820 192.064,210.000 191.513,210.000 190.976 C 210.000 190.439,210.180 190.000,210.400 190.000 C 210.620 190.000,210.800 189.460,210.800 188.800 C 210.800 188.140,210.980 187.600,211.200 187.600 C 211.420 187.600,211.600 187.240,211.600 186.800 C 211.600 186.360,211.780 186.000,212.000 186.000 C 212.220 186.000,212.400 185.561,212.400 185.024 C 212.400 184.487,212.580 183.936,212.800 183.800 C 213.020 183.664,213.200 183.124,213.200 182.600 C 213.200 182.076,213.380 181.536,213.600 181.400 C 213.820 181.264,214.000 180.724,214.000 180.200 C 214.000 179.676,214.180 179.136,214.400 179.000 C 214.620 178.864,214.800 178.324,214.800 177.800 C 214.800 177.276,214.980 176.736,215.200 176.600 C 215.420 176.464,215.600 175.949,215.600 175.456 C 215.600 174.963,215.771 174.389,215.979 174.180 C 216.187 173.971,216.429 173.108,216.515 172.263 C 216.685 170.602,217.238 170.044,218.800 169.956 C 222.142 169.768,215.005 169.255,208.708 169.230 C 201.250 169.200,201.214 169.204,201.024 170.100 C 200.919 170.595,200.436 172.935,199.950 175.300 C 199.214 178.882,198.944 179.600,198.333 179.600 C 197.930 179.600,197.600 179.444,197.600 179.254 C 197.600 178.569,193.351 174.521,191.000 172.966 C 186.597 170.053,183.628 168.973,176.800 167.799 C 173.107 167.164,164.243 167.073,161.000 167.637 M178.528 201.186 C 184.873 202.225,189.123 206.198,191.184 213.017 C 191.933 215.494,191.281 226.855,190.358 227.426 C 190.161 227.548,190.000 227.963,190.000 228.349 C 190.000 231.556,182.270 240.778,179.567 240.796 C 179.218 240.798,178.805 240.929,178.647 241.086 C 178.062 241.671,174.518 242.365,172.028 242.382 C 169.685 242.398,168.233 242.114,165.700 241.145 C 157.573 238.033,154.288 228.452,157.284 216.600 C 159.981 205.928,168.729 199.581,178.528 201.186 " stroke="none" fill="#cd3726" fill-rule="evenodd"></path><path id="path2" d="M0.000 200.000 L 0.000 400.000 200.000 400.000 L 400.000 400.000 400.000 200.000 L 400.000 0.000 200.000 0.000 L 0.000 0.000 0.000 200.000 M95.908 145.021 C 96.116 145.394,96.040 146.635,95.718 148.121 C 95.422 149.485,94.987 151.590,94.753 152.800 C 94.319 155.037,94.029 156.468,93.215 160.400 C 91.664 167.884,91.174 170.435,90.941 172.239 L 90.729 173.878 101.058 174.167 C 111.555 174.460,112.331 174.594,111.739 176.000 C 111.600 176.330,111.332 177.455,111.143 178.500 C 110.954 179.545,110.620 181.300,110.400 182.400 C 110.180 183.500,109.831 185.255,109.625 186.300 C 109.137 188.769,108.835 190.235,108.411 192.200 C 108.221 193.080,107.856 194.880,107.600 196.200 C 106.153 203.668,105.480 206.427,105.032 206.719 C 104.794 206.873,99.924 207.090,94.209 207.200 L 83.818 207.400 82.500 214.000 C 81.775 217.630,80.989 221.590,80.754 222.800 C 80.518 224.010,80.179 225.720,79.999 226.600 C 79.820 227.480,79.433 229.370,79.141 230.800 C 77.365 239.486,79.249 242.738,86.081 242.781 C 87.776 242.791,89.576 242.643,90.081 242.450 C 95.592 240.354,96.183 240.410,96.540 243.064 C 96.684 244.129,97.762 250.616,98.936 257.481 C 101.348 271.582,101.429 270.350,97.990 271.941 C 84.021 278.407,62.747 278.513,49.893 272.181 C 34.823 264.756,30.275 251.139,35.205 228.200 C 35.678 226.000,36.230 223.300,36.431 222.200 C 36.633 221.100,36.979 219.390,37.201 218.400 C 37.707 216.143,38.213 213.633,38.733 210.800 C 38.955 209.590,39.260 208.285,39.411 207.900 C 39.666 207.250,39.199 207.200,32.871 207.200 C 25.497 207.200,24.297 206.887,25.201 205.199 C 25.420 204.788,25.600 203.959,25.600 203.355 C 25.600 202.751,25.766 201.704,25.969 201.028 C 26.172 200.353,26.515 198.900,26.731 197.800 C 26.947 196.700,27.335 194.720,27.594 193.400 C 27.853 192.080,28.216 190.280,28.400 189.400 C 28.584 188.520,28.929 186.810,29.166 185.600 C 31.707 172.629,30.567 173.955,39.128 174.021 C 42.722 174.048,45.733 174.000,45.819 173.914 C 45.905 173.828,47.258 167.377,48.825 159.579 C 50.392 151.781,51.860 145.175,52.086 144.900 C 52.774 144.065,95.439 144.183,95.908 145.021 M174.400 166.810 C 183.448 167.754,190.134 170.571,195.198 175.574 L 198.389 178.727 198.770 177.263 C 198.980 176.458,199.442 174.367,199.797 172.616 C 200.151 170.865,200.636 169.198,200.873 168.912 C 201.218 168.496,205.594 168.414,222.952 168.497 L 244.600 168.600 244.552 170.000 C 244.525 170.770,244.316 172.300,244.087 173.400 C 243.858 174.500,243.458 176.480,243.198 177.800 C 242.939 179.120,242.554 181.010,242.345 182.000 C 241.784 184.644,241.276 187.140,240.838 189.400 C 240.373 191.794,240.073 193.259,239.611 195.400 C 239.421 196.280,239.056 198.080,238.800 199.400 C 238.544 200.720,238.182 202.520,237.994 203.400 C 237.807 204.280,237.458 206.080,237.219 207.400 C 236.797 209.724,226.406 262.367,225.651 266.000 C 225.445 266.990,225.068 268.880,224.814 270.200 C 224.559 271.520,224.222 273.050,224.066 273.600 L 223.781 274.600 203.214 274.704 C 191.902 274.761,182.502 274.662,182.324 274.484 C 182.146 274.306,182.350 272.560,182.777 270.604 C 183.760 266.107,183.659 265.993,180.769 268.330 C 179.458 269.391,177.714 270.620,176.893 271.060 C 176.072 271.500,175.040 272.065,174.600 272.315 C 172.904 273.280,170.221 274.400,169.605 274.400 C 169.250 274.400,168.789 274.551,168.580 274.736 C 167.664 275.544,159.868 276.802,155.827 276.793 C 137.590 276.751,120.882 264.217,114.779 246.000 C 108.972 228.668,112.469 204.945,122.886 191.000 C 128.373 183.655,137.631 174.844,139.900 174.808 C 140.175 174.804,140.400 174.620,140.400 174.400 C 140.400 174.180,140.572 174.000,140.782 174.000 C 140.993 174.000,142.028 173.494,143.082 172.876 C 151.379 168.015,163.480 165.671,174.400 166.810 M339.800 167.362 C 355.031 170.615,367.856 182.554,372.574 197.873 C 374.793 205.078,375.200 207.889,375.200 216.022 C 375.200 222.058,375.027 223.922,373.957 229.400 C 373.344 232.541,371.673 238.232,370.787 240.200 C 370.589 240.640,369.975 242.048,369.422 243.330 C 364.393 254.993,353.858 265.778,342.000 271.402 C 340.350 272.184,338.687 272.999,338.305 273.212 C 337.923 273.426,337.259 273.600,336.829 273.600 C 336.399 273.600,335.936 273.780,335.800 274.000 C 335.664 274.220,335.124 274.400,334.600 274.400 C 334.076 274.400,333.551 274.556,333.433 274.746 C 333.316 274.936,332.540 275.204,331.710 275.340 C 330.879 275.476,328.580 275.854,326.600 276.180 C 320.469 277.188,312.525 276.927,307.000 275.537 C 303.190 274.578,302.055 274.196,299.600 273.046 C 296.051 271.384,294.218 270.081,291.413 267.228 C 288.570 264.338,288.571 264.338,288.258 266.500 C 288.123 267.435,287.846 269.010,287.642 270.000 C 287.437 270.990,287.098 272.700,286.888 273.800 C 285.771 279.640,279.566 309.974,279.279 311.000 L 278.943 312.200 257.060 312.303 C 238.804 312.390,235.143 312.316,234.967 311.857 C 234.793 311.404,236.999 299.445,238.372 293.400 C 238.572 292.520,238.944 290.720,239.200 289.400 C 239.456 288.080,239.816 286.280,240.000 285.400 C 240.184 284.520,240.544 282.720,240.800 281.400 C 241.056 280.080,241.416 278.280,241.600 277.400 C 241.784 276.520,242.144 274.720,242.400 273.400 C 242.656 272.080,243.016 270.280,243.200 269.400 C 243.384 268.520,243.744 266.720,244.000 265.400 C 244.256 264.080,244.616 262.280,244.800 261.400 C 244.984 260.520,245.344 258.720,245.600 257.400 C 245.856 256.080,246.216 254.280,246.400 253.400 C 246.584 252.520,246.944 250.720,247.200 249.400 C 247.456 248.080,247.824 246.280,248.019 245.400 C 248.213 244.520,249.366 238.670,250.581 232.400 C 252.922 220.319,253.462 217.569,254.000 215.000 C 254.184 214.120,254.544 212.320,254.800 211.000 C 255.056 209.680,255.416 207.880,255.600 207.000 C 255.784 206.120,256.140 204.320,256.392 203.000 C 256.643 201.680,257.017 200.047,257.224 199.372 C 257.431 198.696,257.600 197.719,257.600 197.200 C 257.600 196.681,257.769 195.704,257.976 195.028 C 258.183 194.353,258.557 192.720,258.808 191.400 C 259.060 190.080,259.416 188.280,259.600 187.400 C 259.784 186.520,260.144 184.720,260.400 183.400 C 260.656 182.080,261.016 180.280,261.200 179.400 C 261.384 178.520,261.748 176.720,262.008 175.400 C 262.268 174.080,262.706 172.010,262.981 170.800 L 263.481 168.600 283.440 168.489 C 307.973 168.353,305.466 167.837,304.394 172.803 C 304.133 174.014,303.982 175.413,304.059 175.912 L 304.200 176.818 305.200 175.889 C 310.262 171.186,317.961 167.918,327.000 166.634 C 329.224 166.319,336.978 166.760,339.800 167.362 M172.600 201.792 C 172.380 201.863,171.221 202.224,170.024 202.593 C 164.453 204.315,159.198 210.509,157.802 217.000 C 154.018 234.593,163.197 245.099,178.400 240.576 C 182.846 239.253,188.232 232.925,189.659 227.348 C 192.924 214.587,189.636 205.307,180.834 202.437 C 178.571 201.699,173.999 201.341,172.600 201.792 M310.400 202.329 C 294.870 206.411,290.833 233.766,304.800 240.280 C 314.065 244.601,325.471 238.691,328.889 227.800 C 334.108 211.170,324.920 198.513,310.400 202.329 " stroke="none" fill="#fbfbfb" fill-rule="evenodd"></path><path id="path3" d="M52.086 144.900 C 51.860 145.175,50.392 151.781,48.825 159.579 C 47.258 167.377,45.905 173.828,45.819 173.914 C 45.733 174.000,42.722 174.048,39.128 174.021 C 30.567 173.955,31.707 172.629,29.166 185.600 C 28.929 186.810,28.584 188.520,28.400 189.400 C 28.216 190.280,27.853 192.080,27.594 193.400 C 27.335 194.720,26.947 196.700,26.731 197.800 C 26.515 198.900,26.172 200.353,25.969 201.028 C 25.766 201.704,25.600 202.751,25.600 203.355 C 25.600 203.959,25.420 204.788,25.201 205.199 C 24.297 206.887,25.497 207.200,32.871 207.200 C 39.199 207.200,39.666 207.250,39.411 207.900 C 39.260 208.285,38.955 209.590,38.733 210.800 C 38.213 213.633,37.707 216.143,37.201 218.400 C 36.979 219.390,36.633 221.100,36.431 222.200 C 36.230 223.300,35.678 226.000,35.205 228.200 C 30.275 251.139,34.823 264.756,49.893 272.181 C 62.747 278.513,84.021 278.407,97.990 271.941 C 101.429 270.350,101.348 271.582,98.936 257.481 C 97.762 250.616,96.684 244.129,96.540 243.064 C 96.183 240.410,95.592 240.354,90.081 242.450 C 89.576 242.643,87.776 242.791,86.081 242.781 C 79.249 242.738,77.365 239.486,79.141 230.800 C 79.433 229.370,79.820 227.480,79.999 226.600 C 80.179 225.720,80.518 224.010,80.754 222.800 C 80.989 221.590,81.775 217.630,82.500 214.000 L 83.818 207.400 94.209 207.200 C 99.924 207.090,104.794 206.873,105.032 206.719 C 105.480 206.427,106.153 203.668,107.600 196.200 C 107.856 194.880,108.221 193.080,108.411 192.200 C 108.835 190.235,109.137 188.769,109.625 186.300 C 109.831 185.255,110.180 183.500,110.400 182.400 C 110.620 181.300,110.954 179.545,111.143 178.500 C 111.332 177.455,111.600 176.330,111.739 176.000 C 112.331 174.594,111.555 174.460,101.058 174.167 L 90.729 173.878 90.941 172.239 C 91.174 170.435,91.664 167.884,93.215 160.400 C 94.029 156.468,94.319 155.037,94.753 152.800 C 94.987 151.590,95.422 149.485,95.718 148.121 C 96.599 144.059,98.587 144.400,74.029 144.400 C 57.290 144.400,52.406 144.511,52.086 144.900 M95.375 145.560 C 95.497 145.758,94.338 152.143,92.799 159.750 C 91.259 167.356,90.000 173.855,90.000 174.190 C 90.000 174.721,91.345 174.800,100.376 174.800 C 106.407 174.800,110.850 174.957,110.985 175.175 C 111.181 175.493,105.553 204.440,105.011 205.900 C 104.869 206.283,102.346 206.400,94.255 206.400 C 84.574 206.400,83.663 206.459,83.418 207.097 C 83.271 207.481,82.169 212.836,80.968 218.997 C 79.768 225.159,78.609 230.955,78.393 231.877 C 76.170 241.359,82.212 245.907,92.270 242.323 C 95.430 241.198,96.000 241.347,96.000 243.303 C 96.000 243.931,96.164 245.200,96.364 246.123 C 96.564 247.045,96.937 249.060,97.193 250.600 C 97.448 252.140,97.823 254.300,98.025 255.400 C 99.105 261.272,100.461 270.079,100.307 270.212 C 97.553 272.585,86.799 275.348,77.839 275.984 C 49.335 278.008,32.528 264.967,33.734 241.760 C 33.996 236.722,33.878 237.423,37.356 220.276 C 38.820 213.058,39.913 206.983,39.785 206.776 C 39.655 206.565,36.584 206.400,32.800 206.400 C 29.086 206.400,25.960 206.258,25.853 206.085 C 25.535 205.571,31.664 175.426,32.152 175.106 C 32.398 174.944,35.604 174.809,39.276 174.806 C 43.758 174.802,46.044 174.653,46.229 174.353 C 46.481 173.945,47.056 171.217,50.811 152.600 C 51.476 149.300,52.118 146.285,52.237 145.900 C 52.479 145.118,94.895 144.783,95.375 145.560 M163.600 166.679 C 156.171 167.478,148.174 169.893,143.082 172.876 C 142.028 173.494,140.993 174.000,140.782 174.000 C 140.572 174.000,140.400 174.180,140.400 174.400 C 140.400 174.620,140.175 174.804,139.900 174.808 C 137.631 174.844,128.373 183.655,122.886 191.000 C 111.002 206.908,108.441 234.643,117.244 252.089 C 127.640 272.689,152.140 282.391,171.496 273.573 C 172.428 273.148,173.265 272.800,173.355 272.800 C 173.866 272.800,179.311 269.231,181.064 267.747 C 183.707 265.510,184.029 265.528,183.806 267.900 L 183.628 269.800 184.049 267.669 C 184.555 265.111,184.337 264.779,182.893 265.909 C 176.660 270.785,171.499 273.487,165.800 274.860 C 140.998 280.831,117.029 263.588,113.171 237.000 C 107.768 199.757,133.616 167.214,168.600 167.214 C 175.943 167.214,181.795 168.352,187.500 170.889 C 190.668 172.298,197.600 178.039,197.600 179.254 C 197.600 179.444,197.930 179.600,198.333 179.600 C 198.944 179.600,199.214 178.882,199.950 175.300 C 200.436 172.935,200.919 170.595,201.024 170.100 L 201.215 169.200 211.074 169.200 C 216.497 169.200,220.858 169.126,220.767 169.035 C 220.359 168.632,201.208 168.632,200.805 169.035 C 200.572 169.268,200.189 170.526,199.955 171.829 C 199.721 173.133,199.376 175.055,199.189 176.099 C 198.675 178.969,198.628 178.962,195.201 175.577 C 188.368 168.826,176.003 165.344,163.600 166.679 M172.071 201.228 C 165.138 202.592,159.287 208.675,157.284 216.600 C 154.978 225.722,156.346 233.573,161.036 238.131 C 163.097 240.134,164.148 240.707,168.028 241.945 C 170.625 242.773,177.518 242.215,178.647 241.086 C 178.805 240.929,179.218 240.798,179.567 240.796 C 182.270 240.778,190.000 231.556,190.000 228.349 C 190.000 227.963,190.161 227.548,190.358 227.426 C 191.281 226.855,191.933 215.494,191.184 213.017 C 188.475 204.052,181.035 199.464,172.071 201.228 M180.830 202.441 C 197.647 207.962,193.047 238.446,174.951 241.402 C 161.769 243.554,154.359 233.009,157.802 217.000 C 159.198 210.509,164.453 204.315,170.024 202.593 C 171.221 202.224,172.380 201.863,172.600 201.792 C 174.006 201.339,178.569 201.699,180.830 202.441 M183.056 270.884 C 182.921 271.388,182.828 272.250,182.849 272.800 C 182.872 273.389,183.031 273.071,183.236 272.025 C 183.603 270.152,183.473 269.327,183.056 270.884 M183.500 274.282 C 183.995 274.378,184.805 274.378,185.300 274.282 C 185.795 274.187,185.390 274.109,184.400 274.109 C 183.410 274.109,183.005 274.187,183.500 274.282 " stroke="none" fill="#e69e98" fill-rule="evenodd"></path><path id="path4" d="M327.000 166.634 C 317.961 167.918,310.262 171.186,305.200 175.889 L 304.200 176.818 304.059 175.912 C 303.982 175.413,304.133 174.014,304.394 172.803 C 305.466 167.837,307.973 168.353,283.440 168.489 L 263.481 168.600 262.981 170.800 C 262.706 172.010,262.268 174.080,262.008 175.400 C 261.748 176.720,261.384 178.520,261.200 179.400 C 261.016 180.280,260.656 182.080,260.400 183.400 C 260.144 184.720,259.784 186.520,259.600 187.400 C 259.416 188.280,259.060 190.080,258.808 191.400 C 258.557 192.720,258.183 194.353,257.976 195.028 C 257.769 195.704,257.600 196.681,257.600 197.200 C 257.600 197.719,257.431 198.696,257.224 199.372 C 257.017 200.047,256.643 201.680,256.392 203.000 C 256.140 204.320,255.784 206.120,255.600 207.000 C 255.416 207.880,255.056 209.680,254.800 211.000 C 254.544 212.320,254.184 214.120,254.000 215.000 C 253.462 217.569,252.922 220.319,250.581 232.400 C 249.366 238.670,248.213 244.520,248.019 245.400 C 247.824 246.280,247.456 248.080,247.200 249.400 C 246.944 250.720,246.584 252.520,246.400 253.400 C 246.216 254.280,245.856 256.080,245.600 257.400 C 245.344 258.720,244.984 260.520,244.800 261.400 C 244.616 262.280,244.256 264.080,244.000 265.400 C 243.744 266.720,243.384 268.520,243.200 269.400 C 243.016 270.280,242.656 272.080,242.400 273.400 C 242.144 274.720,241.784 276.520,241.600 277.400 C 241.416 278.280,241.056 280.080,240.800 281.400 C 240.544 282.720,240.184 284.520,240.000 285.400 C 239.816 286.280,239.456 288.080,239.200 289.400 C 238.944 290.720,238.572 292.520,238.372 293.400 C 236.999 299.445,234.793 311.404,234.967 311.857 C 235.143 312.316,238.804 312.390,257.060 312.303 L 278.943 312.200 279.279 311.000 C 279.566 309.974,285.771 279.640,286.888 273.800 C 287.098 272.700,287.437 270.990,287.642 270.000 C 287.846 269.010,288.123 267.435,288.258 266.500 C 288.571 264.338,288.570 264.338,291.413 267.228 C 294.218 270.081,296.051 271.384,299.600 273.046 C 302.055 274.196,303.190 274.578,307.000 275.537 C 312.525 276.927,320.469 277.188,326.600 276.180 C 328.580 275.854,330.879 275.476,331.710 275.340 C 332.540 275.204,333.316 274.936,333.433 274.746 C 333.551 274.556,334.076 274.400,334.600 274.400 C 335.124 274.400,335.664 274.220,335.800 274.000 C 335.936 273.780,336.399 273.600,336.829 273.600 C 337.259 273.600,337.923 273.426,338.305 273.212 C 338.687 272.999,340.350 272.184,342.000 271.402 C 353.858 265.778,364.393 254.993,369.422 243.330 C 369.975 242.048,370.589 240.640,370.787 240.200 C 371.673 238.232,373.344 232.541,373.957 229.400 C 375.027 223.922,375.200 222.058,375.200 216.022 C 375.200 186.052,352.689 162.987,327.000 166.634 M339.105 167.807 C 390.486 178.526,384.736 261.328,331.689 274.586 C 315.751 278.569,300.345 275.501,291.493 266.581 C 289.916 264.991,288.648 264.009,288.455 264.227 C 288.272 264.432,286.906 270.720,285.420 278.200 C 283.933 285.680,282.571 292.430,282.393 293.200 C 282.081 294.549,281.819 295.836,280.806 301.000 C 279.404 308.145,278.655 311.394,278.362 311.600 C 278.205 311.710,268.465 311.752,256.718 311.693 L 235.359 311.586 244.479 266.093 C 249.495 241.072,253.795 219.520,254.036 218.200 C 254.276 216.880,254.620 215.080,254.799 214.200 C 254.979 213.320,255.339 211.520,255.600 210.200 C 255.861 208.880,256.246 206.990,256.455 206.000 C 256.665 205.010,257.008 203.345,257.218 202.300 C 257.428 201.255,257.774 199.545,257.987 198.500 C 258.200 197.455,258.549 195.700,258.762 194.600 C 259.227 192.206,259.527 190.741,259.989 188.600 C 260.179 187.720,260.544 185.920,260.800 184.600 C 261.056 183.280,261.420 181.480,261.609 180.600 C 261.798 179.720,262.347 176.930,262.829 174.400 C 263.311 171.870,263.859 169.632,264.047 169.426 C 264.695 168.715,304.400 168.598,304.400 169.307 C 304.400 169.641,304.118 171.280,303.773 172.948 C 303.427 174.617,303.202 176.478,303.273 177.084 L 303.400 178.186 305.000 176.758 C 313.697 168.999,327.479 165.381,339.105 167.807 M214.000 168.820 C 218.950 168.972,227.834 169.120,233.743 169.148 C 243.811 169.197,244.467 169.244,244.186 169.900 C 244.021 170.285,243.737 171.410,243.556 172.400 C 243.099 174.890,242.445 178.258,242.002 180.400 C 241.798 181.390,241.526 182.830,241.399 183.600 C 241.271 184.370,241.008 185.630,240.813 186.400 C 240.619 187.170,240.252 188.880,239.997 190.200 C 239.743 191.520,239.384 193.320,239.200 194.200 C 239.016 195.080,238.656 196.880,238.400 198.200 C 238.144 199.520,237.784 201.320,237.600 202.200 C 237.124 204.472,236.631 206.974,234.602 217.400 C 232.664 227.362,232.117 230.133,231.600 232.600 C 231.416 233.480,231.056 235.280,230.800 236.600 C 230.544 237.920,230.184 239.720,230.000 240.600 C 229.816 241.480,229.456 243.280,229.200 244.600 C 228.944 245.920,228.584 247.720,228.400 248.600 C 228.216 249.480,227.856 251.280,227.600 252.600 C 227.344 253.920,226.984 255.720,226.800 256.600 C 226.616 257.480,226.276 259.190,226.046 260.400 C 225.415 263.715,225.190 264.846,224.815 266.600 C 224.627 267.480,224.266 269.370,224.013 270.800 C 223.760 272.230,223.429 273.523,223.277 273.673 C 223.125 273.824,213.955 274.004,202.900 274.073 L 182.800 274.200 182.765 272.800 L 182.731 271.400 182.368 272.600 C 181.665 274.919,180.647 274.816,203.079 274.704 L 223.781 274.600 224.066 273.600 C 224.222 273.050,224.559 271.520,224.814 270.200 C 225.068 268.880,225.445 266.990,225.651 266.000 C 226.406 262.367,236.797 209.724,237.219 207.400 C 237.458 206.080,237.807 204.280,237.994 203.400 C 238.182 202.520,238.544 200.720,238.800 199.400 C 239.056 198.080,239.421 196.280,239.611 195.400 C 240.116 193.064,240.739 190.005,241.569 185.800 C 241.786 184.700,242.135 182.990,242.345 182.000 C 242.554 181.010,242.939 179.120,243.198 177.800 C 243.458 176.480,243.858 174.500,244.087 173.400 C 244.316 172.300,244.525 170.770,244.552 170.000 L 244.600 168.600 224.800 168.571 C 209.559 168.549,207.072 168.606,214.000 168.820 M310.749 201.550 C 294.735 204.946,289.964 234.576,304.439 240.737 C 317.455 246.276,329.909 236.437,330.686 220.000 C 331.314 206.721,322.935 198.967,310.749 201.550 M319.191 202.222 C 335.409 206.045,333.591 235.398,316.800 240.819 C 305.755 244.385,296.400 237.106,296.400 224.947 C 296.400 209.295,306.494 199.230,319.191 202.222 M181.970 267.100 L 181.000 268.200 182.023 267.303 C 182.815 266.608,183.153 266.513,183.523 266.883 C 183.892 267.252,184.000 267.207,184.000 266.680 C 184.000 265.664,183.065 265.858,181.970 267.100 M183.054 269.154 C 182.900 270.118,182.858 270.991,182.961 271.094 C 183.230 271.363,183.715 268.545,183.507 267.922 C 183.412 267.636,183.208 268.190,183.054 269.154 " stroke="none" fill="#b4d0a3" fill-rule="evenodd"></path></g></svg>
