<svg xmlns="http://www.w3.org/2000/svg" viewBox="0 0 300 160" xmlns:v="https://vecta.io/nano"><g fill="#fff"><path d="M288.4 160.5H10.6c-6.1 0-11.1-5-11.1-11.1h0V11.6C-.5 5.5 4.5.5 10.6.5h0 277.8c6.1 0 11.1 5 11.1 11.1h0v137.8c0 6.1-5 11.1-11.1 11.1h0z"/><path d="M88.5 60.8c.9-.1 1.8 0 2.7-.1l2.7.1c-.5.2-1 .3-1.5.6-.3.4-.3 1-.3 1.5v8.3c0 .5 0 1 .2 1.5.2.3.6.4.9.4s.5.1.8.1c0 .1-.1.2-.1.3-.4.1-.9 0-1.3.1h-4c-.1-.1-.2-.2-.2-.3.6-.1 1.3 0 1.7-.5s.3-1.1.3-1.7v-8.7c0-.3 0-.8-.4-1-.5-.3-1-.5-1.5-.6zm19 5.6c.2-.9 1.1-1.4 1.8-1.8 1.3 0 3-.3 3.9.9.4 2.1.1 4.2.2 6.3 0 .2.2.4.3.6.4-.2.8-.8 1.2-.5-.3.7-1 1.3-1.7 1.6-.4.3-.9 0-1.2-.4-.1-.3-.2-.6-.2-1-.5.2-.7.6-1.1.9-.5.4-1.3.6-2 .5-.7-.3-1.3-.8-1.4-1.5-.2-.8-.1-1.9.6-2.5.7-.5 1.3-1 2-1.3.6-.2 1.1-.5 1.7-.7 0-.7.2-1.6-.4-2.1-.6-.6-1.7-.4-2.2.2-.1.6 0 1.1-.2 1.7-.2.3-.7.2-1 .2-.2-.1-.5-.6-.3-1.1zm1.5 3.7c-.1.6-.1 1.1 0 1.7.3.5.9.8 1.4.7.5-.2.9-.5 1.3-.7v-3.2c-.9.3-2 .7-2.7 1.5zm14.6 5.7c1.1.1 2-.8 3.1-.8v6.5c0 .7-.1 1.3.1 2 .5-.3.9-.7 1.3-1.1.7-.5 1.4-1 1.9-1.6.1-.3-.1-.4-.3-.6.9-.3 1.9-.1 2.8-.2 0 .1-.1.2-.1.3-1.5.6-2.3 2-3.8 2.7 0 .5.4.7.6 1 .8.7 1.3 1.7 2.1 2.3.6.5 1 1.3 1.8 1.6.3.2.7.2 1.1.2v.4c-1 .1-1.9 0-2.9 0-.7 0-1.4.1-2-.1.2-.3.5-.5.7-.7-.4-1.1-1.6-1.7-2.2-2.7-.3-.5-.7-.9-1.2-1.2-.1.9 0 1.8 0 2.6 0 .5.1 1 .4 1.3s.7.3 1.1.3v.4h-4.7c0-.1-.1-.3-.1-.4.4-.1.9-.2 1.3-.4.2-.3.2-.8.2-1.1v-8.3c0-.7 0-1.4-.2-2.1h-1.3c.2.1.2-.1.3-.3zm-9.4 4.2c.6-.1 1.1-.5 1.7-.4 0 .5 0 1 .1 1.6.9-.9 2-1.7 3.3-1.6 1 0 2.1.6 2.3 1.7.3 2.2.1 4.4.2 6.5.4.2.8.4 1.3.4v.4h-4.4c-.3 0-.4-.1-.4-.4.4-.1.9 0 1.2-.3.2-.2.4-.6.4-.9v-4c0-.6-.2-1.2-.4-1.7-.2-.3-.5-.5-.8-.5-1.1-.1-2.1.5-2.8 1.3-.1 1.4 0 2.8 0 4.3 0 .5 0 1.1.4 1.5.4.3 1 .2 1.4.5-.4.3-.9.2-1.4.2h-3.5v-.4c.5-.1 1.1-.2 1.2-.7.1-1.8 0-3.7 0-5.5 0-.3 0-.7-.2-1-.4-.1-.8 0-1.2 0 .1-.2.1-.4.2-.5.4-.3.9-.4 1.4-.5zm-20.6 53.9c1.2-.3 2.5 0 3.5.6.5.3 1.1.5 1.4 1 .4.7 1 1.4.9 2.2-.1.3-.3.6-.5.8-.3.1-.7.1-1.1 0-.5-.5-.7-1.2-1.2-1.7-.4-.4-.8-.9-1.4-.9-.8 0-1.6-.1-2.3.4-.8.5-1.1 1.4-1.3 2.3-.1.8 0 1.6 0 2.4s.2 1.5.6 2.1c.5.8 1.5 1.2 2.4 1.2.5 0 1.2-.1 1.5-.5.4-.4.8-.8 1-1.4.1-.4.3-.8.6-1.1.6-.2 1.3-.1 1.5.5.3.8-.1 1.6-.5 2.3-.3.5-.6 1.1-1.2 1.4-.7.3-1.3.7-2 .9-1.2 0-2.5.1-3.6-.4-.7-.4-1.6-.8-1.9-1.6-.3-.7-.8-1.4-.9-2.2-.3-.9-.2-1.9-.2-2.8 0-1.4.7-2.6 1.4-3.8.4-.6 1.2-.9 1.8-1.3.5-.2 1.1-.2 1.5-.4zm10.5 2.2c.3-.8.6-1.7 1.5-2.2.3-.1.7-.1 1.1 0 .6.4 1.1.9 1.3 1.5.3 1 .9 1.9 1.1 3 .6 1.8 1.5 3.6 2.2 5.4.1.7.4 1.4.2 2.1-.2.6-1.1.9-1.6.5s-.7-1.1-.9-1.6-.1-1-.5-1.4c-1.5-.1-3.1 0-4.6 0l-1.1 2.8c-.5.8-2 .2-1.9-.7 0-1.2.7-2.2 1.1-3.3.3-.8.8-1.6.8-2.5.2-1.2.8-2.4 1.3-3.6zm1.7 1c-.4 1.4-1 2.8-1.2 4.3h2.9v-.2c-.5-1.3-.9-2.7-1.3-4.1h-.4zm8-2c1.1-.8 2.4-1.3 3.8-1.2 1.1-.1 2.1.5 3.1 1 .7.4 1 1.2 1 2 0 .5-.3.9-.7 1.1-.4 0-.8.1-1.1-.2-.5-.5-.5-1.4-1.2-1.7-.6-.5-1.4-.4-2.1-.3-.4.2-.9.4-1.1.8-.3.4 0 .9.1 1.4.7.4 1.5.7 2.3.8.9.1 1.6.4 2.4.8.7.3 1.3.9 1.5 1.6.5 1.2.2 2.5-.2 3.6a1.21 1.21 0 0 1-.7.7c-.8.4-1.6 1-2.5 1h-2.1c-.9-.2-1.7-.6-2.4-1.1-.9-.7-1.1-2-.9-3.1.3-.4.7-.7 1.2-.5.9.5 1 1.7 1.6 2.4.6.6 1.6.5 2.4.4.4-.1.8-.3 1.1-.7.4-.4.2-.9.3-1.4 0-.5-.4-1-.9-1.1-1.4-.3-2.9-.5-4.1-1.3-.6-.4-1.2-1-1.4-1.6-.2-1.2-.3-2.6.6-3.4zm10.3-.4c.2-.7.9-1 1.6-.8.3.2.7.6.7 1v3.2c0 .2.1.5.1.7 1.6-.1 3.2 0 4.8 0l.1-.1c.1-1.4-.3-2.9.4-4.3.5-1 2.2-.4 2.1.6v9.9c0 .3 0 .6-.1.8-.3.4-.7.9-1.3.8s-1-.7-1-1.3V141c-.9-.2-1.8-.1-2.7-.1-.8 0-1.7-.1-2.5.1v4.2c.1.5-.3 1-.7 1.2-.7.3-1.7-.4-1.6-1.2v-8.9c.1-.5 0-1 .1-1.6z"/></g><path d="M81.8 6.3h6.4 2.4v24.8 1h57.1c.4 0 .9 0 1.3.1v121.6H75.6V32.2h6.2c0-.3.1-.7.1-1l-.1-24.9zm28.1 33.1c-.8.3-1.5.8-2.3 1.1-.7.3-1 1.1-1.6 1.5-.4.4-.9.7-1.1 1.2-.2.6-.4 1.2-.7 1.7-.4 1-.5 2.1-.6 3.2-.5 0-1.1-.1-1.6.3-.7.4-.9 1.3-.7 2 .2.6.1 1.2.5 1.7.2.4.8.4 1 .8.4.5.5 1.1.9 1.6.8.9 1.4 2 2.5 2.7.2.2.5.3.7.5.1.4.1.9.4 1.3a6.73 6.73 0 0 0 1.5 1.4c.2.2.5.2.8.2.7-.2 1-1 1.7-1.3.7-.1 1.3 0 2 0 .4 0 .9-.1 1.1.3.5.4.8 1.2 1.6 1.1.7 0 1.2-.6 1.5-1.1.3-.4.8-.8.8-1.4s.6-.7 1-1.1c.8-.8 1.6-1.5 2.2-2.4.3-.4.4-.9.7-1.3.2-.3.6-.5.9-.8.6-.6.5-1.5.7-2.2 0-.6 0-1.3-.5-1.7-.5-.2-1.1-.2-1.7-.2.1-1-.3-2-.4-3-.6-1.5-1.5-2.9-2.7-4.1-1-1.1-2.5-1.6-3.9-2.2-1-.3-2.1-.3-3.1-.2-.4 0-.9.3-1.6.4zm-7.8 21.8c.2.4.7.2 1 .2.2.7.2 1.4.2 2.1v8.6c0 .6-.5 1.1-1.1 1.2v.3h3.6c.2 0 .5 0 .6-.3-.4-.1-.8-.1-1.1-.3s-.3-.6-.4-.9V60c-.3 0-.7 0-.9.2-.6.2-1.4.5-1.9 1zm29.3-1c-.5.4-.5 1.3.1 1.6.5.4 1 0 1.4-.3v-.9c-.1-.2-.3-.4-.5-.6-.3.1-.7-.1-1 .2zm-43 .9c.5 0 1.1.2 1.6.3.1 3.7 0 7.5.1 11.3-.4.5-1.1.4-1.7.5.1.1.2.2.2.3 1.3.1 2.6 0 4 0 .4 0 .9.1 1.3-.1 0-.1.1-.2.1-.3-.3 0-.5 0-.8-.1-.3-.2-.5-.3-.8-.5-.1-1.4 0-2.7-.1-4.1v-7c.5-.2 1-.4 1.6-.4v-.6h-5.2c-.3 0-.3.4-.3.7zm6.8 5.1c-.1.6-.1 1.1 0 1.7.3.6.8 1 1.2 1.4.5.4 1.2.4 1.6.8.6.4 1.3 1 1.4 1.8-.1.8-1.1 1.5-1.9 1.2-1-.3-1.7-1.2-2-2.2-.1-.2-.2-.4-.4-.5-.1 1.1 0 2.2 0 3.3.3-.1.6-.3.9-.2.8.3 1.8.3 2.6.2 1-.3 2-1 2-2.2 0-.7.1-1.5-.4-1.9-.6-.7-1.5-1-2.3-1.5-.5-.3-1.1-.4-1.5-.8-.3-.5-.3-1-.2-1.5.6-.8 1.9-.7 2.6-.1.5.5.7 1.3.9 2 .1-.1.3-.2.4-.3-.1-.9.2-1.9-.2-2.8-.3.1-.6.5-.9.3-.8-.3-1.8-.3-2.6-.2-.3.4-1.1.8-1.2 1.5zm12.3.2c-.2.5.1 1 .4 1.3.3 0 .7.1 1-.2.2-.5.1-1.1.2-1.7.5-.7 1.6-.9 2.2-.2.6.5.3 1.4.4 2.1-.6.2-1.1.5-1.7.7-.8.3-1.4.8-2 1.3-.8.6-.8 1.6-.6 2.5.1.7.8 1.3 1.4 1.5.7.2 1.4 0 2-.5.4-.3.6-.7 1.1-.9.1.3.1.6.2 1 .3.3.8.6 1.2.4.7-.3 1.4-.9 1.7-1.6-.4-.3-.8.3-1.2.5-.1-.2-.3-.4-.3-.6-.1-2.1.2-4.2-.2-6.3-.9-1.2-2.6-.9-3.9-.9-.8.3-1.7.7-1.9 1.6zm7.8-1.1c-.1.2-.1.4-.2.6h1c.1.6.1 1.3.1 1.9v4.9c-.3.2-.6.4-.9.5v.3h4v-.3c-.4-.1-.9-.1-1.1-.4-.4-.5-.3-1.2-.3-1.8v-4c.3-.6.9-.9 1.5-1.2.9-.5 2.1.5 2 1.5v5.2c-.1.5-.8.6-1.3.7v.3h3.6c.2 0 .5 0 .6-.2-.5-.1-1.2-.3-1.3-.9V67c.2-.4.6-.8 1.1-1.1.4-.1.8-.1 1.2-.1.6-.1.9.7 1 1.2v5.4c0 .7-.8.8-1.3.9.3.3.7.2 1.1.2h3.2v-.3c-.5-.1-1.2-.3-1.2-.9v-4.6c0-.7.1-1.5-.3-2.2-.4-.6-1.1-1.1-1.9-1-1.2-.1-2.1.8-2.9 1.6-.2-.9-1.1-1.8-2.1-1.6-1.2-.1-2 .9-2.8 1.6v-1.6c-1.1 0-1.8.8-2.8.8zm15.4-.1c-.3.1-.9.1-.8.6h1.2c.4 1.5.2 3.1.2 4.6-.1.7.2 1.6-.3 2.2-.2.4-.7.4-1.1.5.1.1.2.2.3.2h3.6c.1-.1.2-.2.3-.2-.4-.1-.8-.3-1.2-.5 0-.7-.2-1.4 0-2.1v-4.3c-.1-.6.1-1.2-.1-1.8-.8.2-1.4.6-2.1.8zm-7.1 10.6c-.1.2-.1.4-.2.6h1.3c.2.7.1 1.4.2 2.1v8.3c0 .4 0 .8-.2 1.1-.4.2-.8.3-1.3.4 0 .1.1.3.1.4h4.7v-.4c-.4 0-.8-.1-1.1-.3-.4-.3-.4-.9-.4-1.3v-2.6c.5.3.9.7 1.2 1.2.6 1 1.7 1.6 2.2 2.7-.3.2-.6.4-.7.7.7.2 1.3.1 2 .1h2.9v-.4c-.4 0-.7 0-1.1-.2-.8-.3-1.1-1.1-1.8-1.6-.8-.7-1.3-1.6-2.1-2.3-.3-.3-.7-.6-.6-1 1.4-.7 2.3-2.1 3.8-2.7h1.3c0-.2.1-.6-.3-.6h-4.1c0 .2.1.4.1.6.1 0 .2-.1.3-.2.2.2.4.3.3.6-.5.7-1.2 1.2-1.9 1.6-.4.4-.8.8-1.3 1.1-.2-.7-.1-1.3-.1-2v-6.5c-1.2-.2-2.1.7-3.2.6zm-34.9-.2v.5h1.2c.4.2.8.6.7 1.1v10.3c-.4.6-1.2.8-1.9.7v.4c.7.1 1.4 0 2.1 0 2.2 0 4.5.1 6.7-.1.8 0 1.5-.3 2.2-.5.7-.3 1.1-1 1.6-1.6.3-.5.5-1.1.4-1.6a4.45 4.45 0 0 0-1.2-2.1c-.4-.4-.9-.3-1.4-.5a.76.76 0 0 0-.2-.4c.6-.2 1.1-.5 1.5-1.1.2-.2.4-.5.4-.8.2-.8.1-1.7-.2-2.5-.6-.9-1.6-1.5-2.6-1.7-3.1-.2-6.2 0-9.3-.1zm15.4 5.5c-.3.5-.4 1.2.2 1.6.5.1 1.1.2 1.4-.3.1-.4 0-.9 0-1.3.2-.3.4-.5.7-.7.7 0 1.7-.3 2.2.5.2.7.3 1.4 0 2.1-1.2.1-2.2.8-3.3 1.2-.9.4-1.7 1-1.9 1.9-.2 1 .4 2.1 1.3 2.5.5.3 1.1.2 1.6.2.9-.2 1.5-.8 2.3-1.2.3.1.3.6.4.9.3.1.6.3 1 .3.9 0 1.6-.7 2.2-1.3 0-.2 0-.5.1-.6l-.6.3c-.2 0-.5.1-.7.1-.2-1.2-.1-2.3-.1-3.5 0-1.1.1-2.3-.5-3.3-.3-.5-1-.6-1.5-.7-.7-.2-1.5-.2-2.2-.1-1 0-2.1.4-2.6 1.4zm10.1-1.1c-.5.1-1 .2-1.4.4-.2.1-.2.4-.2.5h1.2c.3.2.2.6.2 1 0 1.8.1 3.7 0 5.5-.1.6-.8.7-1.2.7v.4c1.2.1 2.3 0 3.5 0 .5 0 1 .1 1.4-.2-.4-.3-1-.2-1.4-.5-.4-.4-.4-1-.4-1.5V82c.7-.8 1.7-1.5 2.8-1.3.3 0 .6.2.8.5.2.6.4 1.1.4 1.7v4c0 .3-.2.7-.4.9-.3.3-.8.2-1.2.3 0 .2.2.4.4.4h4.4v-.4c-.4 0-.9-.2-1.3-.4-.1-2.2.1-4.4-.2-6.5-.2-1-1.3-1.7-2.3-1.7-1.3-.1-2.4.7-3.3 1.6-.2-.5-.2-1-.1-1.6-.6.1-1.1.4-1.7.5zM92.6 91.6c-.7.3-1.3.8-1.9 1.3s-.6 1.3-.9 1.9c-.2.7-.1 1.4-.2 2v31c0 .7.3 1.3.4 1.9.1.7.7 1.1 1.2 1.6.7.6 1.4 1.1 2.3 1.1.8 0 1.6.1 2.5-.1 1.1-.3 2.1-1.1 2.7-2.1.3-.6.4-1.3.7-1.9.2-.4.1-.8.1-1.2v-19.6c0-.2.1-.5.2-.7.4.9.6 1.9.8 2.8.1 1.1.6 2.1.9 3.2.3 1.2.7 2.4 1.1 3.6 0 1.1.5 2 .7 3 .6 1.7 1.1 3.4 1.6 5.1.1.8.4 1.6.6 2.4.2 1.1.9 2.1 1.3 3.1.2.5.7.7 1.1 1.1.8.6 1.7 1.3 2.7 1.3 1.3 0 2.7.2 3.9-.4.7-.2 1.1-.9 1.7-1.4.8-.6 1.2-1.6 1.4-2.6.7-2.2 1.5-4.4 1.9-6.7.4-1.1.7-2.2 1-3.4.1-.2.3-.5.4-.7.4-1.2.8-2.5 1-3.7.5-1.9 1.2-3.8 1.7-5.7.1-.1.1-.2.2-.4v19.8c.1.8.2 1.5.4 2.2.3.9 1 1.5 1.6 2.1.7.7 1.7.9 2.6 1 .9 0 1.9 0 2.6-.5.8-.2 1.2-.9 1.8-1.4.7-.8.8-1.9 1-2.9v-32c-.1-1.1-.4-2.3-1.2-3.1-.9-1-2.2-1.3-3.4-1.5-2.3-.1-4.7-.1-7 0-1.1.2-2.3.5-3 1.5-.7.7-.9 1.7-1.3 2.5-.5 1.1-.6 2.4-1 3.5-.5 1.1-.7 2.3-1.1 3.4-.4 1-.4 2.1-.8 3.1-.3.8-.4 1.6-.8 2.4-.4 1.3-1 2.6-1.2 3.9-.2 1.2-.9 2.3-1 3.6-.2-.1-.4-.1-.6-.2-.1-1.4-.6-2.7-1-3.9-.5-1.7-1.2-3.3-1.5-5-.5-1.8-1.2-3.5-1.6-5.3 0 .1-.1.1-.1.2 0-1.3-.6-2.5-.9-3.7-.4-1-.7-2-1.1-3-.3-1.8-2.2-2.9-3.9-3.1-2.1-.1-4.3 0-6.4 0-.8.2-1.5.4-2.2.6zm1 42.3c-.5.1-1 .2-1.4.5-.6.4-1.4.6-1.8 1.3-.7 1.1-1.4 2.4-1.4 3.8 0 .9-.1 1.9.2 2.8.1.8.7 1.4.9 2.2.3.8 1.2 1.2 1.9 1.6 1.1.6 2.4.5 3.6.4.7-.1 1.4-.5 2-.9.6-.2.8-.9 1.2-1.4.4-.7.7-1.5.5-2.3-.3-.6-1-.7-1.5-.5-.3.3-.5.7-.6 1.1-.2.6-.6 1-1 1.4s-1 .5-1.5.5c-.9 0-1.9-.3-2.4-1.2-.3-.7-.6-1.4-.6-2.1v-2.4c.3-.8.5-1.8 1.3-2.3.6-.6 1.5-.4 2.3-.4.6 0 1 .5 1.4.9.5.5.7 1.3 1.2 1.7.3 0 .7.1 1.1 0 .2-.2.4-.5.5-.8.1-.8-.5-1.6-.9-2.2-.3-.5-.9-.8-1.4-1-1.1-.7-2.4-.9-3.6-.7zm10.5 2.2l-1.5 3.6c-.1.9-.6 1.6-.8 2.5-.4 1.1-1.1 2.1-1.1 3.3-.1.9 1.4 1.6 1.9.7s.8-1.9 1.1-2.8c1.5 0 3.1-.1 4.6 0 .4.3.3.9.5 1.4.2.6.4 1.2.9 1.6s1.4.1 1.6-.5c.2-.7 0-1.4-.2-2.1-.7-1.8-1.6-3.6-2.2-5.4-.2-1-.8-2-1.1-3a2.73 2.73 0 0 0-1.3-1.5c-.4 0-.7-.1-1.1 0-.7.4-1 1.3-1.3 2.2zm9.7-1c-.9.8-.8 2.2-.7 3.3.3.7.8 1.2 1.4 1.6 1.2.8 2.7 1 4.1 1.3.5.2.9.6.9 1.1s.1 1-.3 1.4c-.2.4-.7.5-1.1.7-.8.1-1.7.2-2.4-.4-.7-.7-.7-1.9-1.6-2.4-.5-.3-.9.1-1.2.5-.2 1.1 0 2.4.9 3.1.7.5 1.5.9 2.4 1.1.7.1 1.4 0 2.1 0 .9 0 1.7-.5 2.5-1 .3-.2.6-.4.7-.7.5-1.1.8-2.4.2-3.6-.3-.7-.9-1.2-1.5-1.6-.8-.3-1.6-.7-2.4-.8s-1.6-.4-2.3-.8c-.1-.4-.4-.9-.1-1.4.2-.5.6-.6 1.1-.8.7-.1 1.5-.2 2.1.3.6.4.7 1.2 1.2 1.7.3.3.8.2 1.1.2a1.36 1.36 0 0 0 .7-1.1c0-.8-.4-1.5-1-2-.9-.6-1.9-1.1-3.1-1-1.3 0-2.6.5-3.7 1.3zm10.3-.4c-.1.6 0 1.1 0 1.7v8.9c-.1.8.9 1.5 1.6 1.2.4-.3.8-.7.7-1.2v-4.2c.8-.2 1.7-.1 2.5-.1.9 0 1.8-.1 2.7.1v4.2c0 .6.4 1.2 1 1.3s1-.4 1.3-.8c.1-.3.1-.5.1-.8v-9.9c.1-1.1-1.6-1.7-2.1-.6-.6 1.3-.2 2.9-.4 4.3l-.1.1h-4.8c-.1-.2-.2-.5-.1-.7V135c0-.4-.4-.8-.7-1-.8-.3-1.5.1-1.7.7zM92.9 76.6c.9-.4 2-.2 3-.2.9.3 2.1.6 2.5 1.6.3.5.2 1.1.2 1.7-.2 1.1-1.4 1.7-2.5 1.7-1 0-2.1.2-3.2-.2v-4.6zm0 6l.2-.2c1.3 0 2.6-.1 3.8.2 1 .1 1.7.9 2 1.8.3.5.3 1.2-.1 1.7-.4.7-1 1.3-1.8 1.5-.7.1-1.5.4-2.3.3l-1.9-.3.1-5z" fill="#006a44"/><g fill="#015c3b"><path d="M183.2 38c.9-1.2 2.2-2.1 3.6-2.6.5-.1 1-.1 1.5-.1.9 0 1.6.6 2.4 1.1.6.6 1.1 1.4 1.5 2.2.1.5.1 1.1.2 1.6.3.1.5.1.8.2v1.3c-.3.1-.5.1-.8.2V49c0 .6 0 1.3-.1 1.9-.4.1-.8.1-1.3.1 0-.3-.1-.6-.1-.9v-8.3c-.4 0-.8-.1-1.2 0v9c-.3.4-.8.2-1.2.1 0-.6 0-1.3-.2-1.9-.5-.8-1.1-1.5-1.8-2.2-.3-.3-.8-.4-1.2-.4-.7-.1-1.4.4-1.3 1.2 0 .4.3.8.7 1 .4-.1.8-.4 1.2-.3.2.5.2 1 .3 1.5-.6.5-1.5.7-2.2.4-.7-.4-1.1-1-1.5-1.7-.1-.8-.2-1.7.2-2.5s1.2-1.6 2.2-1.5c-.2-.6-.3-1.5-1-1.8-.5-.1-1 0-1.5 0-.1-.3-.2-.6-.2-1-.3-.1-.6-.1-.9 0v8.8c-.1.5-.7.4-1.1.4-.3-.4-.2-.8-.2-1.3v-7.9-.1h-1.5v9.1h-.9v-3.4c0-.3-.1-.5-.2-.8-.3-.4-.7-1.1-1.3-.6-.3.4-.4 1-.5 1.5h-1.5c-.1-.7-.2-1.5-.9-1.8-.5 0-1 .3-1 .8-.1.6-.1 1.2.1 1.8.3.6 1.1.3 1.7.5 0 .6-.1 1.1-.3 1.7-.5 0-1 .1-1.5-.1-.7-.5-1.2-1.3-1.5-2.1-.1-1.1-.2-2.2.4-3.2.4-.7 1.1-1.3 2-1.2.8-.1 1.2.6 1.7 1.1.4-.4.8-.8 1.4-1.1.4-.1.8.2 1.1.4.3-.8.1-1.6.2-2.5-.3-.1-.5-.2-.8-.2h-6c-.3 0-.6 0-.9.1V50c0 .2-.1.5-.1.7h-1.3V46c0-.5-.2-.9-.5-1.3-.7.4-.9 1.1-1.2 1.7-.2.4-.3.8-.4 1.2 0-.1-.1-.1-.1-.2-.1.8-.6 1.4-1.2 1.9h-1.1c-.3-.2-.7-.5-.8-.8-.1-.5-.1-1 .1-1.5.4.3.6.8 1.1.7.5-.3.7-.8 1-1.3.1-.8.1-1.6 0-2.4-.2-1-1-1.7-1.8-2.2-.2-.1-.5-.1-.7-.1h-5.7c0-.5-.3-1.3.3-1.5h3.7c.1-.6.1-1.2-.3-1.6-.2-.3-.6-.2-.9-.3-.9-.1-1.5.7-2.3 1l-.3-1.3c.8-.9 2-1.6 3.3-1.5.7 0 1.1.8 1.5 1.3.5.7.5 1.5.5 2.2H191c0-.4 0-.9-.1-1.3-.2-.5-.6-.8-1-1.1-.6-.5-1.2-.9-2-.8-1.1-.1-1.8.7-2.7 1.2-.5.3-.8.7-1.3 1-.2-.2-.6-.6-.7-1zm-17.5 3.7c.1.7.8 1.1.7 1.8.1 0 .2.1.3.1.3-.1.5-.3.8-.4.3 0 .5.2.7.3.1-.6.1-1.3 0-1.9-.8.1-1.6.1-2.5.1zm19.4 0c.1.3.3.6.5.8.6.6.8 1.5.8 2.3.7.5 1.3 1.2 1.8 1.8.3-.6.1-1.3.2-1.9 0-1 .1-2-.1-3h-3.2zm30.1-1.4c.5-.2 1.1-.1 1.6-.1h5.8c.6 0 1.2 0 1.8.1v1.4c-1.2.1-2.5-.1-3.7.1.9.5 1.9.8 2.6 1.6.6.9.4 2 .4 3-.3.5-.7.9-1.2 1.3-.4.3-.9.2-1.4.2v-1.6c.4-.1 1 0 1.2-.4.2-.6.2-1.3-.3-1.7-.4-.3-.9-.5-1.4-.5l-.1 7.3h-1.2c-.5-1.2-1.1-2.3-2-3.2-.5-.5-1.2-.7-1.8-.9-.1-.6-.2-1.2-.2-1.8.8-.8 1.8-1.4 2.6-2.2.4-.4 1.1-.5 1.3-1.1H215c.2-.6.2-1 .2-1.5zm2.8 4.8c-.2.3-.4.7-.1 1 .5.6.9 1.3 1.5 1.8.1-1.3 0-2.7 0-4.1-.5.4-1.1.8-1.4 1.3zm-22-4.7c1-.1 1.9 0 2.9 0h9.5c.8 0 1.7-.1 2.5.1 0 .4-.1.7-.1 1.1-.4.1-.7.1-1.1.2v9.1h-1.2v-8.8c0-.5-.6-.4-1-.4s-.6.3-.8.5c-.5.6-.6 1.4-.5 2.2.3 1.4.9 2.8 1.1 4.3 0 .6-.2 1.2-.5 1.7-.5.6-1.3.7-2 .8.1-.4-.1-1.1.4-1.3.4-.3 1-.7.9-1.3-.2-1.3-.7-2.6-.9-3.9-.2-1 .3-1.9.4-2.9h-2.1V51c-.3-.1-.7.1-1-.2-.5-.5-.8-1.2-1.4-1.7-1.3-.8-2.5-1.9-4.2-2.1 0-.6-.2-1.1-.2-1.7.4-.8 1.4-1 2.1-1.5.7-.4 1.4-.8 2.2-1.1.5-.2.9-.4 1.3-.8-2.1-.1-4.1 0-6.2-.1-.1-.6-.1-1-.1-1.4zm4.1 4.4c-.4.3-1 .4-1 .9.5.5 1.2.8 1.8 1.2.5.3.7.9 1.3 1v-4c-.7.2-1.4.6-2.1.9z"/><path d="M211.3 41.5c.2-.5.6-1 1.2-1.1.5 0 1-.1 1.4.3 1 .9 1.2 2.4 1 3.6-.3.8-.9 1.8-1.8 1.8-.8 0-1.3-.5-1.6-1.2-.6-1-.6-2.3-.2-3.4zm1.1.8c-.2.3-.5.5-.4.9-.1.4.2.8.4 1.1h1.1c.3-.6.2-1.4 0-2h-1.1zm-54.2.4c.7-.5 1.5-.8 2.3-.7 1.6.6 2.4 2.4 2.2 4.1-.4 1.2-1.4 2.3-2.7 2.6 1 .7 1.6 1.7 2.5 2.4.2.1.3.5.2.7-.2.3-.5.5-.8.8-.3-.3-.5-.5-.7-.8-.5-.6-1.3-1-1.8-1.5s-1.1-.8-1.8-1c0-.6 0-1.3.1-1.9h1.5c.6-.1 1.3-.4 1.9-.6.2-.6.3-1.2.2-1.9-.3-.6-.9-1.2-1.6-1-.4 0-.7.6-.4 1 .2.2.5.3.8.5l-.6 1.4c-.9-.1-1.5-.8-1.6-1.6-.3-1.1-.3-2 .3-2.5zm52.9 3.5c.8.6 1.4 1.4 2.1 2 .9.8 1.5 1.8 2.3 2.8.5.5.2 1.3.3 2-.6 0-.9-.6-1.3-1-.8-1-1.7-1.9-2.6-2.8-.3-.3-.7-.5-.9-.8-.1-.8 0-1.5.1-2.2z"/></g><path d="M109.9 39.4c.6-.2 1.2-.4 1.8-.5 1-.1 2.1 0 3.1.2 1.3.6 2.9 1.1 3.9 2.2 1.2 1.1 2.1 2.5 2.7 4.1.1 1 .5 2 .4 3 .6 0 1.1 0 1.7.2.5.4.5 1.1.5 1.7-.2.8-.2 1.6-.7 2.2-.3.3-.7.5-.9.8-.3.4-.4.9-.7 1.3-.6.9-1.4 1.6-2.2 2.4-.3.3-1 .5-1 1.1s-.5 1-.8 1.4c-.4.5-.8 1.2-1.5 1.1-.8.1-1.1-.6-1.6-1.1-.3-.4-.8-.3-1.1-.3h-2c-.7.3-1 1.1-1.7 1.3-.3 0-.6 0-.8-.2-.6-.4-1-.9-1.5-1.4-.3-.3-.3-.8-.4-1.3-.2-.2-.5-.3-.7-.5-1-.7-1.6-1.8-2.5-2.7-.4-.5-.6-1.1-.9-1.6-.2-.4-.8-.4-1-.8-.3-.5-.3-1.1-.5-1.7-.2-.7 0-1.6.7-2 .4-.4 1-.2 1.6-.3l.6-3.2c.3-.5.5-1.1.7-1.7.2-.5.7-.9 1.1-1.2.6-.5.9-1.2 1.6-1.5.6-.2 1.3-.7 2.1-1zm1.6.2c-1.1 0-2.2.6-3.1 1s-1.5 1.3-2.2 2c-.5.5-.9 1.1-1.1 1.8-.2.6-.3 1.2-.6 1.7v.4c-.1.3-.2.7-.2 1-.1.3-.1.7-.1 1l-1.7.2c-.2.5.3 1 0 1.4-.2.4-.2.8-.3 1.2h.5l1.5 2.7c.8 1.1 1.6 2.3 2.8 3 .2.2.4.3.5.5 0 .7.3 1.4.9 1.7.3.2.6.6 1 .6.7.1 1.1-.6 1.5-1 1.1-.1 2.3-.1 3.4-.1.8.1.9 1.2 1.7 1.2 1.1.1 1.5-1.1 2-1.8-.1-.2-.2-.3-.3-.5.1-.1.2-.3.3-.4.5-.3 1.1-.5 1.4-.9.8-1.1 2.1-1.8 2.4-3.2.2-.2.4-.5.6-.7.5 0 .7-.4.8-.8 0-.1 0-.3-.1-.3.6-.6.6-1.9-.1-2.4-.5 0-1-.1-1.5.1 0 .4 0 .8-.1 1.1-.4-.7-.1-1.4-.1-2.1-.1-1-.3-1.9-.6-2.9l-1-1.8c-.5-.9-1.3-1.5-2-2.2-.6-.5-1.4-.6-2-1-.7-.4-1.6-.4-2.3-.7-.7 0-1.4-.2-1.9.2z" fill="#eef2ef"/><path d="M111.5 39.6c.5-.4 1.2-.2 1.8-.2.8.3 1.6.2 2.3.7.7.4 1.5.5 2 1 .7.7 1.6 1.3 2 2.2l1 1.8c.3.9.5 1.9.6 2.9 0 .7-.3 1.5.1 2.1-.3 1-.7 2.1-1.4 3-.5.6-.9 1.4-1.6 1.8-.7.5-1.4 1.1-2.2 1.5-.6.3-1.2.5-1.9.7.1-.2.2-.5.3-.7.3 0 .5.1.8.1l-.5-.5c.4-.2.9-.3 1.3-.5.2-.1.3-.1.5-.2l.1-.1c.3-.2.5-.4.8-.6a6.73 6.73 0 0 0 1.4-1.5h-.3l-.5-.5h.8c.1-.4.2-.7.2-1.1.1.4 0 .9-.1 1.3.6-.9 1-1.9 1.4-2.9a9.32 9.32 0 0 0-.6-5.7c-.1 0-.3.1-.4.1v.5l.6.3c-.1.1-.2.1-.2.2-.4-.4-1-.2-1.5-.1-.1 0-.2 0-.3.1-.1-.3-.3-.5-.5-.8.5.3 1 .4 1.5.5 0-.4-.1-.8-.3-1.1.1 0 .3.1.3.1.2.1.4.1.6.2v-.6c-.2.1-.4.2-.5.3-.1-.2-.2-.3-.2-.5.1 0 .3-.1.4-.1-.3-.9-1.1-1.4-1.8-2-.4-.3-.8-.7-1.3-.9-.2.3-.4.6-.5.9 0-.2-.1-.4-.1-.6 0-.3-.1-.5-.4-.6-1.1-.4-2.2-.5-3.3-.6 0 .2-.2.1-.4.1zm.2 0c.6.1 1.3.1 2 0-.6-.3-1.4-.3-2 0zm2.6.2c0 .2.1.3.3.1 0-.2-.1-.2-.3-.1z" fill="#96a994"/><path d="M108.4 40.6c1-.5 2-1.1 3.1-1 .2 0 .3.1.5.1 0 .3 0 .6.1.9-.1 0-.3 0-.4-.1v-.6c-.3.1-.5.2-.8.4-.1.1-.3.2-.4.3-.2-.1-.6 0-.5.3-.2-.1-.4-.3-.6-.3-.3 0-.6.2-.8.3-.1 0-.2-.2-.2-.3zm2.3-.8c0 .2.5.2.5 0-.1-.1-.4-.1-.5 0z" fill="#b6c1b5"/><path d="M111.7 39.6c.6-.3 1.4-.3 2 0-.7.1-1.4.1-2 0z" fill="#527f5c"/><path d="M110.7 39.8c.1-.1.4-.2.5 0 0 .3-.6.3-.5 0z" fill="#749a7c"/><path d="M112 39.7c1.1.1 2.3.2 3.3.6.3.1.4.3.4.6-.1.2-.2.5-.3.7-.6.1-.9-.4-1.3-.8-.1.4 0 .7.2 1-.1 0-.2.1-.2.1h-.5c-.1-.2-.2-.4-.3-.5 0-.1-.1-.3-.1-.4-.4 0-.8 0-1.1-.4 0-.3-.1-.6-.1-.9zm2.9 1.7c.4 0 .4-.4.4-.6-.5-.2-.4.3-.4.6zm-2.2 11a4.67 4.67 0 0 1 .5-1c.4.4-.1.8-.5 1zm-1.8 3.5c.5.1.9.1 1.4.2-.2.1-.5.2-.7.3-.4-.1-.7-.1-1.1-.2.1 0 .2-.1.4-.3z" fill="#f7f7f6"/><path d="M114.3 39.8c.2-.1.3-.1.3.1-.2.2-.3.1-.3-.1z" fill="#588a63"/><path d="M110.9 40.3c.2-.2.5-.3.8-.4v.6.3h-.3c-.2-.1-.4-.3-.5-.5z" fill="#f7f5f5"/><path d="M196 40h14.8v.2.3c-.8-.2-1.7-.1-2.5-.1h-9.5-2.9v1.3l6.2.1c-.4.4-.8.6-1.3.8-.8.3-1.5.7-2.2 1.1.4-.5 1-.8 1.5-1.1.4-.2.8-.3 1.1-.6-1.8-.1-3.7.1-5.5-.1.1-.7.1-1.3.3-1.9z" fill="#a3c5b9"/><path d="M210.9 40.2c.1.4.1.9.1 1.4h.3a4.04 4.04 0 0 0 0 3.4c-.8-.8-.4-2.1-.4-3.1-.3.1-.6.1-.9.2v8.3c0 .3 0 .6-.2.8-.4.1-.8.1-1.2.1 0-.1-.1-.2-.1-.3h1.2v-9.1c.4-.1.7-.1 1.1-.2 0-.4.1-.7.1-1.1v-.4z" fill="#88b3a3"/><path d="M110.5 40.7c.1-.1.3-.2.4-.3.1.2.3.4.4.6h.3c.4.4.9.4 1.4.5-.7 0-1.4 0-2.1.2h-.2c0-.1-.1-.2-.2-.3s-.1-.2-.2-.3c.1-.2.2-.3.2-.4z" fill="#807f7f"/><path d="M111.7 40.6c.1 0 .3 0 .4.1.3.3.7.4 1.1.4 0 .1.1.3.1.4h-.3c-.5-.1-1-.1-1.4-.5 0-.2 0-.4.1-.4z" fill="#292929"/><path d="M109.4 40.6c.2 0 .4.2.6.3.1 0 .3.1.4.1.1.1.1.2.2.3 0 .3-.1.6-.1.9-.4.1-.8.3-1.3.3.1-.2.3-.4.4-.5.3-.5-.2-.9-.6-1.1v.3.5c-.2.1-.4 0-.6 0-.1.3-.2.5-.3.7-.1 0-.3.1-.4.1l-.3-.8c.4-.3.7-.6 1.1-.8l.9-.3z" fill="#fbfaf9"/><path d="M106.2 42.6c.7-.7 1.3-1.6 2.2-2 0 .1.1.3.2.3-.4.2-.7.5-1.1.8l.3.8v.7c.1-.1.2-.2.2-.3l.3.6c.3-.3.7-.6.9-.9h-.9c.1-.1.3-.2.4-.3-.2 0-.3.1-.5.1.1-.2.3-.5.3-.7h.6v-.5c.1.2.2.5.2.7.1 0 .2 0 .3.1-.1.2-.3.4-.4.5a3.08 3.08 0 0 0 1.3-.3c0-.3 0-.6.1-.9 0 .1.1.2.2.3h.2c.1.2.3.3.4.5l-1.6.6c-.5.2-.9.7-1.3 1.1h-.8c-.1-.5 0-1.4-.7-1.4-.6.4-1 1.1-1.4 1.8.5.1.9.3 1.4.4.1.1.1.3.2.4h.2v.1c-.2.5-.3 1-.5 1.5-.2-.2-.5-.4-.7-.7 0 .6-.2 1.2-.5 1.7-.2-.1-.4-.1-.6-.2.2-.3.6-.5.9-.7.2-.3-.2-.7-.3-1 0-.1.1-.2.2-.2.2.1.4.1.5.2 0-.3 0-.7-.3-.9-.3-.1-.6-.1-.8-.1-.2.7-.4 1.5-.4 2.3v-.9c-.1 0-.2.1-.3.1.4-.5.4-1.1.6-1.7.1-.8.4-1.4 1-1.9z" fill="#959993"/><path d="M110 40.9c-.1-.3.3-.4.5-.3 0 .1-.1.3-.1.3-.1.1-.3.1-.4 0z" fill="#555455"/><path d="M114.9 41.4c0-.3-.1-.7.4-.6 0 .2 0 .6-.4.6zm2.5 11.9c.7-.8 1.5-1.7 1.5-2.9.3.1.6.1.9.2-.2.4-.5.8-.5 1.3-.1.4-.2.7-.2 1.1h-.8l.5.5c-.3.3-.5.6-.8.8-.1-.1-.3-.2-.4-.3 0-.3-.1-.5-.2-.7zm1.1-1.3c.2.1.4.1.6.2 0-.1-.1-.3-.1-.4-.2-.1-.3.1-.5.2z" fill="#5e5d5d"/><path d="M115.9 41.5c.2-.3.3-.6.5-.9l1.3.9c.6.6 1.5 1.1 1.8 2-.1 0-.3.1-.4.1-.2-.2-.3-.3-.5-.4-.3-.1-.6-.1-.9 0-.1-.2-.1-.4-.2-.6-.1-.5-.5-1-1-1.1-.1.1-.2.4-.3.5-.2-.2-.3-.3-.3-.5z" fill="#fafafa"/><path d="M114.2 40.9c.4.4.7.8 1.3.8.1-.2.2-.5.3-.7 0 .2.1.4.1.6.1.2.1.3.2.5l.9.6c-.2 0-.4.1-.6 0-.6-.3-1.3-.7-2-.7-.2-.4-.3-.8-.2-1.1z" fill="#585757"/><path d="M109.1 40.9c.4.2.9.6.6 1.1-.1 0-.2 0-.3-.1-.1-.2-.2-.5-.2-.7-.1-.1-.1-.2-.1-.3zm-1.3 1.7c.1 0 .3-.1.4-.1.2 0 .3-.1.5-.1-.1.1-.3.2-.4.3l-.3.3c-.1.1-.2.2-.2.3v-.7zm9.7 1.3c.2-.3.6-.5.9-.7.2.1.3.3.5.4.1.1.2.3.2.5v.1c-.1 0-.2-.1-.3-.1l-.3-.3s-.1-.1-.1-.2l-.9.3zm-3.9 7.4h.4c.1.1.1.3.2.4-.2 0-.4.1-.6.1v-.5zm-3 .7c.3-.2.5-.5.8-.7-.1.5-.5.9-.9 1.1-.1 0-.2-.1-.2-.2.1 0 .2-.1.3-.2zm2.3.5c.2-.2.5 0 .4.3-.2.2-.6-.1-.4-.3zm3.3 1.7a2.73 2.73 0 0 0 1.2-.9c.1.2.1.4.2.6-.1.1-.1.3-.2.4-.6.1-1.1.6-1.8.6.1.2.2.3.4.5-.3 0-.6.1-.8 0-.3-.1-.4-.3-.6-.5.5-.2 1-.5 1.6-.7zm-5 1c.4-.1.9-.2 1.2.1-.3.2-.7.3-1 .4-.1-.2-.2-.3-.2-.5z" fill="#3a3838"/><path d="M110.9 41.6c.7-.2 1.4-.3 2.1-.2h.3c.1.2.2.4.3.5-.8-.1-1.5-.1-2.3.1l-.4-.4z" fill="#cbd0c3"/><path d="M116.1 42c.1-.1.2-.4.3-.5.5.2.9.6 1 1.1-.2.3-.3.6-.4.9-.3-.2-.6-.4-.8-.6-.6-.5-1.4-.7-2.1-1 .1 0 .2-.1.2-.1.7 0 1.4.3 2 .7.2.1.4 0 .6 0-.2-.2-.5-.3-.8-.5zm-10.3 10.4c.3.2.6.3.8.5v.7c-.3-.2-.7-.6-.8-1.2z" fill="#e7e6e3"/><path d="M178.5 41.7c.5 0 1-.1 1.5 0v.1h-1.2c-.1.4-.1.8-.1 1.1v7.3c0 .3 0 .7-.3.8-.4 0-1 .2-1.2-.3 0-.3 0-.6.1-.9.2-1.1.1-2.2 0-3.4.1.2.2.5.2.8.1 1.1 0 2.3 0 3.4h.9l.1-8.9z" fill="#77a896"/><path d="M203.4 41.7c.7-.1 1.4-.1 2.1 0-.1 1-.6 1.9-.4 2.9.2 1.3.8 2.6.9 3.9.1.6-.5 1-.9 1.3-.5.3-.3.9-.4 1.3.7 0 1.5-.2 2-.8.4-.5.6-1.1.5-1.7-.1-1.5-.8-2.8-1.1-4.3-.1-.8 0-1.6.5-2.2-.2.7-.4 1.3-.3 2 .2 1.2.7 2.4 1 3.5.1.8.2 1.8-.3 2.5-.5.9-1.7 1-2.6 1.3 0-.5 0-1.1.2-1.6.3-.4 1-.5 1.1-1.1.2-1.8-1-3.4-.8-5.2 0-.6.3-1.2.5-1.8-.5 0-1-.1-1.5 0-.1.2-.1.5-.1.7v7.7c0 .3 0 .7-.3.8-.3 0-.8.1-1-.2a14.29 14.29 0 0 1-1.4-2c.6.5.9 1.2 1.4 1.7.2.3.6.2 1 .2l-.1-8.9z" fill="#78a997"/><path d="M220.7 41.7c1.2-.1 2.5 0 3.7-.1 0 .1 0 .2-.1.2-.8.2-1.6 0-2.3.1.5.4 1.1.7 1.3 1.3-.7-.7-1.7-1-2.6-1.5z" fill="#9dc1b4"/><path d="M111.3 42.1c.7-.2 1.5-.2 2.3-.1h.5l2.1 1 1.4 1.5s.1.1.1.2c.2.2.3.5.5.8.7 1.3.8 2.8.5 4.2-.2.9-.6 1.8-1.1 2.6-.3.6-.9 1-1.4 1.4-.2.1-.4.1-.6.1v-6.4c0-.3 0-.7-.1-1v-.1c-.3-.3-.4-.7-.5-1.1s-.5-.6-.8-.9c-.5-.4-.9-.9-1.2-1.4-.7.5-1.4 1-2 1.6-.4.4-.5 1-.7 1.4-.2.3-.5.6-.4 1v6.9h-.5c-.2-.4-.5-.7-.9-1-.7-.4-1-1.2-1.3-1.9-.4-1.3-.4-2.7-.3-4.1 0-.1.1-.2.1-.3.2-.5.3-1 .5-1.5a7.55 7.55 0 0 0 1.1-1.4c.4-.4.8-.9 1.3-1.1.4-.1.9-.2 1.4-.4z" fill="#177a3d"/><path d="M105.5 44.2c.3-.7.7-1.4 1.4-1.8.7 0 .6.9.7 1.4-.2 0-.4 0-.6.1 0 .1.1.2.1.4.1.1.3.1.4.2-.1.2-.1.4-.2.6h-.2c-.1-.1-.1-.3-.2-.4-.4-.2-.9-.4-1.4-.5zm14.1.4c.1 0 .3-.1.4-.1.9 1.7 1 3.8.6 5.7-.3 1-.8 2-1.4 2.9.1-.4.2-.9.1-1.3.1-.5.3-.9.5-1.3-.3-.1-.6-.1-.9-.2 0 1.2-.8 2.1-1.5 2.9-.3.4-.8.7-1.2.9a.76.76 0 0 1-.4-.2l.3-.3c.5-.4 1-.8 1.4-1.4.5-.8 1-1.6 1.1-2.6.2-1.4.2-3-.5-4.2.1 0 .2 0 .3-.1.2.1.3.2.5.3 0 .7.1 1.4.6 2 0 0 0 .1-.1.1-.1.1-.1.3-.2.4h1.1c.1 0 .2-.1.3-.2-.2-.3-.5-.5-.7-.7-.3-.3-.7-.8-.5-1.3.2-.2.4-.4.6-.5.1-.1.2-.1.2-.2l-.6-.3v-.3zm-.2 4.2c0 .3 0 .6.3.8.4 0 .6-.5.7-.8-.3.1-.6 0-1 0z" fill="#faf9f8"/><path d="M108 43l.3-.3h.9c-.3.3-.6.7-.9.9l-.3-.6z" fill="#fbfbfb"/><path d="M117 43.6c.1-.3.2-.6.4-.9.1.2.1.4.2.6.3-.1.6-.1.9 0-.4.1-.7.4-.9.7.3-.1.6-.2.9-.2 0 0 .1.1.1.2l-1.1.3c0 .1 0 .3.1.4-.4-.5-.9-1-1.4-1.5.3 0 .5.2.8.4z" fill="#8d8b8c"/><g fill="#fefefe"><path d="M110.8 44.5c.6-.6 1.3-1.1 2-1.6.3.5.7 1 1.2 1.4.3.3.8.4.8.9.1.4.2.8.5 1.1-.1 1.1 0 2.2-.1 3.3h-.4c-.1-.4-.2-.7-.4-1 0 .1-.1.4-.2.5v.3.5c-.1 0-.3 0-.4-.1-.1-.3-.2-.7-.4-1-.3-.4-.4-1-.5-1.5 0 .1-.1.1-.2.2-.7.5-.2 1.5-.5 2.2-.3-.6 0-1.3-.2-1.9-.1 0-.2-.1-.3-.2-.2.8-.3 1.6-.4 2.4-.1 0-.3-.1-.4-.1-.2-.1-.5-.2-.7-.3-.1-1.1-.1-2.3 0-3.4.2-.7.2-1.3.6-1.7zm1 2c.1.1.1.3.2.4.2.1.4-.1.6-.2-.3-.1-.6-.1-.8-.2z"/><path d="M115.4 46.4c.1.3.1.7.1 1v6.4c.2 0 .4-.1.6-.1l-.3.3a.76.76 0 0 1 .4.2c-.6.2-1.1.5-1.7.7.2.2.4.4.6.5h.8a.76.76 0 0 0 .4.2c-.4.2-.8.3-1.3.5-.7.2-1.5.3-2.2.2-.3 0-.4-.3-.5-.5.1 0 .4-.1.5-.1 0 0 .1.1.2.1 0 0 .1.1.2.1.4-.2.7-.6.7-1.1-1.6.1-3.1-.3-4.6-.5.1.3.3.6.4.9a3.04 3.04 0 0 1 .5.7c-.7-.1-1.3-.4-1.9-.8.1-.2.2-.3.2-.5l.6-1c.2.3.4.4.7.4.1-.9-.1-1.8.2-2.6l.4.4-.3.3c.1 0 .2.1.2.2.1.2.3.4.4.7.3-.1.5-.2.7-.3l.6-.9v1.1c.3-.1.6-.1.9-.2.2-.2.4-.5.6-.8.1.2.3.4.4.5.1-.1.2-.2.3-.4s.3-.3.4-.5c.6.7.1 1.6.5 2.4.2-1.5 0-2.9 0-4.4.3-.9.5-2 .3-3.1zm-13.3 14.8c.5-.5 1.2-.7 1.9-1 .3-.1.6-.1.9-.2.1 4 0 8 0 12.1 0 .3 0 .7.4.9.3.2.7.2 1.1.3-.1.2-.4.3-.6.3h-3.6v-.3c.6-.1 1.1-.5 1.1-1.2v-8.6c0-.7.1-1.4-.2-2.1-.3-.1-.8.1-1-.2zm29.3-1c.3-.3.7-.1 1-.2.2.2.3.4.5.6v.9c-.4.3-.9.6-1.4.3-.6-.3-.6-1.3-.1-1.6zm-36.2 6c.1-.8.9-1.1 1.4-1.5.9-.2 1.8-.1 2.6.2.4.2.6-.2.9-.3.3.9.1 1.8.2 2.8-.1.1-.3.2-.4.3-.3-.7-.4-1.4-.9-2-.7-.5-2-.7-2.6.1-.1.5-.1 1.1.2 1.5.4.4 1 .5 1.5.8.8.5 1.6.8 2.3 1.5.6.5.4 1.3.4 1.9 0 1.1-1.1 1.8-2 2.2-.9.1-1.8.1-2.6-.2-.3-.1-.6.1-.9.2v-3.3c.2 0 .4.2.4.5.3 1 1 1.9 2 2.2.8.3 1.8-.4 1.9-1.2-.1-.8-.8-1.3-1.4-1.8-.5-.4-1.2-.4-1.6-.8-.5-.4-1-.8-1.2-1.4-.3-.5-.3-1.1-.2-1.7zm35.5-1c.7-.2 1.3-.7 2.1-.7.3.6 0 1.2.1 1.8v4.3c-.2.7 0 1.4 0 2.1.4.2.8.4 1.2.5-.1.1-.2.2-.3.2h-3.6c-.1-.1-.2-.2-.3-.2.4-.2.8-.1 1.1-.5.5-.7.2-1.5.3-2.2-.1-1.5.2-3.1-.2-4.6h-1.2c-.1-.6.4-.6.8-.7zM89.8 75.8h4c1.5 0 3.1-.1 4.6.3 1 .2 1.9.8 2.3 1.7s.2 2-.1 2.9c-.4.5-.9.8-1.5 1.1.1.1.1.3.2.4.5.1 1 .1 1.4.5a4.45 4.45 0 0 1 1.2 2.1c.1.6-.1 1.1-.4 1.6-.5.6-.9 1.3-1.6 1.6s-1.4.6-2.2.5c-2.2.2-4.5.1-6.7.1h-2.1v-.4c.7.1 1.4 0 1.9-.7.3-.8.2-1.8.2-2.6v-7c0-.4 0-.9-.2-1.3-.4-.4-.7-.5-1-.8zm3.1.8v4.7c1 .3 2.1.2 3.2.2s2.3-.6 2.5-1.7c0-.6.1-1.2-.2-1.7-.4-1-1.5-1.3-2.5-1.6-1-.1-2.1-.3-3 .1zm0 6v4.9l1.9.3c.8.1 1.5-.1 2.3-.3s1.4-.8 1.8-1.5c.4-.5.4-1.2.1-1.7-.4-.8-1-1.7-2-1.8-1.3-.3-2.6-.3-3.8-.2-.2.1-.3.2-.3.3zm11.2-1.5c.5-1 1.6-1.3 2.6-1.4.7 0 1.5-.1 2.2.1.6.3 1.6.6 1.6 1.4l.1 5.2c0 .5.2.9.4 1.3a3.04 3.04 0 0 0 .7-.5c.2-.1.4-.3.6-.3 0 .2 0 .5-.1.6-.6.6-1.3 1.4-2.2 1.3-.4 0-.7-.2-1-.3-.1-.3-.1-.8-.4-.9-.8.4-1.4 1.1-2.3 1.2-.5 0-1.1.1-1.6-.2-.9-.4-1.5-1.5-1.3-2.5.2-.9 1-1.6 1.9-1.9 1.1-.5 2.1-1.1 3.3-1.2a3.75 3.75 0 0 0 0-2.1c-.5-.7-1.5-.5-2.2-.5-.3.2-.5.4-.7.7v1.3c-.3.4-.9.4-1.4.3-.6-.4-.5-1.2-.2-1.6zm2 3.6c-.6.4-.8 1.2-.6 1.9.3.5.8.9 1.5 1 .7-.2 1.4-.4 1.9-1v-3c-1.1.2-2 .7-2.8 1.1z"/></g><path d="M107.7 43.8h.8l-1.1 1.4v-.1c.1-.2.1-.4.2-.6-.1-.1-.3-.1-.4-.2 0-.1-.1-.2-.1-.4.1-.1.3-.1.6-.1z" fill="#717e6d"/><path d="M117.5 44.1l1.1-.3.3.3c.2.3.3.7.3 1.1-.5-.1-1.1-.2-1.5-.5 0 0-.1-.1-.1-.2-.1-.1-.1-.2-.1-.4z" fill="#fcfcfc"/><path d="M119.2 44.1c.2-.1.4-.2.5-.3v.6c-.2-.1-.4-.1-.5-.3h0z" fill="#dcdcd9"/><path d="M115.3 65.3c.9.1 1.7-.8 2.6-.7v1.6c.8-.7 1.6-1.8 2.8-1.6 1-.1 1.9.7 2.1 1.6.8-.8 1.7-1.8 2.9-1.6.8-.1 1.5.4 1.9 1 .4.7.3 1.4.3 2.2v4.6c0 .6.7.8 1.2.9v.3h-3.2c-.4 0-.8.1-1.1-.2.5-.1 1.3-.3 1.3-.9v-5.4c-.1-.5-.4-1.3-1-1.2-.4 0-.8 0-1.2.1-.4.3-.8.6-1.1 1.1v5.4c.1.6.8.8 1.3.9-.1.2-.4.3-.6.2h-3.6v-.3c.5-.1 1.1-.2 1.3-.7v-5.2c.1-1-1.1-2-2-1.5-.6.3-1.2.6-1.5 1.2v4c0 .6-.1 1.3.3 1.8.3.4.8.3 1.1.4v.3h-4v-.3c.4-.1.7-.3.9-.5.1-1.6 0-3.3 0-4.9 0-.6 0-1.3-.1-1.9h-1c.3-.3.4-.5.4-.7z" fill="#fefffe"/><path d="M105.2 44.6c.3 0 .6 0 .8.1.3.2.3.6.3.9-.2-.1-.4-.1-.5-.2 0 .1-.1.2-.2.2.1.3.5.7.3 1-.3.2-.7.4-.9.7.2.1.4.1.6.2.1 0 .2.1.3.2.6.4.9 1.4.3 2-.1-.6-.1-1.2-.6-1.6-.3.2-.6.3-.9.4 0-.5 0-1 .1-1.5v-.3c0-.6.2-1.4.4-2.1z" fill="#fbfbfa"/><path d="M118.4 45.4c.5-.1 1.1-.3 1.5.1-.2.2-.4.3-.6.5-.2.5.2.9.5 1.3-.1.1-.2.3-.3.4-.5-.5-.7-1.3-.6-2-.2-.1-.3-.2-.5-.3z" fill="#757374"/><path d="M104.4 46c.1 0 .2-.1.3-.1v.9.3c-.1 0-.3.1-.3.1v-.8-.4z" fill="#84a689"/><path d="M106.1 45.9l.7.7c0 .1-.1.2-.1.3a1.59 1.59 0 0 0-.8 1c-.1 0-.2-.1-.3-.2.3-.6.5-1.2.5-1.8z" fill="#5a5858"/><path d="M109.7 47c-.1-.4.2-.7.4-1a9.71 9.71 0 0 0 0 3.4c.2.1.5.2.7.3-.2 0-.4 0-.5-.1v1.2c.3 0 .6 0 .8.1-.1-.2-.1-.4-.2-.6.3 0 .6-.1 1-.1.1 0 .2.1.3.1.2.1.4.2.6.2l.6-.3c-.2.5-.5.9-.9 1.3-.1-.3-.1-.6-.2-.9-.1.2-.3.4-.3.6-.1.6-.4 1-.8 1.5.1 0 .3.1.4.1-.2.1-.5.2-.7.3-.1-.2-.2-.5-.4-.7.4-.2.8-.6.9-1.1l-.9-.3c-.1.2-.2.3-.3.5-.3.8-.1 1.7-.2 2.6-.3-.1-.6-.2-.7-.4h.5l-.1-6.7z" fill="#dbdbd9"/><path d="M115.3 46.3h0c.2 1.2.1 2.3.1 3.4v4.4c-.3-.8.1-1.7-.5-2.4v-.6c.2-.4.3-.8.4-1.3-.3 0-.6 0-.7.3-.1 0-.2 0-.3.1-.3-.2-.6-.4-1-.5v-1c.2.3.3.6.4 1 .1 0 .3 0 .4.1v-.5c.1.1.4.1.4-.1s-.3-.3-.4-.1c0-.1.1-.4.2-.5.2.3.3.7.4 1h.4c.2-1.1.1-2.2.2-3.3z" fill="#c5c8c2"/><path d="M104.2 47.5c-.1-.3.1-.7.2-1v.8c.1 0 .3-.1.3-.1-.1.5-.1 1-.1 1.5.3-.1.6-.3.9-.4.5.4.5 1 .6 1.6.5-.5.3-1.6-.3-2 .2-.4.4-.8.8-1-.1 1.4-.1 2.8.3 4.1a.76.76 0 0 1-.2-.4l-.3.8c-.1-.5-.1-1-.1-1.5-.1 0-.3.1-.4.1-.2-.1-.4-.3-.7-.4.3-.2.5-.6.4-1-.2.1-.5.2-.7.3-.1 0-.2.1-.2.1s-.1 0-.1.1c-.3.4-.4.9-.5 1.4-.1-.6-.1-1.1-.5-1.6h-1.3c.5-.2 1.1-.2 1.7-.2h.4V48c0-.3-.1-.4-.2-.5z" fill="#c0cdc0"/><path d="M111.8 46.5c.3 0 .5.1.8.1-.2.1-.3.3-.6.2-.1 0-.2-.1-.2-.3zm-2.5 8c1.5.2 3 .6 4.6.5 0 .5-.3.9-.7 1.1 0 0-.1-.1-.2-.1.2-.1.4-.3.6-.4 0-.1-.1-.3-.1-.4-.4-.1-.8 0-1 .4h-.4c.1.2.1.4.2.7-.4-.1-.9-.2-1.4-.2-.1-.1-.3-.1-.4-.2.1-.3.2-.6.2-.8-.3 0-.6-.1-.8-.1 0 .2-.1.4-.1.6l-.5-1.1zm1.9.7c.1.2.1.3.2.5.4-.1.7-.2 1-.4-.4-.3-.8-.2-1.2-.1z" fill="#8f8e8d"/><path d="M112.7 47.3l.2-.2c0 .5.1 1.1.5 1.5v1a4.67 4.67 0 0 1 1 .5 1.96 1.96 0 0 0-.9.9.76.76 0 0 0-.2.4c-.2.3-.4.6-.5 1-.1.2-.1.4-.2.6-.1-.3-.2-.7-.2-1l-.6.9c-.1 0-.3-.1-.4-.1.3-.4.7-.9.8-1.5.1.2.2.3.3.5v-1.1c.1.3.1.6.2.9.4-.4.7-.8.9-1.3l-.6.3c-.2-.1-.4-.2-.6-.2h.8l-.5-.5c.1 0 .3 0 .4-.1v-.9c-.1-.3-.3-.4-.4-.7-.3-.4-.2-.6 0-.9z" fill="#656464"/><path d="M112.1 49.5c.4-.7-.2-1.7.5-2.2-.1.3-.3.5-.3.8.1.2.3.4.4.7v.9c-.1 0-.3 0-.4.1 0-.2-.1-.2-.2-.3z" fill="#c5c5c5"/><path d="M119.9 47.3c.3.2.5.5.7.7-.1 0-.2.1-.3.2v-.4h-.8s0-.1.1-.1c0-.2.2-.3.3-.4z" fill="#c0bebf"/><path d="M104.2 47.5c.1.1.2.2.2.3v.7h-.4c.1-.3.1-.7.2-1z" fill="#87af85"/><path d="M111.2 49.8l.4-2.4c.1 0 .2.1.3.2.2.6-.1 1.3.2 1.9l.3.3h-.4c0 .1-.1.3-.1.4-.3 0-.6 0-1 .1.1.2.1.4.2.6-.3 0-.6 0-.8-.1v-1.2c.2 0 .4 0 .5.1.1 0 .3 0 .4.1zm-.8-.1v.5c.3 0 .6-.1.8-.3-.3 0-.5-.1-.8-.2z" fill="#6b696a"/><path d="M119.5 47.8h.8v.4h-1.1a1.38 1.38 0 0 0 .3-.4zM106 51.9c.2.3.4.6.5.9.2 0 .3-.1.5-.1.3.2.6.3.9.4.1-.1.3-.2.4-.3.4.3.7.6.9 1l-.6 1c-.3-.1-.6-.1-.9-.2-.1-.2-.3-.5-.4-.7a.76.76 0 0 1 .4-.2c-.2 0-.4 0-.7.1-.1-.2-.3-.5-.4-.7l-.8-.5s0-.1-.1-.2c.2-.3.3-.4.3-.5zm1.7 1.8c.3.2.6.3.9.4-.1-.4-.3-.7-.5-1-.2.2-.4.3-.4.6z" fill="#737171"/><path d="M105 48.9c.2-.1.5-.2.7-.3.1.4 0 .8-.4 1 0 0-.1-.1-.2-.1 0-.3 0-.5-.1-.6z" fill="#2d2d2e"/><path d="M102.4 50.1c.3-.4-.2-.9 0-1.4h1.3c.3.5.4 1.1.5 1.6.1.6.5 1.2.6 1.8-.5 0-.7-.4-.8-.8l-.5.5.3.6c.1.1.2.3.3.4.1.2.1.4.1.6.4-.2.5-.6.5-1.1l1.5 1.9c.6.7 1.4 1.2 2.2 1.8.4.3.9.5 1.3.7.4.1.9-.2 1.3-.3v.5c-.9.1-1.8.4-2.6.6-.6.2-1.1-.3-1.6-.6-1.2-.8-2-1.9-2.8-3-.6-.8-.9-1.8-1.5-2.7h-.5c.2-.3.2-.7.4-1.1zm2.2 3.5c.1.3.1.5.2.8.2-.2.4-.5.5-.8h-.7zm.4 1.1c.3.2.6.5 1 .6.2 0 .4 0 .4-.3-.2-.4-.5-.6-.7-.9-.3.2-.5.4-.7.6z" fill="#177b3c"/><path d="M104.8 48.9c.1 0 .2-.1.2-.1 0 .2.1.4.1.6 0 0 .1.1.2.1.2.1.5.3.7.4l-.6.3v.4c-.1 0-.3.1-.4.1-.1-.5-.2-.9-.2-1.4 0-.1 0-.3-.1-.3 0 0 .1 0 .1-.1zm14 4.4h.3c-.4.5-.9 1.1-1.4 1.5h-.6c.1-.2.2-.4.3-.5s.1-.3.2-.4c.1.1.3.2.4.3.3-.3.5-.6.8-.9z" fill="#fafaf9"/><path d="M114.2 49c.1-.1.4-.1.4.1s-.3.3-.4.1V49z" fill="#505050"/><path d="M121.5 49c.4-.2 1 0 1.5-.1-.1.2-.2.4-.2.7 0 .4 0 .9.2 1.3 0 .1.1.3.1.4s0 .3.1.3c-.5.3-.8.6-1.3.9-.2 0-.3-.1-.4-.2.2-.3.4-.5.6-.8-.2-.1-.5-.2-.7-.3-.1.5-.2.9-.4 1.3.1.1.3.2.4.3a.76.76 0 0 1 .4-.2v.4c-.3 1.4-1.6 2.1-2.4 3.2-.3.5-.9.7-1.4.9-.3.2-.7.5-1.1.3-.6-.1-1.1-.3-1.7-.4-.2 0-.4-.1-.6-.1-.3-.1-.5-.3-.8-.5.3-.2.7-.4 1.1-.4-.1.2-.2.5-.3.7l1.9-.7c.8-.3 1.4-1 2.2-1.5.7-.5 1.1-1.2 1.6-1.8.7-.9 1-2 1.4-3-.2 0-.2-.4-.2-.7zm.4.7c0 .2-.1.5-.1.7h.6c0-.1.1-.3.1-.4-.3-.1-.5-.2-.6-.3zm-.4 1c-.1.4.2.5.5.6a.76.76 0 0 0 .2-.4c-.2-.1-.5-.1-.7-.2zm-1.2 2.5c.1.2.1.3.2.5.4 0 .5-.2.6-.6-.3 0-.5.1-.8.1zm-.3.7c-.2.6-.9.9-1.3 1.3 0 .1 0 .3.1.4-.3 0-.5.1-.8.1l.3.6-.1.1c.1 0 .3-.1.4-.1.6-.8 1.4-1.4 2.1-2.2-.3 0-.5-.1-.7-.2zm-2.7 2.3c-.1.3 0 .6.1.8.1 0 .3 0 .4-.1v-.7h-.5z" fill="#19783c"/><path d="M119.4 48.8h1c-.2.3-.3.7-.7.8-.3-.1-.2-.5-.3-.8z" fill="#070707"/><path d="M123 48.9c.7.6.7 1.8.1 2.4 0-.1-.1-.3-.1-.4.2-.5.2-1 .2-1.5-.1 0-.3.1-.4.1 0-.2.1-.4.2-.6z" fill="#679c72"/><path d="M104.2 50.4c.1-.5.2-.9.5-1.4 0 .1 0 .3.1.3 0 .6-.1 1.2-.2 1.7.3 0 .6-.1.8-.1.2.2.3.4.5.6-.1-.1-.3-.2-.4-.3-.2.2-.4.3-.5.5l.8.5s0 .1.1.2c.1.5.5.9.9 1.3V53c.1.2.3.4.4.7.2 0 .4 0 .7-.1a.76.76 0 0 1-.4.2.76.76 0 0 1-.4.2 3.04 3.04 0 0 0 .5.7c.1 0 .2-.1.3-.2.3.1.6.2.9.2-.1.2-.2.3-.2.5.6.4 1.2.7 1.9.8a3.04 3.04 0 0 1-.5-.7c.2.1.5.3.7.4.1.1.3.1.4.2-.2.1-.3.2-.5.3.4.1.7.1 1.1.2 0 .3-.1.6-.1.9h-.4c0 .4 0 .7.1 1.1.3 0 .5-.1.8-.1.3-.2.4-.6.5-.9 0 .1.1.2.1.3.3-.4.9-.6 1.3-.9l.8.5c-.1.4-.2.9.2 1.2l1.5.6-1.4-.3c.2.4.5.9 1 1.1.4.1.8-.1 1.1-.3-.2-.2-.4-.3-.5-.5.2 0 .5 0 .7-.1l.3-.8-2.3-.8c.6 0 1.1.2 1.7.4.4.1.8-.2 1.1-.3-.1.1-.2.3-.3.4.1.2.2.3.3.5-.5.7-1 1.9-2 1.8-.8 0-.9-1.1-1.7-1.2-1.1-.1-2.3 0-3.4.1-.8-.4-1.7 0-2.5.4-.6-.4-.9-1-.9-1.7-.2-.2-.4-.3-.5-.5.5.2 1 .8 1.6.6.9-.3 1.7-.5 2.6-.6v-.5c-.4.1-.8.3-1.3.3-.5-.1-.9-.4-1.3-.7-.8-.5-1.6-1-2.2-1.8l-1.5-1.9c0 .4-.1.9-.5 1.1 0-.2-.1-.4-.1-.6.1-.2.3-.5.4-.7-.2.1-.5.2-.7.3l-.3-.6c.1-.2.3-.3.5-.5.1.4.3.8.8.8-.5-1-.9-1.5-1-2.1zm3.7 7.7c.2.3.3.7.7.8.6-.1 1.3-.2 1.9-.4.5-.1.2-.8.3-1.1-1.1 0-2.1.2-2.9.7zm4.8-.6l-.3.9c.5-.2.9-.3 1.4-.3l-.1-.1c.1-.1.3-.2.3-.2l.1.1v-.5c-.4-.2-.9.2-1.4.1z" fill="#97aa97"/><path d="M104.8 49.3c.1.5.2.9.2 1.4.1 0 .3-.1.4-.1v.3c-.3 0-.6.1-.8.1.1-.5.2-1.1.2-1.7z" fill="#c2cbc0"/><path d="M122.7 49.6c.1 0 .3-.1.4-.1 0 .5 0 1-.2 1.5-.1-.5-.2-1-.2-1.4z" fill="#baceb9"/><path d="M110.4 49.7c.3.1.5.1.8.2-.2.2-.5.3-.8.3v-.5z" fill="#2d2d2d"/><path d="M112 49.7h.4l.5.5h-.8c-.1 0-.2-.1-.3-.1.1 0 .2-.2.2-.4z" fill="#434342"/><path d="M121.9 49.7c.2.1.4.2.5.3 0 .1-.1.3-.1.4h-.6c.1-.2.1-.4.2-.7z" fill="#c5d0bc"/><path d="M106 50c.1 0 .3-.1.4-.1 0 .5 0 1 .1 1.5v.1c-.2.1-.4.1-.6.2l-.1-.1c-.1-.2-.3-.4-.5-.6v-.3-.4c.3-.1.5-.2.7-.3zm-.5.3v.6c.1-.1.3-.2.4-.4.1.2.2.4.4.6v-1c-.3.1-.5.2-.8.2z" fill="#666565"/><path d="M114.6 50.1c.2-.2.4-.3.7-.3-.1.5-.2.9-.4 1.3h-.3v-.4-.6z" fill="#615d5f"/><path d="M105.5 50.3c.3-.1.5-.1.8-.2v1c-.1-.2-.2-.4-.4-.6-.1.1-.3.2-.4.4v-.6z" fill="#2c2c2c"/><path d="M113.4 51a1.96 1.96 0 0 1 .9-.9c.1 0 .2 0 .3-.1v.6c-.4.3-.8.5-1.2.4z" fill="#dbdbdb"/><path d="M106.5 51.4l.3-.8a.76.76 0 0 1 .2.4c.3.7.7 1.4 1.3 1.9-.1.1-.3.2-.4.3-.3-.1-.6-.3-.9-.4-.2-.4-.4-.8-.5-1.2v-.2z" fill="#fafbfa"/><path d="M113.4 51c.4.1.8-.1 1.2-.3v.4a1.93 1.93 0 0 1-.3 1s.1.1.2.1c-.1.1-.2.2-.3.4-.1-.2-.3-.4-.4-.5-.2.3-.3.6-.6.8-.3.1-.6.2-.9.2V52c.1.3.2.7.2 1 .1-.2.1-.4.2-.6.4-.1.9-.6.5-1a.76.76 0 0 1 .2-.4zm.2.3v.6c.2 0 .4-.1.6-.1-.1-.1-.1-.3-.2-.4s-.3-.1-.4-.1zm-.7 1.2c-.2.2.2.5.4.3.1-.3-.2-.5-.4-.3z" fill="#a9a8a8"/><path d="M111.9 51.2c0-.2.2-.4.3-.6v1.1c-.1-.1-.2-.3-.3-.5z" fill="#464646"/><path d="M121.5 50.7c.2.1.5.1.7.2a.76.76 0 0 0-.2.4c-.3-.1-.6-.2-.5-.6z" fill="#93b592"/><path d="M110.4 51.1l.9.3c-.3.2-.5.4-.8.7l-.4-.4c.1-.3.2-.4.3-.6z" fill="#939292"/><path d="M114.6 51.1h.3v.6c-.1.2-.3.3-.4.5 0 0-.1-.1-.2-.1a1.93 1.93 0 0 0 .3-1z" fill="#0e0f0e"/><path d="M104.9 51.8c.2-.2.4-.3.5-.5.1.1.3.2.4.3l.1.1c0 .1.1.2.1.2-.1.1-.2.3-.3.4-.2-.2-.5-.4-.8-.5z" fill="#f9f8f7"/><path d="M105.9 51.6c.2-.1.4-.1.6-.2.1.4.3.8.5 1.2-.2 0-.3.1-.5.1-.2-.3-.3-.6-.5-.9 0 0-.1-.1-.1-.2z" fill="#262627"/><path d="M121.2 51.4c.2.1.5.2.7.3-.2.3-.4.5-.6.8.1.1.3.1.4.2.4-.3.8-.7 1.3-.9-.1.4-.4.8-.8.8-.2.3-.4.5-.6.7v-.4a.76.76 0 0 1-.4.2c-.1-.1-.3-.2-.4-.3.2-.5.3-.9.4-1.4z" fill="#aec8a4"/><path d="M118.5 52c.2-.1.3-.3.6-.3 0 .1.1.3.1.4-.3 0-.5 0-.7-.1z" fill="#2c2b2c"/><path d="M103.8 52.4c.2-.1.5-.2.7-.3-.1.2-.3.5-.4.7-.1-.1-.2-.2-.3-.4z" fill="#b2c9ac"/><path d="M120.3 53.2c.3 0 .5-.1.8-.1 0 .3-.2.6-.6.6 0-.2-.1-.3-.2-.5z" fill="#cccdc7"/><path d="M107.7 53.7c0-.3.2-.4.4-.5.3.3.5.6.5 1-.3-.2-.6-.3-.9-.5z" fill="#323232"/><path d="M104.6 53.6h.7c0 .3-.3.6-.5.8 0-.2-.1-.5-.2-.8z" fill="#a2b89e"/><path d="M106.9 54.1a.76.76 0 0 1 .4-.2c.1.2.3.5.4.7-.1.1-.2.2-.3.2-.2-.3-.3-.5-.5-.7z" fill="#d9dad7"/><path d="M120 53.9c.2.1.4.2.7.3-.6.8-1.5 1.4-2.1 2.2-.1 0-.3.1-.4.1l.1-.1c.1-.2.3-.3.4-.5-.2 0-.5-.1-.7-.1.3 0 .5-.1.8-.1 0-.1 0-.3-.1-.4.4-.5 1-.8 1.3-1.4z" fill="#97b392"/><path d="M105 54.7l.6-.6c.3.3.6.6.7.9s-.2.3-.4.3c-.3-.1-.6-.4-.9-.6z" fill="#b7c6b3"/><path d="M115.6 54.9c.7 0 1.2-.5 1.8-.6-.1.2-.2.4-.3.5h.6c-.2.2-.5.4-.8.6 0-.2-.1-.4-.3-.4-.3.1 0 .5.2.4-.2.1-.3.1-.5.2a.76.76 0 0 0-.4-.2c0-.2-.2-.3-.3-.5z" fill="#b2b3b2"/><path d="M109.9 54.8c.3 0 .6.1.8.1-.1.3-.1.6-.2.8-.2-.1-.5-.3-.7-.4 0-.1 0-.3.1-.5z" fill="#474746"/><path d="M112.5 55.6c.2-.4.6-.5 1-.4 0 .1.1.3.1.4-.2.1-.4.3-.6.4 0 0-.1-.1-.2-.1-.1-.1-.2-.3-.3-.3z" fill="#202020"/><path d="M116.9 55.4c-.2.1-.5-.3-.2-.4.2 0 .3.1.3.4h-.1z" fill="#eaebe9"/><path d="M112 55.5h.4c.1.1.3.2.4.3-.1 0-.4.1-.5.1.1.2.2.5.5.5.7.1 1.5 0 2.2-.2l.5.5c-.3-.1-.5-.1-.8-.1-.4 0-.7.1-1.1.4-.5.3-1 .5-1.3.9 0-.1-.1-.2-.1-.3l-.1-.1c-.1.2-.3.3-.4.5-.1-.1-.2-.3-.4-.4 0-.3.1-.6.1-.9.3-.1.5-.2.7-.3.1-.4 0-.7-.1-.9z" fill="#bfcabd"/><path d="M117.9 55.8c.2 0 .5.1.7.1-.1.2-.3.3-.4.5 0-.2-.2-.4-.3-.6z" fill="#aec2a8"/><path d="M188 56.1c.2-.1.4-.2.7-.2h35c.3 0 .5.2.7.4v4.9c.1.4-.4.5-.7.5h-3.2v42.1c0 .6 0 1.2-.1 1.8h-4.5l-.1-6c-.3-1.7-.8-3.4-1.8-4.9-.3-.5-.4-1.2-.8-1.6-.6-.7-1.1-1.5-1.6-2.2l-4.1-4.3c-.7-.6-1.4-1.1-2.2-1.7-.3-.3-.8-.4-1.2-.4.2 0 .4-.1.6-.1-.6.1-1.2-.3-1.8-.4-1-.1-2-.2-3 .3-1.1.4-1.9 1.3-2.6 2.2-.4.5-.4 1.1-.6 1.6-.3.8-.2 1.8-.2 2.6-.1.8.3 1.6.6 2.4.5 1.1 1.5 2 2.6 2.4.6.1 1.2.1 1.7-.2.6-.3 1.3-.4 1.9-.9.3-.2.6-.5 1-.5.2.1.4.2.4.4.3 1 .4 2 .7 3 0 .9.4 1.8.2 2.7-.3.5-.8.7-1.3.9-.9.4-1.6 1-2.5 1.2a4.75 4.75 0 0 1-3.7 0c-.9-.2-1.5-.8-2.3-1.2-.3-.2-.6-.4-.8-.7-.7-1-1.7-1.8-2.1-3-.3-.9-1-1.8-.9-2.8-.1.1-.1.3-.2.4-.1-.8-.4-1.6-.4-2.4-.2-1.9-.1-3.8.1-5.7.2-1.1.6-2.2 1-3.3.4-1.4 1.3-2.7 2.4-3.8.4-.5.9-1.1 1.5-1.4 1.7-1 3.6-1.6 5.5-1.5 0-1.2.2-2.4-.2-3.5-.2-1.2-.9-2.3-1.5-3.4-.7-.8-1.1-1.8-2-2.4-.5-.3-1-.7-1.5-.8-1.8-.1-3.6 0-5.4 0-.1-.3-.2-.6-.2-1v-4.2c-1-.1-2 .1-2.9-.2-.3-1.5-.3-3.3-.2-5.1zm11.5 5.6c1 1.1 2.1 2 3 3.2.7.7 1.1 1.7 1.7 2.5.5.7.9 1.5 1.3 2.3.6 1.7 1.2 3.4 1.5 5.2l.3 3.2a23.07 23.07 0 0 1 1.9 1.4c1.6 1.3 2.8 3.1 4 4.7.6.7.9 1.6 1.6 2.3.4.5.6 1.1 1.1 1.5 0-.3.1-.5.1-.8V63.8l-.1-2.1h-16.4zm-20.4-5.4c.8-.3 1.6-.2 2.3-.2 1.2-.1 2.3.7 3.1 1.5.7 1.1 1.6 2.2 2 3.4.2.6.7 1.2.7 1.9v41.3 1.5c-.1.4-.6.4-1 .5h-2.9c-.3.1-.5-.1-.7-.3.1-.6.1-1.2-.1-1.7-.3-1.2-.8-2.3-1.6-3.2-.6-.6-.8-1.5-1.5-1.9-.5-.3-1.1-.9-1.8-.7-.9.3-1.7.7-2.5 1.2s-1.3 1.2-2.1 1.6c-.9.4-1.5 1.2-2.5 1.5-1 .4-2 .3-3 .1.1 0 .3-.1.4-.1-1.5.2-2.6-.9-3.8-1.6-.6-.3-.8-1-1.3-1.4-.5-.5-1-1-1.3-1.7-.9-2-2.1-3.8-2.5-6 0 .1-.1.1-.1.2-.1-.9-.6-1.7-.9-2.6-.2-.8-.7-1.5-.6-2.3-.1-.5.4-.9.6-1.3l1.1-1.8c.2-.4.4-.9.8-1.1.9-.1.7 1 1 1.6.4 2.3 1 4.6 2.1 6.6.3.6.4 1.2.8 1.8.6.8 1.2 1.7 2.1 2.3 1 .7 2.2 1.3 3.4 1.1.9-.3 1.8-.9 2.6-1.4.8-.4 1.5-1 2.2-1.6.4-.3 1-.5 1.5-.7.8-.4 1.7-.3 2.5-.2.7.2 1.5.5 2.1 1l1.8 1.9c.1-.2.1-.4.1-.6V65.1c0-.6-.3-1.1-.7-1.5l-1.2-1.6c-1 .3-1.8 1-2.7 1.7-1.2 1-2.2 2.3-3.1 3.6-.3.4-.6.9-.7 1.4-.2.8-.6 1.5-.5 2.4 0 .9-.1 1.7.1 2.6.3.5.6 1.2 1.3 1.3.4.1.8.1 1.1-.2.4-.5.9-.9 1.3-1.4.3-.4.6-.8 1-1.1.2.2.4.4.5.6.4 1.1 1 2.1 1.4 3.2.2.9-.4 1.6-.9 2.3-.6.6-1 1.3-1.8 1.7-1.3.6-2.8.6-4.1.3.1 0 .3-.1.4-.1-.8.1-1.5-.3-2-.8-.8-.8-1.7-1.7-2-2.8-.4-1-.6-2.1-.8-3.2v-3.2c.2-1 .3-2 .6-2.9.2-1.4.8-2.7 1.5-3.9.4-.5.6-1.1.9-1.6l2.1-2.4c.6-.6 1.4-1.1 2-1.7.3-.3.6-.4 1-.5 1-.4 1.6-.8 2.3-1z" fill="#d01002"/><path d="M117.3 56.2h.6v.7c-.1 0-.3 0-.4.1-.2-.2-.3-.5-.2-.8z" fill="#b2c5a9"/><path d="M107.9 58.1c.8-.5 1.9-.7 2.8-.7 0 .4.2 1-.3 1.1-.6.1-1.3.2-1.9.4-.3-.1-.4-.5-.6-.8z" fill="#fcfbfa"/><path d="M111 57.4h.4c.1.1.2.3.4.4.1-.2.3-.3.4-.5l.1.1c-.1.3-.1.7-.5.9-.3.1-.5.1-.8.1v-1z" fill="#6b6769"/><path d="M112.7 57.5c.5.1 1-.3 1.5 0v.5l-.1-.1c0-.3-.6-.4-.5 0 0 0 .1.1.1.2l.1.1c-.5-.1-1 .1-1.4.3l.3-1z" fill="#6e6a6b"/><path d="M114.5 57.3c.2 0 .4 0 .6.1l2.3.8-.3.8c-.2 0-.5.1-.7.1h-.1l-1.5-.6c-.5-.3-.4-.8-.3-1.2z" fill="#fbfbf9"/><path d="M113.6 57.9c-.1-.4.4-.3.5 0-.1.1-.3.2-.3.2-.1 0-.1-.1-.2-.2z" fill="#434343"/><path d="M108.3 59.3c.8-.3 1.7-.8 2.5-.4-.4.4-.8 1-1.5 1-.4 0-.7-.4-1-.6z" fill="#147a3b"/><path d="M114.8 58.8l1.4.3h.1c.2.2.4.3.5.5-.3.1-.7.4-1.1.3-.4-.2-.7-.7-.9-1.1z" fill="#127435"/><path d="M88.4 61.1c0-.2 0-.6.4-.6H94v.6c-.5 0-1.1.2-1.6.4v7c0 1.4-.1 2.7.1 4.1l.8.5c-.3-.1-.8-.1-.9-.4-.2-.5-.2-1-.2-1.5v-8.3c0-.5 0-1.1.3-1.5.5-.3 1-.4 1.5-.6-.9-.1-1.8 0-2.7-.1l-2.7.1c.5.2 1 .3 1.5.5.4.2.3.6.4 1V71c0 .6.1 1.2-.3 1.7-.1-3.7.1-7.5-.1-11.3-.7-.1-1.2-.3-1.7-.3z" fill="#7da694"/><path d="M109 70.1c.7-.7 1.8-1.1 2.7-1.5v3.2l-1.3.7c-.6.1-1.2-.2-1.4-.7-.1-.6-.1-1.2 0-1.7zm-2.9 14.6c.9-.4 1.8-.9 2.7-1.1v3c-.5.6-1.2.8-1.9 1-.6 0-1.1-.5-1.5-1-.1-.7 0-1.5.7-1.9z" fill="#006943"/><path d="M88.7 75.6l9.3.1c1 .2 2.1.8 2.6 1.7.4.8.5 1.7.2 2.5 0 .3-.2.6-.4.8.4-.9.5-2 .1-2.9s-1.3-1.5-2.3-1.7c-1.5-.4-3.1-.3-4.6-.3h-4c.3.2.6.4.8.7.2.4.1.9.2 1.3v7c0 .9.1 1.8-.2 2.6V77.1c0-.5-.3-.9-.7-1.1-.4-.1-.8 0-1.2 0 .2-.1.2-.2.2-.4z" fill="#b1cabe"/><path d="M108.9 79.8c.6.1 1.2.2 1.5.7.6 1 .4 2.2.5 3.3 0 1.2-.1 2.3.1 3.5.2 0 .5-.1.7-.1-.2.2-.5.3-.7.5-.2-.4-.4-.8-.4-1.3l-.1-5.2c0-.8-.9-1.1-1.6-1.4z" fill="#99b6a9"/><path d="M129.4 79.7h4.1c.3 0 .2.4.3.6h-1.3c0-.1.1-.2.1-.3-.9.1-1.9-.1-2.8.2-.1 0-.2.1-.3.2-.1-.2-.1-.4-.1-.7z" fill="#a5bbb0"/><path d="M92.6 91.6c.7-.2 1.5-.4 2.2-.4h6.4c1.7.2 3.6 1.3 3.9 3.1l1.1 3c.3 1.2.9 2.4.9 3.7 0-.1.1-.1.1-.2.4 1.8 1.1 3.5 1.6 5.3.3 1.7.9 3.4 1.5 5 .5 1.3.9 2.6 1 3.9.2.1.4.1.6.2.1-1.3.8-2.4 1-3.6.2-1.4.8-2.6 1.2-3.9.3-.8.4-1.6.8-2.4.4-1 .5-2.1.8-3.1l1.1-3.4c.4-1.2.5-2.4 1-3.5.4-.9.6-1.8 1.3-2.5.7-.9 1.9-1.3 3-1.5h7c1.2.2 2.6.6 3.4 1.5.8.8 1.1 2 1.2 3.1v32c-.2 1-.3 2.1-1 2.9-.5.5-1 1.2-1.8 1.4-1.4.4-3 .5-4.4-.1-1.4-.8-2.6-2.3-2.6-4.1v-22h-.3c-.5 2.9-1.7 5.6-2.3 8.5-.2 1.2-.8 2.4-1 3.6l-1 3.4c-.4 2.3-1.3 4.5-1.9 6.7-.2 1-.6 1.9-1.4 2.6-.6.4-.9 1.2-1.7 1.4-1.2.6-2.6.4-3.9.4-1.1 0-1.9-.7-2.7-1.3-.4-.3-.9-.6-1.1-1.1-.5-1-1.1-2-1.3-3.1-.3-.8-.6-1.6-.6-2.4l-1.6-5.1c-.2-1-.7-2-.7-3-.3-1.2-.8-2.4-1.1-3.6-.3-1.1-.8-2.1-.9-3.2-.2-.9-.4-1.9-.8-2.8-.2.2-.2.4-.2.7v19.6c0 .4.1.8-.1 1.2-.2.6-.3 1.3-.7 1.9-.6 1-1.5 1.8-2.7 2.1-.8.1-1.6.1-2.5.1s-1.7-.6-2.3-1.1c-.5-.5-1-.9-1.2-1.6-.1-.6-.4-1.3-.4-1.9V97c0-.7-.1-1.4.2-2 .2-.7.3-1.5.9-1.9.7-.7 1.3-1.2 2-1.5z" fill="#f58c2a"/><path d="M123.8 106h.3v22c0 1.7 1.1 3.2 2.6 4.1 1.4.7 3 .5 4.4.1-.8.5-1.7.6-2.6.5s-1.9-.3-2.6-1c-.6-.6-1.3-1.2-1.6-2.1-.2-.7-.4-1.5-.4-2.2v-19.8c-.1.1-.2.2-.2.4l-1.7 5.7c-.2 1.3-.6 2.5-1 3.7-.1.3-.2.5-.4.7.2-1.2.8-2.4 1-3.6.5-2.9 1.7-5.6 2.2-8.5z" fill="#8b783a"/><path d="M218.1 110.3h6.2v3.7l-2.6.1V137c-1.2.1-2.4 0-3.6.1h-.1c.1-5.9 0-11.8 0-17.7.1-1.4-.4-2.9-1.5-3.9-.5-.5-1.2-.9-1.9-.7-.9.3-1.5 1-2 1.7-.2.8-.1 1.6-.1 2.4-.1.8.5 1.6 1.2 2 .5.1 1 .1 1.4-.2.6-.4 1.2-.9 1.8-1.3.2.3.2.7.2 1.1v3.4c0 .2-.2.4-.3.5-.7.6-1.3 1.3-2.2 1.4-.8 0-1.8.2-2.4-.4-.7-.6-1.3-1.4-2-2.1-.3.1-.3.6-.6.8-.7.9-1.6 1.5-2.7 1.9-1.7.4-3.5-.7-4.1-2.3-.1-.3-.1-.6-.1-.9v-3.9c.5.3.7.9 1.2 1.2.6.4 1.1 1.2 1.9 1.1.6.1 1-.4 1.3-.8.5-.8.5-1.9.5-2.8 0-.6.1-1.4-.3-1.9-.8-1-2-1.5-3.3-1.5h-4.4v22.7c-1.2.1-2.4.1-3.6.1-.3 0-.2-.4-.2-.5v-22.2c-.1 0-.2-.1-.2-.2h-3.8c-.4 0-.8.2-.9.5-.3.8-.8 1.5-1.1 2.3-.2.5-.3.9-.5 1.4-.3 1.9.4 3.8 1 5.7.3.8.4 1.6.7 2.4.5 1.5 1 2.9 1.2 4.5.1 1.3.1 2.8-.7 4-.6.7-1.1 1.6-2 1.9-1.6.7-3.2 1.3-5 1.3 0-1.2.2-2.4.2-3.5 1.3-.4 2.6-.9 3.5-2 .7-1.1 0-2.4 0-3.6 0 .1-.1.2-.1.2-.4-1.9-1.6-3.6-1.9-5.6 0 .1-.1.2-.1.2-.2-1.4-.9-2.8-.8-4.2.2-1.8 1-3.5 1.7-5.2-.2-.1-.5-.2-.7-.2h-12.2v.4c.7.1 1.4.1 2.1.4a13.9 13.9 0 0 1 2.8 1.2c.8.5 1.3 1.2 2 1.8 1 .9 1.3 2.2 1.6 3.4.1.9.1 1.9 0 2.8-.2.7-.3 1.4-.6 2.1-.4.7-1 1.2-1.6 1.8-.4.4-1 .6-1.5.9-1.1.6-2.4.7-3.7.5-.2-.1-.5-.3-.4-.6 0-1.2-.1-2.4.1-3.6h2.6c.7-.2 1.4-.8 1.5-1.6.2-.9.1-1.9-.5-2.7-.4-.7-1.1-.9-1.8-1.3-.9-.4-1.9-.7-2.8-.7v16.3c0 .6.1 1.3-.1 1.9-1.2.1-2.3 0-3.5 0-.4-.8-.6-1.6-1.1-2.3-.8-1.3-1.6-2.6-2.6-3.8-.9-.8-1.6-1.8-2.7-2.4-1.4-.8-2.9-1.4-4.5-1.4-.2-.6-.4-1.2-.4-1.8-.2-.9-.5-1.8-.6-2.8.9-.7 1.8-1.3 2.6-2 .7-.6 1.5-.9 2.2-1.5.9-.8 2-1.3 2.9-1.9.8-.5 1.5-1.2 2.4-1.6.6-.3 1.1-.7 1.5-1.2-.2-.2-.4-.4-.7-.4h-11.9c-.2-.8-.1-1.7-.1-2.5 0-.4 0-.9.2-1.3h46.4c1 0 2-.1 2.9.2.5.3 1 .7 1.5 1.1.7.5 1.1 1.3 1.5 2 .4-.5.6-1.2 1.1-1.6.6-.6 1.3-1.4 2.2-1.5.7-.1 1.4-.1 2.1 0 .9.4 1.6 1.2 2.5 1.6.4-.6.4-1.2.4-1.8zm-49.3 10.1c-.7.5-1.2 1.3-1.9 1.7-.8.5-1.4 1.3-2 2.1v.1c.7.7 1.3 1.5 2.1 2.2.6.5.9 1.3 1.5 1.8.5.4.9.9 1.2 1.4.1.3.3.6.6.8.3-.7.1-1.5.1-2.3v-6.7c0-.7.1-1.4 0-2.1-.7.3-1.2.6-1.6 1z" fill="#015d3c"/><path d="M221.8 114.2c.9-.1 1.7-.1 2.6-.1v.3h-2.1c-.3.1-.2.4-.2.6v22.2c-.9.1-1.9 0-2.8 0-.4 0-.8.1-1.1-.2 1.2-.1 2.4 0 3.6-.1v-22.7z" fill="#72a593"/><path d="M168.8 120.4c.4-.4.9-.7 1.5-1 .1.7.1 1.4 0 2.1v6.7c0 .8.2 1.5-.1 2.3-.2-.2-.5-.5-.6-.8.1 0 .3 0 .4.1v-9.9c-.4.1-.8.3-1.2.5z" fill="#91b9aa"/><path d="M105.8 137.1h.5c.4 1.4.7 2.8 1.3 4.1v.2c-1 .1-1.9 0-2.9 0 .1-1.5.7-2.9 1.1-4.3z" fill="#006842"/><path d="M191.7 141.1h10.5c-1.9.1-3.9 0-5.8 0-1.5 0-3.1-.1-4.6.2 3.9.1 7.9 0 11.8.1 1 .6 1.2 1.9.9 3-.2.6-.8.9-1.2 1.5.6.4 1.2.8 1.8 1.3V142c0-.2.1-.5.1-.7h1.4v1.1h-.7c-.2 2.1 0 4.2-.1 6.3-.3 0-.7 0-.9-.3-.8-.8-1.8-1.2-2.8-1.5-.6-.2-.5-.9-.5-1.4.8-.1 1.6-.6 2-1.3.1-.6.3-1.4-.4-1.7-.4-.1-.7.3-.7.7.2.1.4.2.5.3 0 .3-.1.6-.1.9-.5 0-.9-.1-1.2-.4 0-.3 0-.5-.1-.8-.7.2-.9 1-1.2 1.5-.1.8-.1 1.6 0 2.4.2.4.5.6.8.8a1.39 1.39 0 0 0 1.1-.2v1.2c-.6.4-1.3.3-1.9 0-.7-.6-1-1.5-1-2.4s0-1.9.4-2.8c.3-.4.6-.8.8-1.3h-1.9v6.2c-.3.2-.6.1-.9.1-.1-.7-.1-1.4-.1-2.1v-4.2h-.7c-.1 0-.2.1-.2.1v6.2c-.3-.1-.6-.1-.9-.2v-3.8h-.5c-.3.6-.6 1.1-.8 1.7-.2.5-.4 1-.8 1.2-.5.1-1.1 0-1.4-.4v-1.1c.3.1.6.5 1 .4.7-.7.8-1.7.6-2.6-.2-.6-.7-1-1.1-1.5h-.8c-.5-.5-.5-.9-.4-1.3zm2.2 1.2c.2.4.3.8.6 1.1.4 0 .8-.1 1.3-.2-.1-.3.1-.7-.2-.9h-1.7zm-19.2 0v-1.1h15v.8c-1.7.1-3.5-.1-5.2.2-.9.5-1.6 1.3-1.8 2.3-.1.7-.1 1.5 0 2.3.2.9 1.3 1.4 2 .8 0 .5.3 1.2-.3 1.4-.6.1-1.3.1-1.8-.3-.4-.5-.5-1.1-.8-1.6-.1-.7-.1-1.3-.1-2 0-1 .6-1.9 1-2.8H181l-.2.2v6h-.8v-6.3l-2.2.1c.4.4 1 .7 1.3 1.3.1.5.1 1.1 0 1.7-.3.8-.9 1.3-1.6 1.8.8.5 1.6 1 2.2 1.8l-.6.6c-.6-.2-1-.7-1.5-1.1-.7-.4-1.4-.8-2.2-.9-.2-.5-.4-1-.4-1.5.9.1 1.8.1 2.6-.3.6-.2.6-1 .5-1.5-.2-.8-1.2-.9-1.8-.6-.3.1-.2.5-.3.7.2.1.4.1.6.2-.2.3-.2.9-.6.9-.6 0-.9-.8-.9-1.3-.1-.7.6-1 1-1.6-.4-.2-.9-.2-1.4-.2zm33.9-1.1h11.6c1.4.6 1.7 2.7.7 3.8-.2.3-.5.5-.7.7.5.5 1 .9 1.7 1.2.2-.7.1-1.4.1-2.2v-3.6h1.5v1c-.3 0-.5 0-.7.1v6.2c-.2 0-.5 0-.7.1-.8-.9-2-1.6-3.2-1.8-.4-.4-.5-.9-.5-1.4.9-.2 1.9-.6 2.2-1.5.1-.6.1-1.2-.3-1.6h-.5c-.2.2-.3.4-.4.7.2.1.5.2.7.3-.1.4-.3.7-.4 1-.3-.1-.6-.2-.8-.4-.3-.3-.4-.7-.6-1-.6.8-1.1 1.7-1 2.8 0 .7 0 1.5.7 1.9.4.4 1 .2 1.5 0-.1.5.2 1.2-.4 1.4-.6.1-1.3.1-1.7-.3-.4-.5-.8-1.1-.9-1.7-.1-1-.1-2 .1-2.9 0-.2.1-.3.2-.4.4-.4.7-.8.9-1.3-.7-.2-1.5-.2-2.3 0v6.1h-.6-.1v-6.2c-.3 0-.5 0-.8-.1v5.8c0 .2 0 .6-.3.5h-.7v-3.5c0-.3-.4-.5-.7-.4-.5.8-.7 1.6-1.1 2.4-.4.7-1.4.7-1.9.1 0-.4 0-.7.2-1.1.2.1.5.3.7.4.6-.7 1-1.6.8-2.5-.2-.7-.7-1.3-1.2-1.7h-.8c-.3-.2-.3-.5-.3-.9zm2.1 1.1c.3.4.5.8.7 1.2.3-.3.8-.3 1.2-.1v-1.2c-.6.1-1.3.1-1.9.1z" fill="#01311f"/><path d="M157.7 141.2h15v.9c-.7.1-1.6-.3-2.3.3h-1.3c-.7-.2-1.6-.3-2.1.3-.6.5-1.1 1.2-1.3 2-.1.8-.1 1.6 0 2.4.2.3.4.5.7.7.4.1.8 0 1.2 0v1.2c-.6.1-1.4.2-1.9-.2-.4-.4-.6-1-.8-1.5-.3-.6-.2-1.3-.2-1.9 0-1.1.8-2.1 1.1-3.1h-1.9v6.2c-.3 0-.5.1-.8.1-.2-.5-.1-1-.1-1.5v-4.8h-2.1c.4.6 1.1.8 1.3 1.6 0 .5.1 1.1-.2 1.6-.3.6-1 1.1-1.4 1.6.7.4 1.4.8 2 1.4.1.1.1.4.1.5-.2.1-.4.3-.6.3-.6-.3-1-.8-1.6-1.1-.7-.4-1.3-.7-2.1-.8-.1-.5-.3-1-.4-1.5 1.1 0 2.3.1 3.1-.7.1-.5.1-1 0-1.5-.4-.5-1-.5-1.6-.4-.1.2-.3.4-.4.6.2.2.4.3.6.5-.1.3-.2.5-.4.8-.7.3-1.1-.6-1.2-1.1-.1-.7.5-1.3 1.2-1.6 0 0 .1-.1.1-.2h-1.7v-1.1z" fill="#023220"/><path d="M184.5 142.2c1.7-.4 3.5-.2 5.2-.2v.3c-.6 0-1.3-.1-1.9 0 0 .1-.1.2-.1.3-.4-.1-.9-.5-1.4-.2-.4.2-.9.6-.9 1.1s0 1.2.4 1.5c.2.2.5.2.7 0s0-.4 0-.6c-.2-.3-.2-.7-.2-1.1.4 0 .7-.1 1.1.1 1.2.8 1.5 2.8.3 3.7.3-.6.6-1.3.5-2-.1-.9-.7-1.9-1.7-1.7-.2.6.5 1 .3 1.6-.1.3-.3.6-.6.5-.9-.4-1.5-1.8-.7-2.6.2-.2.3-.4.5-.6-.5 0-.9-.1-1.4 0-.9.5-1.4 1.4-1.9 2.2.2-1 .9-1.8 1.8-2.3z" fill="#5f7f73"/><path d="M215.2 142.4c.7-.3 1.5-.3 2.3 0-.2.5-.5.9-.9 1.3.1-.5.5-.9.7-1.3h-1.7v6.2c-.3 0-.7.1-1 0h.6v-6.2z" fill="#6b887e"/><path d="M169.1 142.4c.4.1.9 0 1.3 0 .8.4 1.6 1.1 1.5 2.1 0 1 .2 2.2-.4 3.1-.4.5-.9.9-1.6.9-1.1.1-2-.8-2.4-1.8-.2-.4-.5-.8-.5-1.3.2-.2.2-.7.6-.7.4.9.7 1.9 1.5 2.5.5.2 1.4.2 1.7-.4.3-.5.6-1.1.4-1.7s-.5-1.4-1.1-1.7c-.3-.2-.6 0-.8.1v.6c.2.2.4.3.5.5 0 .3-.1.5-.2.7-.5 0-.9-.1-1.2-.5-.3-.5-.2-1.1-.2-1.6.2-.3.6-.5.9-.8zm17.2 0c.4-.3.9.1 1.4.2.7.3 1.2.9 1.3 1.7.1.9.1 1.7-.1 2.6-.2 1-1.3 1.8-2.4 1.6-.9-.3-1.7-1-2-1.9-.2-.5-.5-.9-.4-1.4.1-.2.3-.3.4-.5.4.8.7 1.6 1.3 2.2.4.5 1.2.4 1.8.1 1.2-.9.9-2.9-.3-3.7-.3-.2-.7-.1-1.1-.1 0 .4 0 .8.2 1.1.1.2.3.5 0 .6-.2.2-.5.2-.7 0-.4-.4-.4-1-.4-1.5.1-.4.6-.7 1-1z" fill="#01301e"/><path d="M196.5 142.4c.1 0 .2-.1.2-.1.2 2 0 4.1.1 6.1-.1 0-.3.1-.4.1.2-2 .1-4 .1-6.1z" fill="#7a948b"/><path d="M101.8 55.3l7.4 7.1 10.6-.5 7.6-6.4.9-6.4-2.2-9.1-9.4-3.2-12.1.5-5.4 2.9 1.2 12.4z" fill="#006a44"/><path d="M116.3 39.4h.2c1.6 0 3.1.4 4.5 1.2 1.1.7 2.1 1.6 2.9 2.6.6.9 1.1 1.9 1.4 3 .4 1.8.3 3.6-.3 5.3-.5 1.3-1.3 2.5-2.3 3.4-1.1 1-2.4 1.8-3.9 2.1.2 0 .4.1.7.1h.1a9.49 9.49 0 0 0 3.4-2.2c1-1 1.7-2.2 2.2-3.5.3-.8.5-1.7.6-2.6h.9.5c.2 0 .5 0 .7.1.1.1.2.2.2.4.1.3.1.7 0 1-.1.5-.2.9-.4 1.4-.1-.1-.1-.2-.3-.3h-.2c-.1.1-.1.2-.1.3s0 .1.1.2c-.3-.1-.5-.4-.6-.7-.4 1.5-1.2 2.9-2.2 4-.8 1-1.8 1.8-3 2.5l1.2.6-1.3 1.5-.8-.3c-.1 0-.2.1-.3.2-.2.1-.4.2-.6.2s-.3-.1-.4-.2-.2-.3-.2-.5c-1.4-.2-3-.2-4.4.2-.1.2-.1.4-.3.6-.1.1-.2.2-.3.2h-.2c-.2 0-.4-.2-.5-.3-.1.1-.3.1-.4.2l-1.4-1.7.6-.3c-.5-.2-.9-.5-1.4-.8-1.2-.8-2.2-1.9-3-3.1a11.69 11.69 0 0 1-1.4-3c-.1.3-.3.6-.6.7.1-.1.1-.3 0-.4 0-.1-.1-.2-.2-.2s-.2.2-.3.3c-.3-.6-.5-1.1-.5-1.8v-.2c0-.2 0-.4.1-.6l.3-.3c.2-.1.5-.1.8 0h1.2c.1 1 .3 2 .7 3 .5 1.3 1.3 2.5 2.3 3.5s2.3 1.7 3.6 2.1h.1c.2 0 .4-.1.7-.1-.1 0-.2 0-.3-.1-1.4-.3-2.7-1-3.7-1.9-1.1-.9-2-2.1-2.5-3.4-.8-1.8-.9-3.9-.4-5.8.4-1.3 1-2.6 2-3.7s2.2-1.9 3.5-2.4c1.2-.3 2.2-.4 3.2-.5zm-.5.4c-.9.1-1.8.3-2.6.6-1.3.6-2.5 1.5-3.5 2.6-1 1.2-1.6 2.6-1.8 4.2-.2 1.1-.1 2.2.2 3.3.2.9.6 1.7 1 2.5.8 1.2 1.9 2.3 3.1 3 1.1.7 2.5 1 3.8 1.1h.9c.3 0 .5 0 .8-.1 1.6-.2 3.1-.9 4.4-2 1.1-.9 2-2.2 2.5-3.6.7-1.9.7-4.1 0-6.1-.4-1.2-1.2-2.3-2.1-3.2-1.1-1.1-2.4-1.8-3.9-2.2-.9-.1-1.8-.1-2.8-.1zm-10.4 9.5c-.1 0-.2.1-.2.2-.1.2-.1.4 0 .7 0 .1.1.3.2.3h.2a.76.76 0 0 0 .2-.4c0-.2 0-.4-.1-.6-.1-.1-.2-.2-.3-.2zm22.1.1c-.1 0-.1.1-.2.2s-.1.3-.1.5a.9.9 0 0 0 .1.5c0 .1.1.1.2.1s.2-.1.2-.2c.1-.2.1-.4.1-.6 0-.1-.1-.3-.3-.5h0zm-1.8 1v.2c.1 0 .2.1.3.1 0 .1-.1.2-.1.4-.1 0-.2-.1-.3-.1v.2c.3.1.6.2.8.2v-.2c-.1 0-.2-.1-.4-.1 0-.1.1-.2.1-.4.1 0 .2.1.4.1v-.2c-.2-.1-.5-.2-.8-.2zm-.2.9c-.1 0-.2.1-.2.2s-.1.2 0 .3c0 .1.2.2.3.2s.1-.1.2-.2c0-.1.1-.1.1-.2 0 0 .1 0 .1.1s0 .2-.1.2h-.1c0 .1 0 .1-.1.2h.2c.1 0 .2-.1.2-.2s.1-.2 0-.4c0-.1-.2-.2-.4-.1-.1.1-.2.3-.3.4 0 0-.1 0-.1-.1s.1-.3.2-.2v-.2h0zm-.3.7l-.3.6c.3.1.5.2.8.4.1-.2.2-.4.3-.7 0 0-.1 0-.1-.1-.1.2-.2.3-.2.5-.1 0-.1-.1-.2-.1.1-.1.1-.3.2-.4 0 0-.1 0-.1-.1-.1.1-.1.3-.2.4 0 0-.1 0-.2-.1.1-.2.1-.3.2-.5l-.2.1zm-17.7 1.3s.1.1.1.2c.2-.1.5-.3.8-.4 0 0-.1-.1-.1-.2-.3.1-.6.2-.8.4zm17.1-.2c-.1.1-.1.3-.2.4.2.1.5.3.8.4 0-.1.1-.2.2-.3 0-.1.1-.2.1-.3s-.1-.2-.2-.3-.2-.1-.4-.1c-.1 0-.2.1-.3.2zm-16.5.3c0 .2.1.3.1.4s-.1.1-.1.1c-.1 0-.1-.1-.1-.2 0 0 0-.1.1-.3-.1.1-.2 0-.2-.1-.1.1-.1.2-.1.3 0 .2.1.3.3.4.1.1.4 0 .4-.2s-.1-.3-.1-.5c0-.1.1-.1.1 0 .1.1.2.2.1.3 0 0 .1.1.1.2 0 0 .1-.1.1-.2s0-.2-.1-.3-.1-.2-.2-.2c-.3.1-.5.2-.4.3zm16 .6l.5.8c0-.1.1-.1.1-.2 0 0-.1-.1-.1-.2.1-.1.1-.2.2-.3h.2c0-.1.1-.1.1-.2-.3-.1-.6-.1-.9-.2-.1.1-.1.2-.1.3zm-16 .4c.1.2.3.4.4.6l.1-.1c-.1-.1-.2-.3-.3-.4.2-.1.4-.3.6-.4 0 0-.1-.1-.1-.2-.2.1-.4.3-.7.5zm15.3.4c.2.2.4.4.7.6.1-.2.3-.4.4-.5l-.1-.1c-.1.1-.2.2-.3.4-.2-.2-.4-.3-.7-.4.1-.1.1-.1 0 0zm-14.8.1s.1.1.1.2c.1 0 .1 0 .2-.1.1.1.2.2.2.3 0 0-.1.1-.1.2 0 0 .1.1.1.2.1-.3.3-.6.4-.8l-.2-.2c-.1 0-.4.1-.7.2zm14.4.3c-.1.1-.1.2-.1.4s.2.3.3.3c.3.1.6-.1.6-.4h.1l.1-.1-.3-.3-.3.3.1.1.2-.2v.1c0 .1-.1.2-.2.3-.1 0-.2 0-.3-.1s-.1-.2-.2-.4c.1 0 .3-.1.4-.1l.1-.1c-.1 0-.2-.1-.2 0-.1 0-.3.1-.3.2zm-13.7.6h0c.3-.1.4-.3.6-.4-.1.2-.2.4-.4.7l.1.1c.2-.1.4-.3.6-.4-.2.2-.3.4-.5.5l.1.1.6-.6-.2-.2c-.2.1-.4.2-.6.4l.3-.6-.2-.2c0 .1-.2.4-.4.6zm13.2-.1c.1.2.3.3.4.5-.2-.1-.5-.1-.7-.2 0 0-.1.1-.2.1.2.2.4.4.6.7l.1-.1c-.1-.2-.3-.3-.4-.5.2.1.5.1.7.2 0 0 .1-.1.2-.1-.2-.2-.4-.4-.7-.6.1-.1.1-.1 0 0zm-12.4.8s.1.1.2.1c.2-.2.4-.4.6-.7 0 0-.1-.1-.2-.1-.2.3-.4.5-.6.7zm11.4-.1c.1.3.1.6.2.9.1 0 .1-.1.2-.1V57c.1-.1.2-.1.3-.2 0 0 .1.1.2.1 0 0 .1-.1.2-.1-.2-.2-.5-.3-.8-.5-.1 0-.2.1-.3.1zm-.5.4a.76.76 0 0 1-.4.2c.1.2.3.5.4.8a.76.76 0 0 1 .4-.2c.1 0 .2-.1.2-.2s-.1-.3-.3-.2c.1-.1 0-.2-.1-.3 0-.2-.1-.2-.2-.1zm-4.8.7c-.9.1-1.8.2-2.7.5l-1.4.6.9 1.1c.8-.4 1.7-.7 2.6-.8 1-.1 2.1-.1 3.1 0 .9.1 1.7.3 2.5.6.3-.3.6-.6.8-.9-.4-.2-.9-.4-1.4-.6-.9-.3-1.9-.5-2.8-.5h-.9-.7z" fill="#008c44"/><path d="M116.4 42.3c.8 0 1.7.1 2.5.4.7.3 1.4.7 1.9 1.2.8.7 1.3 1.6 1.7 2.6.1.2.1.3.2.5.2.8.3 1.7.2 2.5-.1 1-.4 2-1 2.8-.5.8-1.3 1.4-2.1 1.9l-.1-6.9c0-.2 0-.5-.2-.7-.1-.1-.2-.3-.4-.3 0-.4-.1-.8-.3-1.1-.1-.2-.3-.4-.6-.5-.2-.1-.4-.3-.6-.5-.4-.4-.9-.9-1.1-1.4h0c-.3.6-.8 1-1.2 1.5a3.04 3.04 0 0 1-.7.5c-.1 0-.1 0-.2.1-.2.1-.4.4-.4.7a1.1 1.1 0 0 0 0 .8c-.2.2-.4.5-.5.8 0 .2-.1.5 0 .7v6.4c-.6-.4-1.1-.9-1.6-1.5s-.9-1.3-1.2-2c-.3-.8-.4-1.8-.3-2.6.1-1.2.7-2.4 1.4-3.4a5.73 5.73 0 0 1 1.1-1.1c.8-.6 1.7-1 2.6-1.1.2-.2.6-.3.9-.3z" fill="#fff"/><path d="M124.8 53.1c.1-.1.2 0 .3 0s.2.1.2.3c0 .1-.1.2-.1.2-.2-.1-.3-.2-.5-.3 0 0 0-.1.1-.2zm-.5.9c.1 0 .2.1.4.1 0 .1-.1.1-.1.2-.2-.1-.3-.2-.3-.3zM109 55c.1 0 .2-.1.3-.1-.1.1-.1.2-.2.3 0-.1 0-.1-.1-.2zm12.8 1.5c.1.1.2.1.3.2-.1 0-.1.1-.2.1s-.1-.2-.1-.3zm-1 .6c.1 0 .2-.1.3-.1s.1.1.1.1c-.1.1-.2.1-.3.2 0-.2 0-.2-.1-.2zm.4.1h0c.2 0 .2.1.1.2s-.2.1-.3.2c0-.1-.1-.1-.1-.2.2-.1.3-.1.3-.2z" fill="#008c44"/><g fill="#fff"><path d="M116.5 40.6c.1 0 .2 0 .3.1l-.2.2c-.1 0-.2-.1-.3-.1l.2-.2z"/><path d="M114.6 40.6h0c.2.3.2.5.3.7 0 0 0 .1.1.1.2 0 .3 0 .5-.1h-.2-.1c0-.1 0-.2.1-.3s.3-.1.4-.1.2 0 .2.1-.1.1-.1.2h.3.5v-.1l-.1-.1c0-.1.1-.1.1-.2 0 0 .1.1.1.2v.3h.5v-.1l-.1-.1c0-.1.1-.1.2-.2 0 .1.1.1.1.2v.4h-.3-.5-.6c-.1 0-.2 0-.3-.1-.2.1-.4.2-.6.2-.1 0-.1 0-.2-.1s-.1-.2-.1-.3c0 .1-.1.2-.1.3-.1.1-.2.2-.3.2-.2.1-.4.1-.5.2v-.1c.2-.2.5-.3.7-.5.1-.1.2-.2.2-.4 0-.1 0-.3-.2-.3 0 .1 0 .1 0 0z"/><path d="M115.3 40.8c0-.1.1-.1.1-.2.1 0 .2 0 .3.1 0 0-.1.1-.1.2-.1-.1-.2-.1-.3-.1zm-1.7.1h.2c.2 0 .4 0 .6.1.1.1.2.2.1.3-.1 0-.1 0-.1-.1-.1-.1-.2-.2-.4-.2-.1 0-.1.1-.1.1-.1 0-.3 0-.4-.1.1.1 0 0 .1-.1zm5.8.2c0-.1.1-.1.2-.2h0c0 .1.1.1.2.2l-.1.1h0c0 .2-.1.4-.2.6.1.1.3.1.4.2v-.1-.2c.1 0 .1-.1.2-.1 0 .1.1.2 0 .2 0 .1-.1.2-.1.2a.76.76 0 0 0 .4.2c.1-.1 0-.2 0-.3.1 0 .1-.1.2-.1v.3c0 .1-.1.2-.2.4-.1-.1-.3-.2-.4-.3-.2-.1-.3-.2-.5-.2-.2-.1-.4-.2-.6-.2-.2-.1-.4-.1-.7-.2-.1 0-.2-.1-.2-.2s.1-.2.2-.3l.1.1s-.1.1-.1.2 0 .1.1.1c.1.1.3.1.5.2.2 0 .4.1.5.2.1-.3.2-.5.1-.8h0z"/><path d="M118.9 41.1c.1-.1.3-.1.5-.1l-.1.1h-.2c.1 0 .2 0 .2.1v.2c0 .1-.2.1-.3.1-.2 0-.4-.1-.5-.2h.1c.2 0 .3.1.5.1-.1-.1-.2 0-.2-.1-.1-.1-.1-.1 0-.2zm1 .4c.1 0 .1-.1.2-.1l.2.2c-.1 0-.1 0-.2.1 0-.1-.1-.2-.2-.2zm-6.8-.1c.1 0 .3 0 .4.1s.2.4.2.5c-.2.1-.3.1-.5.2-.1 0-.2.1-.2 0 0 0 0-.1-.1-.2h0 .1c.1-.1.3-.1.4-.2 0-.1 0-.1-.1-.2s-.2-.1-.2-.2c.1.2 0 .1 0 0zm3.9.2c.1 0 .2.1.2.1l-.1.1c-.1 0-.2-.1-.1-.2-.1.1 0 .1 0 0z"/><path d="M112.6 42.1v-.2c.1 0 .2 0 .2.1.1.1.1.3.2.4-.2.1-.4.2-.5.3s-.2.1-.3.1c0 .1-.2.2-.3.3v.4c-.1.2-.2.3-.4.5-.1.1-.2.2-.3.2s-.2 0-.2-.1c-.1-.1-.1-.3-.2-.5h.1c0 .1 0 .3.1.4 0 0 .1.1.1 0 .1 0 .2-.1.2-.2.1-.1.2-.3.3-.4v-.2c-.1-.1-.2-.1-.3-.1v-.3h.2c.1 0 .1.1.1.1.1-.1.2-.1.2-.2s0-.1-.1-.2v-.1c.1 0 .1.1.2.2.1 0 .1 0 .2-.1 0 0-.1-.1-.2-.1v-.2s.1 0 .2.1c0 0 .1.1.1.2.1-.1.3-.2.4-.3 0 0 0-.1-.1-.1h.1z"/><path d="M111.8 42.1c.1 0 .2-.1.3-.1v.2c-.1 0-.1 0-.2.1v.2c-.1 0-.2.1-.3.1v-.2c.1 0 .1 0 .2-.1v-.2z"/><path d="M111.5 42.2c.1 0 .2-.1.3-.1v.2c-.1 0-.2.1-.3.1v-.2zm1.4.4h.3v.2h-.2v.2c-.1 0-.2 0-.2.1v-.2h.2c-.2-.2-.1-.3-.1-.3zm7 0c.1 0 .1 0 .2-.1 0 .1.1.1.2.2-.1 0-.1 0-.2.1 0-.1-.1-.1-.2-.2zm1 .5c.1-.1.2-.1.4-.1v.1h-.4c.1.1.1.2.1.3.1.1.2.3.3.4l.2.2c0-.1-.1-.2-.2-.2v-.1c.1-.1.2-.1.2 0 .2 0 .3.2.4.3l.3.3s.1.1.2.1.2.1.3.2l.1.1c0 .1 0 .2-.1.3 0 .1-.1.1-.2.2 0-.1-.1-.2-.2-.3v-.2c-.1 0-.1 0-.2-.1-.2-.2-.3-.4-.4-.6 0 .1.1.1.1.2s-.1.1-.1.1c-.1 0-.2-.1-.3-.1-.2-.1-.3-.3-.4-.4s-.1-.2-.1-.3c-.1-.3 0-.4 0-.4zm1.7 1.4c0 .1 0 .2.1.2 0 0 0-.1.1-.2h-.2zm-13-.1h0l.2-.1s.1.1 0 .1c.2 0 .4.1.6.2.1 0 .1.1.2.1l-.3.6c-.1.2-.2.4-.3.7 0 .1-.1.2-.2.4l-.1.1v.2c0 .1 0 .3-.1.4-.1.3-.1.5-.1.8v.6c0 .1 0 .2-.1.2h-.2v-.1c.1 0 .1-.1.1-.2v-.6c-.1 0-.2 0-.3.1s-.1.2-.1.3h-.2c0-.2.1-.3.2-.4s.2-.1.4-.1h.1c0-.2 0-.4.1-.6h-.1l-.1.1c0-.1-.1-.1-.2-.2.1 0 .1-.1.2-.1h.3c0-.2.1-.3 0-.5s-.1-.3-.1-.5c0-.1.1-.1.1-.1.1 0 .2-.1.3-.1.1-.2.1-.3.2-.5-.1-.1-.2 0-.3.1 0-.1-.1-.1-.1-.2.1 0 .1-.1.2-.1s.2 0 .2.1c0-.1.1-.2.2-.3-.2-.1-.4-.2-.7-.2l-.1.1c.2-.1.1-.2.1-.3h0zm.1 1.7v.2l.2-.2h-.2zm13.7-1.3c0-.1 0-.2.1-.2 0 0 .1 0 .1.1s.1.2.1.4v.6c0 .1-.1.2-.2.2v-.2c.1-.1.1-.3.1-.4l-.1-.1c-.1-.2-.1-.3-.1-.4z"/><path d="M122.6 45.1c0-.1 0-.1 0 0l.6.6c.1.1.2.2.4.2.1 0 .2-.1.3-.2.1 0 .1 0 .2.1v.1c-.1.1-.3.2-.4.3-.1 0-.2.1-.2.2v.1c0 .1 0 .3.1.4 0 0 0 .1.1.1h.1s.1 0 .1.1l-.2.2v.3s0 .1.1.2h.1l.1.1s-.1.1-.2.1c-.1.1 0 .2 0 .2.1 0 .1-.1.2-.2l.1.1c0 .1-.1.1-.2.2h-.3v-.5c-.1-.2-.1-.3-.1-.5v-.2c-.1-.1-.1-.3-.1-.4s-.1-.2 0-.4c0-.1.2-.2.3-.2a.76.76 0 0 1-.4-.2c-.1-.1-.2-.3-.3-.5-.3-.1-.4-.2-.4-.3zm-12.1.2h0c.1.1.1.1.1.2l-.1.1s0 .1.1.2c0 .1-.1.2-.2.2 0-.1-.1-.1-.1-.2 0 0 .1-.1.1-.2 0 0 0-.1-.1-.2.1.1.1 0 .2-.1zm-1.7 1.5c0 .1.1.1.1.2s-.1.1-.1.2c0 0 .1.1.1.2s-.1.2-.1.3c0 0-.1-.1-.1-.2s.1-.2.1-.2-.1-.1-.1-.2c.1-.1.1-.2.1-.3z"/><path d="M124.3 48.4h0c.1 0 .2.1.2.2l-.1.1c-.2.1-.5.1-.7.1-.1 0-.2-.1-.3-.2v-.1h.4c.2 0 .3 0 .5-.1zm-15.1.8c.1.1.1.2.2.3h.3c-.1.1-.1.2-.2.2 0 .1 0 .2.1.3-.1 0-.2-.1-.3-.1s-.2.1-.3.2v-.3c-.1-.1-.2-.1-.2-.2h.3c0-.2 0-.3.1-.4zm14.7.4c0-.1.1-.2.1-.3 0 .1.1.2.1.3h.3c-.1.1-.1.2-.2.2 0 .1 0 .2.1.3-.1 0-.2-.1-.3-.1s-.2.1-.3.2v-.3c-.1-.1-.2-.1-.2-.2.2-.1.3-.1.4-.1zm-14 1.3c0-.1.1-.1.2 0v.1s-.1-.1-.2-.1c.1.2.1.2.1.3a.76.76 0 0 1 .2.4c0 .1 0 .3-.1.3v.1l.6.9c.2.2.4.5.7.7.1.1.2.2.2.3 0-.1.1-.2.2-.2v.1.1l.1.1c.2.1.4.3.6.4h0c-.1-.1-.3-.1-.4-.3 0-.1-.1-.2 0-.2 0-.1.1-.1.2 0 .1 0 .2 0 .3.1l.3.3c.1.1.1.3.1.5h.1c0 .1 0 .1.1.2-.1 0-.2-.1-.2-.1-.2.3-.3.6-.5.9 0-.1 0-.1-.1-.2v-.1c.1-.3.3-.5.4-.8h-.1s-.1-.1-.2-.1l-.6.9v-.1-.2c0-.1 0-.1-.1-.2-.1 0-.2 0-.2-.1-.1 0-.1-.1-.1-.2s.1-.1.2-.1.1 0 .2.1v-.1c0-.1-.1-.2-.2-.2v-.2l-.1-.1c-.2.3-.4.5-.7.8h0v-.2-.1c.1-.2.3-.4.4-.5 0 0 .1-.1 0-.2 0 0-.1-.1-.1-.2l-.7.7h0v-.2l.4-.4v-.2s-.1 0-.1.1h-.1l-.1.1h-.2c-.1-.1-.2-.2-.1-.3 0-.2.2-.3.4-.2.1 0 .2.2.2.3h.2v.2l.1-.1c-.2-.2-.3-.4-.5-.5-.1 0-.1-.1-.2-.2l-.9.6v-.2c.1-.1.3-.2.4-.3v-.2c-.1 0-.3 0-.4-.1 0 0-.1-.1-.1-.2s0-.2.1-.2h.2s-.1.1-.1.2c.1.1.2 0 .3.1 0 0 .1-.1.1-.2s-.1-.2-.1-.2v-.1c0-.1-.1-.2-.2-.4v-.1.3c0 .1-.1.2-.1.2h-.2c-.1 0-.1-.1-.2-.1 0 .2 0 .4-.1.6 0 .1-.1.1-.2.2 0-.1.1-.2.1-.4v-.7c.1-.1.2-.2.2-.3 0 .2 0 .4.1.5 0 .1.1.1.2.1s.1-.1.1-.2c-.2 0-.3-.1-.3-.3 0-.1.1-.1.2-.1s.1.1.2.2v-.1c0-.1-.1-.2-.1-.3s0-.2.1-.2c.1.3.2.5.4.8 0 0 0 .1.1.1 0-.2-.1-.3-.2-.5-.2-.3-.2-.5-.2-.6zm.4 1.6c0 .1 0 .1-.1.2 0 0 .1 0 .1.1v.2c.1 0 .1-.1.2-.1 0-.2-.1-.3-.2-.4zm.2 1.1s.1-.1 0 0c.2 0 .3.1.2.2h0c0-.1 0-.3-.2-.2.1-.2 0-.1 0 0zm1.8.5h0a1.38 1.38 0 0 1 .4.3c.1.1.1.2 0 .3.1 0 .2.1.2.1v-.3c0-.1-.1-.1-.1-.2-.1-.1-.3-.2-.5-.2zm-.1.4h0c0 .2 0 .4-.1.5v.2c.1-.2.2-.3.3-.5 0-.1-.1-.2-.2-.2zm10.8-3.4c0-.1.2-.1.3-.2 0 .1-.1.1-.1.2.3.1.7.3 1 .4-.1 0-.1.1-.2.1l-.6-.3h-.3v.1c.1 0 .1-.1.2-.1s.2.1.1.1c0 .1-.1.2-.2.2v.2c0 .1-.2.1-.3 0s-.1-.2-.1-.2c-.1 0-.1 0-.1.1s0 .1-.1.2c-.1.2-.3.4-.4.6.1.1.2.1.3.2v-.6c.1 0 .2-.1.3-.1.1.2.2.3.3.4.1 0 .2.1.3.1l-.1.1-.6-.3c0 .2 0 .4.1.6-.1 0-.2 0-.2.1-.2-.1-.3-.2-.5-.3-.1.1-.1.3-.1.4a.76.76 0 0 0 .2.4c.1.1.2.1.3 0 0 0-.1 0-.1-.1v-.2h.1c.1 0 .2.1.1.2 0 .2-.2.3-.3.3-.2 0-.4-.1-.5-.2s-.1-.2-.2-.4l-.3.3.8.8h-.2l-.5-.5s-.1-.1-.2-.1-.1.1-.2.1c.2.3.4.6.7.8h-.2c-.1-.1-.2-.3-.4-.5h-.2s0 .1.1.1c0 0 0 .1-.1.1-.1-.1-.3-.1-.4.1 0 .1 0 .2.1.2v-.1c0-.1.1-.2.2-.2 0 0 .1 0 .1.1v.2c-.1.1-.2.1-.3.1-.2 0-.3-.3-.2-.4s.2-.2.3-.2c0-.1 0-.1.1-.2h.2s0-.1-.1-.1c-.2.2-.5.4-.7.6h-.2c.2-.2.4-.3.6-.5.1-.1.3-.2.4-.3.1 0 .1-.1.2-.1-.1-.1-.2-.1-.2-.2h.1.1c.1-.1.2-.2.2-.3.1-.1.2-.2.2-.3.1 0 .1-.1.1-.2.1-.2.2-.4.4-.5 0-.1.1-.2.2-.2 0-.1.1-.2.1-.2 0-.1.1-.1.2-.1v-.3c.1-.1.2-.1.3-.1-.1 0-.3-.1-.4-.1.3.2.4.1.5.2z"/><path d="M120.1 54.7c.1 0 .3 0 .3.1v.3c0 .1-.2.1-.3.1s-.1-.1-.2-.2c0-.1 0-.3.2-.3zm.1.1s-.1.1 0 .2h.1s.1-.1.1-.2c-.1.1-.2 0-.2 0z"/><path d="M119.3 54.8h0c.1 0 .1.1.2.1h.1c.1 0 .1 0 .2.1-.1 0-.1.1-.2.1.2.3.3.7.5 1-.1 0-.2 0-.2-.1-.1-.2-.2-.4-.3-.7 0 0 0-.1-.1-.1h-.2c.1.3.3.7.4 1-.1 0-.2-.1-.2-.1-.2-.1-.4-.2-.6-.1-.1 0-.2-.1-.2-.1.2-.2.3-.4.6-.6h0c-.2.1-.5.2-.7.2-.1 0-.1 0-.2-.1.3-.1.7-.2 1-.4.1 0 .2-.1.3 0-.3 0-.3-.1-.4-.2zm-.4 1c.1 0 .3 0 .4.1 0-.1-.1-.3-.1-.4l-.3.3zm-5.3-.6l.9.3c.2.1.4.1.6.1.1 0 .3 0 .3.1v-.3s.1 0 .1.1v.1h.1l.2.2h-.2c0 .4-.1.7-.1 1.1l-.2-.2c0-.2.1-.5.1-.8 0-.2-.3-.3-.4-.1v.4.3c-.1.1-.2.2-.3.2h-.2v-.1c.1 0 .1 0 .2-.1 0 0 .1-.1 0-.2v-.4c0-.1.1-.1.2-.2h-.2c-.1 0-.1 0-.2-.1l-.3 1h0c-.1-.1-.1-.3-.2-.4s-.2-.2-.4-.3c0-.1-.1-.2-.1-.3.3-.1.5-.1.8-.1 0 0-.1 0-.1-.1-.2-.1-.4-.1-.6-.2.1.1.1 0 0 0zm.4.7l.3.3c0-.1.1-.3.1-.4-.1 0-.2 0-.4.1zm6.1-.6c.3 0 .6.1.9.2 0 0 0 .1.1.1-.3 0-.6-.1-.9-.1 0-.1-.1-.2-.1-.2zm-3.8.4c.5 0 1-.1 1.4-.2.1 0 .1.1.2.1h-.5-.1c.2 0 .3.1.4.2s.1.2 0 .3-.2.1-.3 0v-.2h.2c-.1-.1-.2-.2-.3-.2 0 .3.1.6.1.9 0 0-.1 0-.1-.1-.1-.2-.4-.4-.6-.4l-.2-.2c.2-.2.4-.3.6-.4h0c-.2 0-.4 0-.7.1 0 .2-.1.2-.1.1zm.6.5c.1 0 .2.1.4.2V56c-.2.1-.3.1-.4.2z"/><path d="M116 55.7c.1 0 .3 0 .4.2 0 .2-.1.3-.3.3-.1 0-.3-.1-.3-.2s.1-.2.2-.3zm.1.2h0l-.1.2s.1 0 .1-.2c.1.1.1 0 0 0h0z"/><path d="M115.9 56.2c.2.1.3.3.5.4l.2.2v.2c-.1-.1-.2-.2-.3-.2-.1-.1-.3-.2-.4-.3v-.3z"/></g><g fill="#231f20"><path d="M116.9 57.9h.2c.1.2.3.3.4.5v-.5h.2v.7h-.2c-.2-.2-.3-.4-.4-.5v.5h-.2v-.7zm1.2 0h.2v.3a.76.76 0 0 1 .4-.2h.3c-.2.1-.3.2-.5.2.1.2.3.3.4.5h-.3c-.1-.1-.2-.2-.3-.4 0 0-.1 0-.1.1v.2h-.2c.1-.2.1-.5.1-.7z"/><path d="M116.1 57.9h.3c.2.2.3.5.5.7h-.2s0-.1-.1-.1h-.4s0 .1-.1.2h-.2c0-.3.1-.5.2-.8zm.1.2c0 .1-.1.2-.1.3h.3c0-.1-.1-.2-.2-.3h0zm-1.5.1c.2 0 .4-.1.6-.1.1 0 .2 0 .3.1 0 .1 0 .1-.1.2.1 0 .2 0 .2.1v.2c-.1.1-.2.1-.3.1-.2 0-.3.1-.5.1-.1-.3-.2-.5-.2-.7zm.2.1v.2c.1 0 .2 0 .4-.1.1 0 0-.1 0-.1-.1-.1-.2-.1-.4 0zm.1.2v.2c.1 0 .2 0 .3-.1l.1-.1s-.1-.1-.1 0h-.3z"/></g><g fill="#fff"><path d="M116 47.9c.1 0 .2.1.2.1.1.1.2.1.4.2-.1 0-.3.1-.4 0-.1 0-.2-.1-.2-.3z"/><path d="M116.7 48.7s0-.1 0 0c.2.1.1.3.2.5s.2.3.3.5h.1v.2h-.2v.2c0 .2.1.4.1.6 0 .1 0 .2-.1.3h0v-.4-.3h-.1v.7c0 .1-.1.2-.2.3-.1 0-.1 0-.2-.1h-.2c-.1 0-.1-.1-.1-.2h-.1s0 .1-.1.2h-.1v-.6-.1h0v.4s0 .1-.1.1h-.2s0-.1-.1-.1v.1h-.5c-.1 0-.2.2-.2.3s.1.1.2.1c.2 0 .5 0 .7-.1h.1c0 .1-.1.1-.2.2-.1 0-.3.1-.4.1s-.2 0-.3-.1c-.1 0-.1-.1-.1-.2 0-.2.1-.3.2-.4 0-.1-.1-.2-.2-.2 0-.1.1-.2.2-.2s.3 0 .4.1c0 .1.1.2.2.2 0-.1.1-.1.1-.1s.1 0 .1.1h.1v-.1-.5c0-.1-.1-.1-.1-.1-.1-.1-.1-.2-.1-.3s0-.1.1-.2h.1v.4s0 .1.1.1v.1h.1v-.1-.6l-.1-.1V49c0-.1 0-.3.2-.3v.6c0 .1.1.1.1.2 0 0 0 .1-.1.1v1.1c0 .1.1.1.1.1.1 0 0-.2.2-.3h.1v.5s.1.1.1 0v-1.8-.3s0-.1 0 0c0 0 .1 0 .2.1-.3-.1-.3-.2-.3-.3zm0 .5v1.7.1s.1 0 .1-.1v-.5-.4c0-.1.1 0 .1-.1.1-.1 0-.2 0-.3 0 0-.1 0-.1-.1s0-.2-.1-.3h0zm-1.9 1.7v-.2c-.1 0-.1.2 0 .2z"/><path d="M117.4 49.6c0 .1 0 .1.1.2.1.4.1.8.1 1.2h.4v-.1c0-.1-.1-.2-.2-.2.2 0 .3 0 .4.1.1 0 .1.1.2.2-.2.1-.5.1-.7.1 0 .2 0 .4-.2.5-.1.1-.3.1-.5.1-.1 0-.2 0-.3-.1v-.2c.1.1.3.1.4.1s.2 0 .3-.1.1-.2.1-.3c0-.4-.1-.7-.1-1.1v-.2-.1c-.1 0 0-.1 0-.1zm.8.5c.1-.1.2-.2.2-.3.1.3.2.7 0 1v-.3s0-.3-.2-.4zm.4.9c0-.1.2-.3.3-.2s.1.2.1.3a.55.55 0 0 1-.3.5c-.2.2-.5.2-.8.2h-.1v-.1h.3c.2 0 .3-.1.4-.1s.1-.1.2-.2c0-.2-.1-.3-.1-.4zm.1-.1c0 .1.1.1.2.1v-.2c-.2 0-.2.1-.2.1zm-3.7.2h0c.1 0 .1.1 0 0-.1.2-.1.1 0 0zm-.3.1h0c.1.1.1.1 0 0-.1.1-.1 0 0 0zm1.3.3l.2-.2c.1.1.1.2.1.3v.6h-.1V52c-.1 0-.2 0-.3-.1s0-.2 0-.2c0-.1.1-.1.1-.2zm-1.6.3h0c.1 0 .2.1.2.2v.4c-.1 0-.2-.1-.2-.1v-.5z"/><path d="M118.5 51.8h.2c.1.1.1.2.1.3 0 .2-.2.4-.3.6-.2.1-.4.2-.7.1 0-.1 0-.1.1-.2s.2 0 .3-.1a.76.76 0 0 0 .4-.2v-.2h-.2s0-.1.1-.3c-.1.2-.1.1 0 0zm-1.8.1h0c.2 0 .3.1.4.1l.1.1-.1.1c-.2 0-.3 0-.4.1s-.1.2-.1.3v1h-.1c0-.1-.1-.2-.1-.3v-.7-.3l.1-.1c.1 0 .1-.1.2-.3.1.1 0 .1 0 0zm-1.3 0c.1 0 .2.1.2.2s0 .1-.1.1c-.1.1-.2.1-.3.2-.1.2-.4.4-.7.4 0 0-.1 0-.1-.1 0 0 0-.1.1-.1.1-.1.3-.1.4-.2 0 0 .1-.1 0-.1-.1-.1-.2-.1-.2-.2s0-.2.1-.2.2.1.3.2c.2 0 .3-.1.3-.2z"/><path d="M117.4 52h.3c.1 0 .3 0 .4.1l.1.1-.1.1-.6.3h-.2c-.1 0-.1-.1 0-.2s.2-.2.3-.2c0 0-.1 0-.2-.2zm-1.4.3h.2v.1c-.2.3-.4.6-.7.7-.2.1-.4.2-.6.1v-.1c.1 0 .2 0 .2-.1.2 0 .3-.1.5-.2 0 0 .1-.1.1-.2l-.1-.1v-.2c.2.2.3.1.4 0z"/><path d="M116.8 52.9c.1.1.1.2.3.2.1 0 .1 0 .2-.1 0 .1 0 .2-.1.3 0 .1-.2 0-.2 0-.1 0-.2-.1-.2-.1-.1-.2 0-.3 0-.3zm8.9-2.5c.3.1.6.2.8.2v.2c-.1 0-.2-.1-.4-.1 0 .1-.1.2-.1.4.1 0 .2.1.4.1v.2c-.3-.1-.6-.2-.8-.2V51c.1 0 .2.1.3.1 0-.1.1-.2.1-.4-.1 0-.2-.1-.3-.1v-.2z"/><path d="M125.5 51.3h.2c0 .1 0 .1-.1.2-.1 0-.2.1-.2.2s.1.1.1.1c.1-.1.2-.3.3-.4s.3 0 .4.1v.4c0 .1-.1.2-.2.2h-.2c0-.1 0-.1.1-.2h.1c0-.1.1-.2.1-.2 0-.1-.1-.1-.1-.1-.1 0-.1.1-.1.2s-.1.2-.2.2-.3 0-.3-.2v-.3c0-.1 0-.1.1-.2zm-.3.7h0c0 .3 0 .4-.1.6 0 0 .1 0 .2.1.1-.1.1-.3.2-.4 0 0 .1 0 .1.1-.1.1-.1.3-.2.4.1 0 .1.1.2.1.1-.2.2-.3.2-.5 0 0 .1 0 .1.1-.1.2-.2.4-.3.7-.3-.1-.5-.2-.8-.4l.4-.8zm-17.7 1.3c.2-.1.5-.3.8-.4 0 0 .1.1.1.2-.2.1-.5.3-.8.4-.1-.1-.1-.2-.1-.2z"/><path d="M124.6 53.1c0-.1.1-.2.2-.2s.3 0 .4.1.2.2.2.3 0 .2-.1.3c0 .1-.1.2-.2.3-.2-.1-.5-.3-.8-.4.2-.2.3-.3.3-.4zm.2 0c-.1.1-.1.2-.2.2.2.1.3.2.5.3 0-.1.1-.2.1-.2 0-.1-.1-.2-.2-.3 0 0-.1-.1-.2 0zm-16.7.3c0-.1.1-.2.2-.2s.2.1.2.2c.1.1.1.2.1.3s0 .1-.1.2c0 0-.1-.1-.1-.2.1-.1 0-.2-.1-.3h-.2c.1.2.2.3.2.5s-.2.3-.4.2c-.1-.1-.2-.2-.3-.4 0-.1 0-.2.1-.3 0 0 .1.1.1.2 0 0-.1.1 0 .2 0 .1.1.2.1.2s.1 0 .1-.1c.2-.2.1-.3.1-.5z"/><path d="M124.1 54c0-.1.1-.1.1-.2.3.1.6.1.9.2 0 .1-.1.1-.1.2h-.2c-.1.1-.1.2-.2.3 0 0 .1.1.1.2 0 0-.1.1-.1.2l-.5-.9zm.2 0c.1.1.1.2.2.3 0-.1.1-.1.1-.2-.1-.1-.2-.1-.3-.1zm-16.2.4c.2-.2.5-.3.7-.5 0 0 .1.1.1.2-.2.1-.4.3-.6.4.1.1.2.3.3.4l-.1.1c-.1-.3-.2-.5-.4-.6zm15.3.4s.1-.1.1-.2c.2.2.4.3.6.5.1-.1.2-.2.3-.4l.1.1c-.1.2-.3.4-.4.5a3.04 3.04 0 0 0-.7-.5z"/><path d="M108.6 54.9l.9-.3.2.2c-.1.3-.3.6-.4.8 0 0-.1-.1-.1-.2 0 0 .1-.1.1-.2-.1-.1-.2-.2-.2-.3-.1 0-.1 0-.2.1-.2.1-.3 0-.3-.1zm.4.1c0 .1.1.1.2.2 0-.1.1-.2.2-.3-.1 0-.2 0-.4.1zm14 .2c.1-.1.2-.2.3-.2h.2l-.1.1c-.1-.1-.3 0-.4.1.1.2.1.3.2.4s.2.1.3.1.2-.1.2-.3v-.1l-.2.2-.1-.1.3-.3.3.3-.1.1h-.1c0 .3-.3.5-.6.4-.2 0-.3-.2-.3-.3-.1-.1 0-.3.1-.4z"/><path d="M109.3 55.8l.6-.6.2.2-.3.6c.2-.1.4-.3.6-.4l.2.2-.6.6-.1-.1c.2-.2.3-.4.5-.5-.2.1-.4.3-.6.4l-.1-.1c.1-.2.2-.4.4-.7-.2.2-.3.4-.5.5-.2 0-.3-.1-.3-.1zm13.2-.1h0c.3.1.5.3.7.6 0 0-.1.1-.2.1-.2-.1-.5-.1-.7-.2.1.2.3.3.4.5l-.1.1c-.2-.2-.4-.4-.6-.7 0 0 .1-.1.2-.1.2.1.5.1.7.2-.1-.2-.3-.4-.4-.5z"/><path d="M110.1 56.5c.2-.2.4-.4.6-.7 0 0 .1.1.2.1-.2.2-.4.4-.6.7-.1 0-.1 0-.2-.1zm11.4-.1c.1 0 .1-.1.2-.1l.8.5s-.1.1-.2.1c0 0-.1-.1-.2-.1-.1.1-.2.1-.3.2v.2s-.1.1-.2.1c.1-.3 0-.6-.1-.9zm.3.1c0 .1.1.2.1.4.1 0 .1-.1.2-.1l-.3-.3z"/><path d="M121 56.8c.1 0 .2-.1.3 0 .1 0 .1.2.1.3.1 0 .3.1.3.2s-.1.2-.2.2a.76.76 0 0 1-.4.2c-.1-.2-.3-.5-.4-.8 0 0 .2-.1.3-.1zm-.2.3s.1.1.1.2c.1 0 .2-.1.3-.2.1 0 0-.2-.1-.1-.1-.1-.2 0-.3.1zm.4.1c-.1 0-.1.1-.2.1 0 .1.1.1.1.2.1 0 .2-.1.3-.2.1 0 0-.2 0-.2-.1.1-.1.1-.2.1zm-5 .3h.8.9c1 0 1.9.2 2.8.5.5.2.9.3 1.4.6-.3.3-.6.6-.8.9-.8-.3-1.7-.5-2.5-.6-1-.1-2.1-.2-3.1 0-.9.1-1.8.4-2.6.8l-.9-1.1c.4-.3.9-.5 1.4-.6.8-.3 1.7-.5 2.6-.5zm.7.4v.7h.2v-.5c.2.2.3.4.4.5h.2v-.7h-.2v.5c-.1-.2-.3-.3-.4-.5h-.2zm1.2 0c0 .2-.1.5-.1.7h.2v-.2s.1 0 .1-.1a1.38 1.38 0 0 1 .3.4h.3c-.1-.2-.3-.3-.4-.5.2-.1.3-.2.5-.2h-.3a.76.76 0 0 1-.4.2v-.3h-.2zm-2 0l-.3.8h.2s0-.1.1-.2h.4s0 .1.1.1h.2c-.2-.2-.3-.5-.5-.7h-.2zm-1.4.3c0 .2.1.5.1.7.2 0 .3-.1.5-.1.1 0 .2 0 .3-.1 0 0 .1-.1 0-.2 0-.1-.1-.1-.2-.1.1 0 .1-.1.1-.2s-.2-.1-.3-.1-.3 0-.5.1z"/><path d="M116.2 58.1h0c.1.1.1.2.2.3h-.3c.1-.1.1-.2.1-.3zm-1.3.2c.1 0 .2-.1.4-.1.1 0 .1.1 0 .1s-.2.1-.4 0h0z"/><path d="M115 58.5c.1 0 .2 0 .3-.1h.1c0 .1 0 .1-.1.1h-.3c0 .2 0 .1 0 0z"/></g></svg>