<?xml version="1.0" encoding="UTF-8"?>
<!DOCTYPE svg PUBLIC "-//W3C//DTD SVG 1.1//EN" "http://www.w3.org/Graphics/SVG/1.1/DTD/svg11.dtd">
<svg xmlns="http://www.w3.org/2000/svg" version="1.1" width="300px" height="267px"
     style="shape-rendering:geometricPrecision; text-rendering:geometricPrecision; image-rendering:optimizeQuality; fill-rule:evenodd; clip-rule:evenodd">
<g><path style="opacity:0.995" fill="#078e45" d="M 133.5,-0.5 C 143.833,-0.5 154.167,-0.5 164.5,-0.5C 214.327,9.00882 246.827,38.0088 262,86.5C 265.869,104.07 266.535,121.736 264,139.5C 265.549,133.591 266.382,127.591 266.5,121.5C 275.509,121.132 284.509,120.965 293.5,121C 296.35,122.021 298.35,123.854 299.5,126.5C 299.5,131.833 299.5,137.167 299.5,142.5C 298.119,147.953 296.119,153.286 293.5,158.5C 288.18,154.298 286.347,155.631 288,162.5C 284.667,160.5 282,157.833 280,154.5C 267.909,189.217 246.409,216.384 215.5,236C 220.16,237.995 224.494,240.495 228.5,243.5C 223.353,249.814 218.02,255.981 212.5,262C 208.716,261.972 205.049,261.139 201.5,259.5C 198.888,260.779 196.555,262.445 194.5,264.5C 193.033,263.305 191.533,263.305 190,264.5C 184.847,263.347 181.68,260.18 180.5,255C 162.37,252.545 144.37,253.211 126.5,257C 124.864,260.448 122.864,263.615 120.5,266.5C 117.833,266.5 115.167,266.5 112.5,266.5C 111.235,265.521 109.901,264.521 108.5,263.5C 106.669,264.929 104.669,265.429 102.5,265C 97.3755,258.207 91.8755,251.707 86,245.5C 85.2506,244.365 85.4173,243.365 86.5,242.5C 88.1667,241.667 89.8333,240.833 91.5,240C 55.7802,220.939 31.6135,192.106 19,153.5C 17,156.833 14.3333,159.5 11,161.5C 12.6529,154.631 10.8196,153.298 5.5,157.5C 2.87623,152.283 0.876227,146.949 -0.5,141.5C -0.5,136.167 -0.5,130.833 -0.5,125.5C 0.649863,122.854 2.64986,121.021 5.5,120C 14.1603,119.5 22.8269,119.334 31.5,119.5C 31.9518,123.163 32.4518,126.83 33,130.5C 29.4866,72.3209 53.9866,31.1542 106.5,7C 115.413,3.69181 124.413,1.19181 133.5,-0.5 Z M 209.5,206.5 C 192.211,218.705 172.878,224.705 151.5,224.5C 149.75,221.244 147.417,218.411 144.5,216C 147.215,215.125 148.548,213.292 148.5,210.5C 150.167,210.5 151.833,210.5 153.5,210.5C 151.882,211.451 150.549,212.784 149.5,214.5C 149.977,215.478 150.643,216.311 151.5,217C 155.521,217.425 158.688,219.258 161,222.5C 161.5,222.167 162,221.833 162.5,221.5C 161.754,220.264 161.421,218.93 161.5,217.5C 168.729,216.504 169.396,213.671 163.5,209C 164.938,208.781 166.271,208.281 167.5,207.5C 166.975,206.808 166.308,206.308 165.5,206C 157.587,206.176 149.753,207.009 142,208.5C 139.991,206.99 138.158,205.323 136.5,203.5C 136.331,204.397 135.998,205.397 135.5,206.5C 128.257,204.808 121.09,202.808 114,200.5C 112.274,201.648 112.441,202.815 114.5,204C 116.5,204.667 118.5,205.333 120.5,206C 110.727,206.16 110.061,208.994 118.5,214.5C 119.123,216.711 120.123,218.711 121.5,220.5C 122.182,219.757 122.849,219.091 123.5,218.5C 123.418,220.252 124.251,221.252 126,221.5C 127.982,221.01 129.649,220.01 131,218.5C 131.498,215.518 131.665,212.518 131.5,209.5C 132.833,209.5 134.167,209.5 135.5,209.5C 134.537,213.87 134.537,218.203 135.5,222.5C 135.833,222.833 136.167,223.167 136.5,223.5C 136.833,222.833 137.167,222.167 137.5,221.5C 138.01,217.408 138.843,213.408 140,209.5C 141.659,212.43 141.992,215.43 141,218.5C 144.364,220.255 147.198,222.588 149.5,225.5C 128.399,225.397 109.066,219.73 91.5,208.5C 92.4959,208.586 93.3292,208.252 94,207.5C 95.944,203.89 98.2774,200.557 101,197.5C 101.5,198 102,198.5 102.5,199C 99.2984,202.567 97.6317,206.734 97.5,211.5C 98.5,211.5 99.5,211.5 100.5,211.5C 101.28,207.873 102.78,204.54 105,201.5C 106.533,201.056 108.033,200.723 109.5,200.5C 108.899,194.124 105.899,189.29 100.5,186C 97.1658,184.788 94.6658,185.621 93,188.5C 91.8372,186.715 91.1705,184.715 91,182.5C 90.3109,183.357 89.4776,184.023 88.5,184.5C 84.8765,180.375 81.0432,176.375 77,172.5C 74.2903,168.247 71.457,164.08 68.5,160C 71.0905,156.22 70.7572,152.553 67.5,149C 69.4054,148.174 69.7388,147.007 68.5,145.5C 67.5,144.167 66.5,144.167 65.5,145.5C 64.7189,146.729 64.2189,148.062 64,149.5C 63.7508,148.376 63.2508,147.376 62.5,146.5C 60.4038,147.62 60.0705,149.12 61.5,151C 60.2341,151.309 59.0674,151.809 58,152.5C 57.6667,151.833 57.3333,151.167 57,150.5C 56,151.5 55,152.5 54,153.5C 53.7773,158.25 53.2773,162.916 52.5,167.5C 34.0254,132.72 33.8587,97.7204 52,62.5C 79.1942,18.2995 118.694,-0.200537 170.5,7C 208.207,15.4408 235.041,37.2742 251,72.5C 268.574,122.705 257.741,165.538 218.5,201C 215.778,203.358 212.778,205.191 209.5,206.5 Z M 185.5,21.5 C 186.773,24.1957 186.439,26.8624 184.5,29.5C 183.205,28.9017 181.872,28.4017 180.5,28C 184.251,27.4176 185.918,25.2509 185.5,21.5 Z M 174.5,25.5 C 172.972,25.4827 172.472,24.816 173,23.5C 173.717,24.0442 174.217,24.7109 174.5,25.5 Z M 151.5,152.5 C 153.129,151.375 154.629,150.041 156,148.5C 156.718,149.451 157.551,149.617 158.5,149C 159.227,147.601 159.727,146.101 160,144.5C 160.498,147.482 160.665,150.482 160.5,153.5C 158.801,153.62 157.135,153.954 155.5,154.5C 153.829,154.332 152.496,153.665 151.5,152.5 Z M 158.5,134.5 C 159.622,136.288 159.789,138.288 159,140.5C 158.091,138.342 157.925,136.342 158.5,134.5 Z M 152.5,129.5 C 156.095,130.905 156.262,132.572 153,134.5C 152.506,132.866 152.34,131.199 152.5,129.5 Z M 125.5,149.5 C 126.601,148.402 127.934,148.235 129.5,149C 128.436,150.511 127.103,150.677 125.5,149.5 Z M 78.5,185.5 C 77.2073,187.296 75.7073,188.963 74,190.5C 73.51,191.793 73.3433,193.127 73.5,194.5C 65.3439,187.345 58.6772,179.012 53.5,169.5C 55.8524,167.822 57.1857,165.489 57.5,162.5C 60.8757,163.901 63.3757,162.901 65,159.5C 65.9862,161.778 66.8195,164.111 67.5,166.5C 66.635,167.583 65.635,167.749 64.5,167C 65.6039,165.869 65.2705,165.035 63.5,164.5C 60.2972,166.529 59.9638,168.862 62.5,171.5C 64.5352,172.041 66.5352,172.708 68.5,173.5C 66.8067,175.027 64.9734,176.36 63,177.5C 62.2195,178.944 62.3861,180.277 63.5,181.5C 66.864,178.971 70.364,176.637 74,174.5C 74.5,175 75,175.5 75.5,176C 70.2485,177.594 69.2485,180.594 72.5,185C 74.4727,185.495 76.4727,185.662 78.5,185.5 Z M 225.5,167.5 C 226.782,168.708 226.782,170.042 225.5,171.5C 224.708,170.3 224.708,168.967 225.5,167.5 Z M 246.5,179.5 C 246.573,181.027 245.906,182.027 244.5,182.5C 244.427,180.973 245.094,179.973 246.5,179.5 Z M 244.5,182.5 C 244.573,184.027 243.906,185.027 242.5,185.5C 242.427,183.973 243.094,182.973 244.5,182.5 Z M 91.5,194.5 C 89.0876,194.244 87.4209,195.244 86.5,197.5C 88.0699,199.947 90.0699,201.947 92.5,203.5C 91.6906,205.071 91.3573,206.738 91.5,208.5C 84.6364,204.973 78.6364,200.306 73.5,194.5C 77.4188,191.925 81.0855,188.925 84.5,185.5C 85.568,187.187 85.4014,188.854 84,190.5C 82.1667,192.333 80.3333,194.167 78.5,196C 79.0712,197.205 79.7379,198.372 80.5,199.5C 83.5209,196.314 86.3542,192.98 89,189.5C 90.0945,191.078 90.9278,192.745 91.5,194.5 Z M 241.5,186.5 C 240.92,188.749 239.587,190.415 237.5,191.5C 238.08,189.251 239.413,187.585 241.5,186.5 Z M 60.5,190.5 C 61.9063,190.973 62.573,191.973 62.5,193.5C 61.0937,193.027 60.427,192.027 60.5,190.5 Z M 237.5,191.5 C 224.412,208.903 207.412,220.903 186.5,227.5C 185.5,227.167 184.5,226.833 183.5,226.5C 204.486,219.346 222.486,207.68 237.5,191.5 Z M 95.5,198.5 C 95.238,197.022 95.5713,195.689 96.5,194.5C 97.4212,196.031 97.0878,197.365 95.5,198.5 Z M 71.5,202.5 C 86.2803,214.391 102.947,222.891 121.5,228C 119.386,229.518 117.053,229.851 114.5,229C 97.8568,223.69 83.5234,214.856 71.5,202.5 Z M 123.5,218.5 C 123.885,214.675 124.885,211.009 126.5,207.5C 127.308,207.808 127.975,208.308 128.5,209C 127.718,211.74 127.218,214.574 127,217.5C 125.989,218.337 124.822,218.67 123.5,218.5 Z M 182.5,207.5 C 183.289,207.783 183.956,208.283 184.5,209C 183.184,209.528 182.517,209.028 182.5,207.5 Z M 119.5,211.5 C 120.077,210.227 120.743,210.227 121.5,211.5C 121.03,212.463 120.363,212.463 119.5,211.5 Z"/></g>
<g><path style="opacity:0.67" fill="#000200" d="M 138.5,18.5 C 140.117,19.038 141.784,19.3713 143.5,19.5C 143.67,20.8221 143.337,21.9887 142.5,23C 145.195,23.2543 147.695,23.421 150,23.5C 149.49,21.6199 149.657,19.7866 150.5,18C 149.552,17.5172 148.552,17.3505 147.5,17.5C 147.484,13.7261 149.15,12.7261 152.5,14.5C 152.711,17.3747 153.377,20.3747 154.5,23.5C 155.873,23.6567 157.207,23.49 158.5,23C 157,20.8333 157.5,19.3333 160,18.5C 161.587,19.3367 162.42,20.6701 162.5,22.5C 161.954,24.1347 161.62,25.8014 161.5,27.5C 159.058,27.1192 158.391,27.7859 159.5,29.5C 157.749,31.7052 155.749,31.7052 153.5,29.5C 153.709,28.914 154.043,28.414 154.5,28C 149.115,27.7861 143.781,27.2861 138.5,26.5C 134.564,29.0507 130.731,29.0507 127,26.5C 126.215,28.286 125.049,29.786 123.5,31C 117.5,33.3333 111.5,35.6667 105.5,38C 106.38,39.3561 106.714,40.8561 106.5,42.5C 105.5,42.5 104.5,42.5 103.5,42.5C 103.5,43.5 103.5,44.5 103.5,45.5C 102.167,45.5 100.833,45.5 99.5,45.5C 99.5,44.5 99.5,43.5 99.5,42.5C 96.4392,43.7221 93.7725,45.5554 91.5,48C 92.4637,50.6467 91.9637,53.1467 90,55.5C 87.8333,57.6667 85.6667,59.8333 83.5,62C 80.7019,62.5608 78.8686,61.3941 78,58.5C 77.5983,57.1279 77.0983,55.7946 76.5,54.5C 77.325,53.6143 78.325,53.281 79.5,53.5C 79.3832,55.4835 80.0499,57.1502 81.5,58.5C 85.0768,56.0907 87.7435,52.924 89.5,49C 86.1785,48.0717 84.5119,45.9051 84.5,42.5C 86.5824,42.472 88.4157,43.1387 90,44.5C 91.827,42.7601 91.6603,41.0935 89.5,39.5C 88.2638,40.2458 86.9305,40.5792 85.5,40.5C 84.9862,38.4884 84.8195,36.4884 85,34.5C 87.3332,33.123 89.8332,32.123 92.5,31.5C 93.6322,33.9397 92.9655,35.9397 90.5,37.5C 90.9569,38.2975 91.6236,38.6309 92.5,38.5C 93.9897,34.7691 95.823,34.7691 98,38.5C 98.9025,37.2986 100.069,36.4652 101.5,36C 98.9613,34.9008 98.2946,33.2342 99.5,31C 101.888,30.1349 103.388,30.9683 104,33.5C 106.74,32.856 109.24,31.6893 111.5,30C 108.927,29.2185 106.927,27.7185 105.5,25.5C 107.484,24.2941 109.484,24.2941 111.5,25.5C 113.234,27.234 114.568,29.234 115.5,31.5C 126.681,24.5272 125.681,21.1938 112.5,21.5C 111.269,20.3493 111.269,19.1827 112.5,18C 116.69,17.1903 120.69,17.6903 124.5,19.5C 122.888,17.0369 123.388,15.0369 126,13.5C 127.757,16.6843 129.257,20.0176 130.5,23.5C 131.325,24.3857 132.325,24.719 133.5,24.5C 133.058,20.6157 134.725,18.6157 138.5,18.5 Z"/></g>
<g><path style="opacity:0.585" fill="#030a05" d="M 138.5,18.5 C 132.375,17.9905 132.042,16.6572 137.5,14.5C 138.5,14.8333 139.5,15.1667 140.5,15.5C 139.807,16.5178 139.141,17.5178 138.5,18.5 Z"/></g>
<g><path style="opacity:0.653" fill="#000201" d="M 198.5,41.5 C 196.34,44.1445 194.34,43.8111 192.5,40.5C 193.376,39.7492 194.376,39.2492 195.5,39C 187.067,34.7457 178.4,31.079 169.5,28C 168.307,24.5457 169.474,22.0457 173,20.5C 174.062,21.8993 175.395,22.8993 177,23.5C 180.765,19.9488 185.265,18.4488 190.5,19C 191.357,19.6891 192.023,20.5224 192.5,21.5C 190.681,24.4573 189.347,27.624 188.5,31C 190.081,31.7065 191.581,32.5399 193,33.5C 193.492,32.451 193.326,31.451 192.5,30.5C 194.922,28.9522 194.922,27.2855 192.5,25.5C 194.952,22.7156 196.952,23.049 198.5,26.5C 197.833,27.5 197.167,28.5 196.5,29.5C 196.826,31.5102 197.159,33.5102 197.5,35.5C 198.167,35.8333 198.833,36.1667 199.5,36.5C 199.669,35.6034 200.002,34.6034 200.5,33.5C 201.72,32.2889 202.887,32.2889 204,33.5C 204.31,37.6836 202.476,40.3502 198.5,41.5 Z M 185.5,21.5 C 185.918,25.2509 184.251,27.4176 180.5,28C 181.872,28.4017 183.205,28.9017 184.5,29.5C 186.439,26.8624 186.773,24.1957 185.5,21.5 Z M 174.5,25.5 C 174.217,24.7109 173.717,24.0442 173,23.5C 172.472,24.816 172.972,25.4827 174.5,25.5 Z"/></g>
<g><path style="opacity:1" fill="#008c44" d="M 145.5,35.5 C 186.771,36.2861 214.604,55.9528 229,94.5C 236.683,123.083 231.683,149.083 214,172.5C 207.523,179.314 200.19,184.981 192,189.5C 190.912,158.51 190.245,127.51 190,96.5C 189.474,92.476 187.307,89.8094 183.5,88.5C 182.932,82.8925 181.432,77.5592 179,72.5C 167.408,64.5764 157.408,54.9097 149,43.5C 141.297,54.534 131.63,63.534 120,70.5C 117.232,76.1554 115.898,82.1554 116,88.5C 113.214,90.8422 111.547,93.8422 111,97.5C 110.627,128.173 109.96,158.84 109,189.5C 63.5896,155.53 55.9229,114.53 86,66.5C 101.371,47.5646 121.205,37.2312 145.5,35.5 Z M 151.5,152.5 C 152.496,153.665 153.829,154.332 155.5,154.5C 157.135,153.954 158.801,153.62 160.5,153.5C 160.665,150.482 160.498,147.482 160,144.5C 159.727,146.101 159.227,147.601 158.5,149C 157.551,149.617 156.718,149.451 156,148.5C 154.629,150.041 153.129,151.375 151.5,152.5 Z M 158.5,134.5 C 157.925,136.342 158.091,138.342 159,140.5C 159.789,138.288 159.622,136.288 158.5,134.5 Z M 152.5,129.5 C 152.34,131.199 152.506,132.866 153,134.5C 156.262,132.572 156.095,130.905 152.5,129.5 Z M 125.5,149.5 C 127.103,150.677 128.436,150.511 129.5,149C 127.934,148.235 126.601,148.402 125.5,149.5 Z"/></g>
<g><path style="opacity:0.696" fill="#000201" d="M 242.5,107.5 C 245.076,107.722 245.91,109.055 245,111.5C 242.619,112.435 240.119,112.768 237.5,112.5C 237.561,104.256 236.227,96.2563 233.5,88.5C 233.968,86.8662 234.968,85.6995 236.5,85C 234.376,83.8783 232.543,82.3783 231,80.5C 227.767,75.5794 225.434,70.2461 224,64.5C 222.167,62.8333 220.333,61.1667 218.5,59.5C 216.425,60.7615 214.425,60.5948 212.5,59C 208.841,56.1845 206.174,52.6845 204.5,48.5C 205.652,46.3306 207.486,44.9973 210,44.5C 211.28,44.6135 212.113,45.2801 212.5,46.5C 211.311,47.4287 209.978,47.762 208.5,47.5C 209.091,52.3446 211.257,53.6779 215,51.5C 219.1,53.2652 222.266,56.0986 224.5,60C 228.74,60.5928 231.24,62.7595 232,66.5C 231.426,68.492 230.259,69.992 228.5,71C 230.833,74 233.167,77 235.5,80C 236.744,80.4561 237.577,79.9561 238,78.5C 238.602,75.3378 238.102,72.3378 236.5,69.5C 237.058,65.6476 238.558,64.9809 241,67.5C 243.483,72.7214 242.983,77.5547 239.5,82C 241.582,81.0677 243.915,80.5677 246.5,80.5C 246.649,81.552 246.483,82.552 246,83.5C 242.526,84.647 240.026,86.8137 238.5,90C 238.807,93.1005 240.474,95.1005 243.5,96C 240.959,97.8484 239.959,100.348 240.5,103.5C 244.563,103.616 245.23,104.949 242.5,107.5 Z"/></g>
<g><path style="opacity:0.695" fill="#000100" d="M 57.5,109.5 C 56.7611,109.369 56.0944,109.536 55.5,110C 54.624,111.586 53.624,113.086 52.5,114.5C 51.0981,114.135 50.0981,113.301 49.5,112C 51.1152,107.864 54.1152,105.697 58.5,105.5C 58.2606,103.533 58.5939,101.699 59.5,100C 57.1384,100.932 54.9718,100.432 53,98.5C 53.9075,101.32 53.4075,103.987 51.5,106.5C 50.1667,105.833 49.1667,104.833 48.5,103.5C 49.8333,101.833 49.8333,100.167 48.5,98.5C 49.7641,92.4918 51.5975,92.1585 54,97.5C 55.7889,95.771 57.9556,95.1043 60.5,95.5C 60.4336,92.0385 59.7669,88.7051 58.5,85.5C 59.3432,82.552 61.3432,80.7186 64.5,80C 65.1667,78.6667 65.8333,77.3333 66.5,76C 65.5509,75.3828 64.7175,75.5494 64,76.5C 63.044,75.4214 62.2106,74.2547 61.5,73C 63.6234,71.8063 65.9568,71.1397 68.5,71C 69.1667,70.3333 69.8333,69.6667 70.5,69C 67.1706,67.4231 63.8372,66.7564 60.5,67C 59.2558,64.0118 60.2558,61.8452 63.5,60.5C 67.1824,63.4564 71.1824,65.9564 75.5,68C 72.3198,70.683 71.6531,73.5164 73.5,76.5C 72.5697,78.1047 72.5697,79.6047 73.5,81C 72.3816,82.0736 71.3816,83.2402 70.5,84.5C 69.8333,83.8333 69.1667,83.1667 68.5,82.5C 67.5896,84.6549 66.4229,86.6549 65,88.5C 63.4633,98.831 61.9633,109.164 60.5,119.5C 59.0379,120.471 57.7046,120.138 56.5,118.5C 57.4066,115.579 57.7399,112.579 57.5,109.5 Z"/></g>
<g><path style="opacity:0.982" fill="#00a44f" d="M 142.5,107.5 C 145.921,108.378 148.921,110.044 151.5,112.5C 148.709,114.832 146.043,114.499 143.5,111.5C 142.754,110.264 142.421,108.93 142.5,107.5 Z"/></g>
<g><path style="opacity:0.701" fill="#000201" d="M 248.5,113.5 C 251.297,113.967 252.631,115.633 252.5,118.5C 249.09,118.782 245.757,119.449 242.5,120.5C 240.246,119.876 238.579,118.543 237.5,116.5C 241.408,115.905 245.074,114.905 248.5,113.5 Z"/></g>
<g><path style="opacity:0.705" fill="#000100" d="M 54.5,124.5 C 56.2167,126.801 58.55,128.468 61.5,129.5C 59.467,131.452 59.1337,133.618 60.5,136C 57.8071,135.498 55.1404,135.665 52.5,136.5C 51.8681,133.97 50.8681,131.637 49.5,129.5C 52.379,128.92 54.0457,127.253 54.5,124.5 Z"/></g>
<g><path style="opacity:0.708" fill="#010301" d="M 244.5,125.5 C 246.134,126.207 247.468,127.373 248.5,129C 252.927,129 253.427,130.167 250,132.5C 250.046,134.313 249.88,135.979 249.5,137.5C 246.866,136.484 244.2,136.484 241.5,137.5C 241.33,136.178 241.663,135.011 242.5,134C 238.219,131.285 238.552,129.451 243.5,128.5C 244.127,127.583 244.461,126.583 244.5,125.5 Z"/></g>
<g><path style="opacity:1" fill="#f1f8f4" d="M 5.5,126.5 C 9.58523,126.925 11.5852,129.258 11.5,133.5C 11.7835,137.532 10.2835,140.532 7,142.5C 1.67399,137.699 1.17399,132.366 5.5,126.5 Z"/></g>
<g><path style="opacity:1" fill="#f2f9f5" d="M 289.5,127.5 C 292.833,127.027 295,128.36 296,131.5C 296.652,134.594 296.318,137.594 295,140.5C 293.582,142.363 291.749,142.863 289.5,142C 286.869,137.139 286.869,132.306 289.5,127.5 Z"/></g>
<g><path style="opacity:0.688" fill="#000100" d="M 91.5,208.5 C 91.3573,206.738 91.6906,205.071 92.5,203.5C 90.0699,201.947 88.0699,199.947 86.5,197.5C 87.4209,195.244 89.0876,194.244 91.5,194.5C 90.9278,192.745 90.0945,191.078 89,189.5C 86.3542,192.98 83.5209,196.314 80.5,199.5C 79.7379,198.372 79.0712,197.205 78.5,196C 80.3333,194.167 82.1667,192.333 84,190.5C 85.4014,188.854 85.568,187.187 84.5,185.5C 81.0855,188.925 77.4188,191.925 73.5,194.5C 73.3433,193.127 73.51,191.793 74,190.5C 75.7073,188.963 77.2073,187.296 78.5,185.5C 76.4727,185.662 74.4727,185.495 72.5,185C 69.2485,180.594 70.2485,177.594 75.5,176C 75,175.5 74.5,175 74,174.5C 70.364,176.637 66.864,178.971 63.5,181.5C 62.3861,180.277 62.2195,178.944 63,177.5C 64.9734,176.36 66.8067,175.027 68.5,173.5C 66.5352,172.708 64.5352,172.041 62.5,171.5C 59.9638,168.862 60.2972,166.529 63.5,164.5C 65.2705,165.035 65.6039,165.869 64.5,167C 65.635,167.749 66.635,167.583 67.5,166.5C 66.8195,164.111 65.9862,161.778 65,159.5C 63.3757,162.901 60.8757,163.901 57.5,162.5C 57.1857,165.489 55.8524,167.822 53.5,169.5C 52.6618,169.158 52.3284,168.492 52.5,167.5C 53.2773,162.916 53.7773,158.25 54,153.5C 55,152.5 56,151.5 57,150.5C 57.3333,151.167 57.6667,151.833 58,152.5C 59.0674,151.809 60.2341,151.309 61.5,151C 60.0705,149.12 60.4038,147.62 62.5,146.5C 63.2508,147.376 63.7508,148.376 64,149.5C 64.2189,148.062 64.7189,146.729 65.5,145.5C 66.5,144.167 67.5,144.167 68.5,145.5C 69.7388,147.007 69.4054,148.174 67.5,149C 70.7572,152.553 71.0905,156.22 68.5,160C 71.457,164.08 74.2903,168.247 77,172.5C 81.0432,176.375 84.8765,180.375 88.5,184.5C 89.4776,184.023 90.3109,183.357 91,182.5C 91.1705,184.715 91.8372,186.715 93,188.5C 94.6658,185.621 97.1658,184.788 100.5,186C 105.899,189.29 108.899,194.124 109.5,200.5C 108.033,200.723 106.533,201.056 105,201.5C 102.78,204.54 101.28,207.873 100.5,211.5C 99.5,211.5 98.5,211.5 97.5,211.5C 97.6317,206.734 99.2984,202.567 102.5,199C 102,198.5 101.5,198 101,197.5C 98.2774,200.557 95.944,203.89 94,207.5C 93.3292,208.252 92.4959,208.586 91.5,208.5 Z M 95.5,198.5 C 97.0878,197.365 97.4212,196.031 96.5,194.5C 95.5713,195.689 95.238,197.022 95.5,198.5 Z"/></g>
<g><path style="opacity:0.943" fill="#00a650" d="M 151.5,152.5 C 150.708,150.255 149.375,149.922 147.5,151.5C 145.694,147.981 143.527,147.981 141,151.5C 140.667,150.167 140.333,148.833 140,147.5C 137.111,147.88 134.277,148.214 131.5,148.5C 131.5,149.5 131.5,150.5 131.5,151.5C 130.127,151.343 128.793,151.51 127.5,152C 130.23,152.728 132.897,152.562 135.5,151.5C 136.9,153.782 136.234,155.282 133.5,156C 129.705,156.837 126.039,156.504 122.5,155C 121.833,153.667 121.167,152.333 120.5,151C 123.61,148.695 123.943,146.195 121.5,143.5C 125.092,139.932 128.592,140.265 132,144.5C 133.458,143.253 134.958,143.253 136.5,144.5C 136.833,143.167 137.167,141.833 137.5,140.5C 136.005,136.713 135.338,132.713 135.5,128.5C 136.833,128.5 138.167,128.5 139.5,128.5C 139.337,130.857 139.503,133.19 140,135.5C 139.927,129.838 139.927,124.171 140,118.5C 141,117.833 142,117.167 143,116.5C 143.963,125.429 144.296,134.429 144,143.5C 144.724,141.041 146.057,140.041 148,140.5C 147.723,133.894 148.223,126.894 149.5,119.5C 150.086,119.709 150.586,120.043 151,120.5C 151.196,118.714 152.029,117.381 153.5,116.5C 154.318,119.107 154.818,121.774 155,124.5C 156.333,126.5 157.667,128.5 159,130.5C 160.395,129.185 161.395,129.519 162,131.5C 162.83,136.808 163.33,142.141 163.5,147.5C 168.421,147.865 168.755,146.865 164.5,144.5C 168.51,143.335 171.51,144.668 173.5,148.5C 170.734,150.129 167.734,150.795 164.5,150.5C 164.556,153.561 163.222,155.728 160.5,157C 157.833,157.667 155.167,157.667 152.5,157C 150.422,155.73 150.088,154.23 151.5,152.5 Z M 151.5,152.5 C 152.496,153.665 153.829,154.332 155.5,154.5C 157.135,153.954 158.801,153.62 160.5,153.5C 160.665,150.482 160.498,147.482 160,144.5C 159.727,146.101 159.227,147.601 158.5,149C 157.551,149.617 156.718,149.451 156,148.5C 154.629,150.041 153.129,151.375 151.5,152.5 Z M 158.5,134.5 C 157.925,136.342 158.091,138.342 159,140.5C 159.789,138.288 159.622,136.288 158.5,134.5 Z M 152.5,129.5 C 152.34,131.199 152.506,132.866 153,134.5C 156.262,132.572 156.095,130.905 152.5,129.5 Z M 125.5,149.5 C 127.103,150.677 128.436,150.511 129.5,149C 127.934,148.235 126.601,148.402 125.5,149.5 Z"/></g>
<g><path style="opacity:1" fill="#e5f3eb" d="M 267.5,139.5 C 271.306,140.435 274.972,141.769 278.5,143.5C 276.865,144.681 275.198,144.681 273.5,143.5C 271.678,147.068 272.678,149.402 276.5,150.5C 272.269,152.019 268.603,151.185 265.5,148C 265.833,147.5 266.167,147 266.5,146.5C 267.736,147.246 269.07,147.579 270.5,147.5C 270.5,145.833 270.5,144.167 270.5,142.5C 269.5,142.5 268.5,142.5 267.5,142.5C 267.5,141.5 267.5,140.5 267.5,139.5 Z"/></g>
<g><path style="opacity:0.685" fill="#000100" d="M 238.5,154.5 C 238.452,157.313 237.785,159.979 236.5,162.5C 233.871,164.05 232.037,163.384 231,160.5C 230.338,161.984 229.504,163.317 228.5,164.5C 229.552,164.351 230.552,164.517 231.5,165C 233.18,168.345 235.847,170.512 239.5,171.5C 239.113,172.72 238.28,173.387 237,173.5C 234.861,172.764 232.861,171.764 231,170.5C 230.349,172.235 230.515,173.902 231.5,175.5C 231,176.881 230,177.547 228.5,177.5C 226.121,176.558 223.954,175.225 222,173.5C 220.718,177.584 221.718,180.918 225,183.5C 225.131,179.741 226.797,178.408 230,179.5C 231.143,184.859 228.976,187.026 223.5,186C 220.667,184.5 218.5,182.333 217,179.5C 215.77,180.275 215.437,181.275 216,182.5C 219.016,185.349 221.85,188.349 224.5,191.5C 223.277,192.614 221.944,192.781 220.5,192C 218,189.5 215.5,187 213,184.5C 212.25,185.126 211.416,185.626 210.5,186C 213.382,189.593 216.382,193.093 219.5,196.5C 218.277,197.614 216.944,197.781 215.5,197C 213.649,195.316 211.982,193.483 210.5,191.5C 209.945,192.768 209.945,194.268 210.5,196C 208.842,199.297 206.175,200.297 202.5,199C 201.874,198.25 201.374,197.416 201,196.5C 200.654,198.218 200.154,199.885 199.5,201.5C 202.144,202.396 204.81,203.229 207.5,204C 208.381,204.708 209.047,205.542 209.5,206.5C 205.486,206.666 201.486,206.499 197.5,206C 196.257,204.846 195.257,203.512 194.5,202C 193.295,200.729 191.962,200.063 190.5,200C 192.628,203.755 194.628,207.588 196.5,211.5C 195.635,212.583 194.635,212.749 193.5,212C 191.455,209.414 189.789,206.58 188.5,203.5C 187.635,202.417 186.635,202.251 185.5,203C 187.484,207.438 188.984,211.938 190,216.5C 186.086,213.339 181.586,211.673 176.5,211.5C 176.167,211 175.833,210.5 175.5,210C 176.315,208.357 177.315,206.857 178.5,205.5C 176.658,205.723 174.825,206.057 173,206.5C 170.759,206.32 170.259,205.487 171.5,204C 176.167,202.333 180.833,200.667 185.5,199C 185.727,197.865 186.06,196.698 186.5,195.5C 188.382,196.093 190.215,196.76 192,197.5C 197.849,191.987 204.016,186.82 210.5,182C 209.833,181.333 209.167,180.667 208.5,180C 210.433,179.749 212.266,179.249 214,178.5C 219.445,172.386 224.112,165.72 228,158.5C 228.75,157.874 229.584,157.374 230.5,157C 231.222,153.942 231.222,151.109 230.5,148.5C 232.412,146.844 234.412,146.511 236.5,147.5C 236.291,148.086 235.957,148.586 235.5,149C 239.918,150.806 244.251,152.806 248.5,155C 247.421,155.956 246.255,156.789 245,157.5C 243.007,156.086 240.84,155.086 238.5,154.5 Z M 225.5,167.5 C 224.708,168.967 224.708,170.3 225.5,171.5C 226.782,170.042 226.782,168.708 225.5,167.5 Z M 182.5,207.5 C 182.517,209.028 183.184,209.528 184.5,209C 183.956,208.283 183.289,207.783 182.5,207.5 Z"/></g>
<g><path style="opacity:0.724" fill="#00a550" d="M 147.5,151.5 C 148.373,155.768 148.706,160.102 148.5,164.5C 147.5,164.5 146.5,164.5 145.5,164.5C 144.231,162.175 142.898,159.841 141.5,157.5C 142.49,154.51 144.49,152.51 147.5,151.5 Z"/></g>
<g><path style="opacity:1" fill="#dff0e7" d="M 264.5,151.5 C 268.3,151.819 268.466,152.819 265,154.5C 264.333,155.833 264.333,157.167 265,158.5C 266.62,156.759 268.12,154.925 269.5,153C 273.487,152.661 274.987,154.494 274,158.5C 273.081,161.644 271.248,162.644 268.5,161.5C 271.329,160.175 271.996,158.175 270.5,155.5C 269.5,156.833 268.5,158.167 267.5,159.5C 265.994,160.747 264.494,160.747 263,159.5C 262.109,156.502 262.609,153.836 264.5,151.5 Z"/></g>
<g><path style="opacity:0.647" fill="#00a44f" d="M 174.5,157.5 C 171.428,157.817 168.428,157.484 165.5,156.5C 169.573,154.97 173.573,153.137 177.5,151C 174.686,146.386 172.352,141.553 170.5,136.5C 172.854,131.532 174.687,131.532 176,136.5C 176.456,139.572 176.456,142.572 176,145.5C 179.741,142.955 181.908,144.121 182.5,149C 181.003,152.995 178.337,155.828 174.5,157.5 Z"/></g>
<g><path style="opacity:1" fill="#00a650" d="M 121.5,157.5 C 122.675,157.281 123.675,157.614 124.5,158.5C 125.785,161.021 126.452,163.687 126.5,166.5C 125.325,166.719 124.325,166.386 123.5,165.5C 122.215,162.979 121.548,160.313 121.5,157.5 Z"/></g>
<g><path style="opacity:0.821" fill="#00a751" d="M 134.5,159.5 C 135.793,158.355 136.959,158.689 138,160.5C 138.667,161.5 138.667,162.5 138,163.5C 135.167,165 133,167.167 131.5,170C 129.091,171.707 126.425,172.54 123.5,172.5C 123.33,171.178 123.663,170.011 124.5,169C 126.5,168 128.5,167 130.5,166C 126.937,163.768 126.77,161.602 130,159.5C 131.285,159.95 132.452,160.617 133.5,161.5C 135.145,160.964 135.478,160.297 134.5,159.5 Z"/></g>
<g><path style="opacity:0.949" fill="#00a852" d="M 148.5,164.5 C 150.975,163.313 151.975,161.313 151.5,158.5C 154.99,158.245 157.657,159.578 159.5,162.5C 156.755,163.89 153.921,165.223 151,166.5C 150.829,171.864 150.329,177.198 149.5,182.5C 148.914,182.291 148.414,181.957 148,181.5C 147.215,175.751 147.382,170.084 148.5,164.5 Z"/></g>
<g><path style="opacity:0.606" fill="#00a650" d="M 174.5,157.5 C 176.144,157.286 177.644,157.62 179,158.5C 180.151,162.829 179.318,166.662 176.5,170C 174.413,170.792 172.579,171.959 171,173.5C 169.175,172.897 167.341,172.23 165.5,171.5C 165.977,170.522 166.643,169.689 167.5,169C 170.975,168.624 173.975,167.291 176.5,165C 175.234,164.691 174.067,164.191 173,163.5C 168.917,166.719 164.583,168.719 160,169.5C 159.439,166.702 160.606,164.869 163.5,164C 159.461,161.653 159.961,160.486 165,160.5C 167.59,160.376 169.923,161.042 172,162.5C 172.847,160.807 173.68,159.14 174.5,157.5 Z"/></g>
<g><path style="opacity:1" fill="#e7f4ec" d="M 260.5,160.5 C 261.289,160.783 261.956,161.283 262.5,162C 258.562,168.411 259.229,168.911 264.5,163.5C 264.377,165.622 264.377,167.789 264.5,170C 265.332,170.688 265.998,170.521 266.5,169.5C 267.248,167.668 268.248,166.001 269.5,164.5C 269.833,164.833 270.167,165.167 270.5,165.5C 269.352,168.289 268.019,170.956 266.5,173.5C 262.909,172.217 259.909,170.217 257.5,167.5C 258.237,165.03 259.237,162.696 260.5,160.5 Z"/></g>
<g><path style="opacity:1" fill="#00a851" d="M 145.5,164.5 C 143.947,169.576 140.947,173.743 136.5,177C 133.577,178.632 130.577,178.799 127.5,177.5C 127.977,176.522 128.643,175.689 129.5,175C 133.381,174.393 136.714,172.726 139.5,170C 137.606,168.921 137.273,167.587 138.5,166C 140.813,165.338 143.146,164.838 145.5,164.5 Z"/></g>
<g><path style="opacity:1" fill="#e7f4ec" d="M 41.5,171.5 C 43.7453,171.541 44.4119,172.375 43.5,174C 40.6714,175.247 38.0048,176.747 35.5,178.5C 34.6919,178.192 34.0253,177.692 33.5,177C 36.0703,174.913 38.737,173.08 41.5,171.5 Z"/></g>
<g><path style="opacity:0.991" fill="#00a751" d="M 152.5,171.5 C 154.17,171.751 155.67,172.418 157,173.5C 157.414,173.043 157.914,172.709 158.5,172.5C 159.947,177.261 158.281,178.594 153.5,176.5C 151.374,175.091 151.04,173.424 152.5,171.5 Z"/></g>
<g><path style="opacity:1" fill="#e4f2ea" d="M 255.5,171.5 C 265.466,172.899 266.966,177.233 260,184.5C 257.041,182.611 254.208,180.611 251.5,178.5C 252.592,175.976 253.926,173.643 255.5,171.5 Z"/></g>
<g><path style="opacity:1" fill="#188d47" d="M 255.5,174.5 C 259.73,173.831 261.563,175.498 261,179.5C 258.956,180.772 257.122,180.439 255.5,178.5C 254.374,177.192 254.374,175.858 255.5,174.5 Z"/></g>
<g><path style="opacity:1" fill="#def0e6" d="M 42.5,175.5 C 47.5003,176.156 49.167,178.822 47.5,183.5C 46.9347,181.49 45.9347,179.824 44.5,178.5C 44.1667,178.833 43.8333,179.167 43.5,179.5C 47.1527,187.011 45.3194,189.011 38,185.5C 36.1326,183.09 36.1326,180.756 38,178.5C 38.8614,181.051 40.028,183.384 41.5,185.5C 41.573,182.164 41.9064,178.831 42.5,175.5 Z"/></g>
<g><path style="opacity:1" fill="#e7f4ed" d="M 247.5,183.5 C 251.571,184.185 255.571,185.185 259.5,186.5C 258.176,187.935 256.51,188.935 254.5,189.5C 254.43,191.644 253.93,193.644 253,195.5C 250.584,192.337 248.418,189.004 246.5,185.5C 246.863,184.817 247.196,184.15 247.5,183.5 Z"/></g>
<g><path style="opacity:1" fill="#e3f2e9" d="M 48.5,197.5 C 47.5041,197.586 46.6708,197.252 46,196.5C 44.8179,194.656 43.6512,192.823 42.5,191C 44.7119,188.29 47.3786,186.123 50.5,184.5C 51.3081,184.808 51.9747,185.308 52.5,186C 50.1667,187.833 47.8333,189.667 45.5,191.5C 47.0383,193.243 48.0383,195.243 48.5,197.5 Z"/></g>
<g><path style="opacity:1" fill="#4ba76f" d="M 249.5,185.5 C 250.901,185.971 252.234,186.638 253.5,187.5C 253.192,188.308 252.692,188.975 252,189.5C 250.519,188.529 249.685,187.196 249.5,185.5 Z"/></g>
<g><path style="opacity:1" fill="#e9f5ee" d="M 238.5,194.5 C 239.552,194.351 240.552,194.517 241.5,195C 243.017,196.685 244.684,198.185 246.5,199.5C 248.149,198.352 249.649,197.019 251,195.5C 251.06,198.648 249.56,200.981 246.5,202.5C 242.79,200.79 240.123,198.123 238.5,194.5 Z"/></g>
<g><path style="opacity:1" fill="#e6f3ec" d="M 48.5,197.5 C 61.5362,191.912 63.8696,194.912 55.5,206.5C 53.5188,205.895 53.1854,204.895 54.5,203.5C 52.8205,201.03 50.8205,199.03 48.5,197.5 Z"/></g>
<g><path style="opacity:1" fill="#2c924f" d="M 55.5,197.5 C 58.0118,198.216 58.0118,199.216 55.5,200.5C 54.4376,199.575 54.4376,198.575 55.5,197.5 Z"/></g>
<g><path style="opacity:0.686" fill="#000100" d="M 153.5,210.5 C 151.833,210.5 150.167,210.5 148.5,210.5C 148.548,213.292 147.215,215.125 144.5,216C 147.417,218.411 149.75,221.244 151.5,224.5C 151.158,225.338 150.492,225.672 149.5,225.5C 147.198,222.588 144.364,220.255 141,218.5C 141.992,215.43 141.659,212.43 140,209.5C 138.843,213.408 138.01,217.408 137.5,221.5C 137.167,222.167 136.833,222.833 136.5,223.5C 136.167,223.167 135.833,222.833 135.5,222.5C 134.537,218.203 134.537,213.87 135.5,209.5C 134.167,209.5 132.833,209.5 131.5,209.5C 131.665,212.518 131.498,215.518 131,218.5C 129.649,220.01 127.982,221.01 126,221.5C 124.251,221.252 123.418,220.252 123.5,218.5C 122.849,219.091 122.182,219.757 121.5,220.5C 120.123,218.711 119.123,216.711 118.5,214.5C 110.061,208.994 110.727,206.16 120.5,206C 118.5,205.333 116.5,204.667 114.5,204C 112.441,202.815 112.274,201.648 114,200.5C 121.09,202.808 128.257,204.808 135.5,206.5C 135.998,205.397 136.331,204.397 136.5,203.5C 138.158,205.323 139.991,206.99 142,208.5C 149.753,207.009 157.587,206.176 165.5,206C 166.308,206.308 166.975,206.808 167.5,207.5C 166.271,208.281 164.938,208.781 163.5,209C 169.396,213.671 168.729,216.504 161.5,217.5C 161.421,218.93 161.754,220.264 162.5,221.5C 162,221.833 161.5,222.167 161,222.5C 158.688,219.258 155.521,217.425 151.5,217C 150.643,216.311 149.977,215.478 149.5,214.5C 150.549,212.784 151.882,211.451 153.5,210.5 Z M 123.5,218.5 C 124.822,218.67 125.989,218.337 127,217.5C 127.218,214.574 127.718,211.74 128.5,209C 127.975,208.308 127.308,207.808 126.5,207.5C 124.885,211.009 123.885,214.675 123.5,218.5 Z M 119.5,211.5 C 120.363,212.463 121.03,212.463 121.5,211.5C 120.743,210.227 120.077,210.227 119.5,211.5 Z"/></g>
<g><path style="opacity:1" fill="#e3f2ea" d="M 235.5,198.5 C 236.978,198.238 238.311,198.571 239.5,199.5C 238.009,201.012 236.176,202.012 234,202.5C 233.667,208.5 236,209.833 241,206.5C 241.688,205.668 241.521,205.002 240.5,204.5C 237.004,205.478 236.67,204.644 239.5,202C 241.906,201.221 243.573,202.054 244.5,204.5C 243.144,207.856 240.811,210.189 237.5,211.5C 232.156,210.655 230.323,207.655 232,202.5C 233.376,201.295 234.542,199.962 235.5,198.5 Z"/></g>
<g><path style="opacity:1" fill="#eaf5ef" d="M 63.5,201.5 C 65.3464,201.222 66.6798,201.889 67.5,203.5C 61.589,211.378 62.589,212.378 70.5,206.5C 71.646,207.145 72.646,207.978 73.5,209C 70.9841,211.683 68.3174,214.183 65.5,216.5C 64.479,215.998 64.3123,215.332 65,214.5C 66.5,213 68,211.5 69.5,210C 67.0543,211.409 64.3876,212.409 61.5,213C 61.0426,212.586 60.7093,212.086 60.5,211.5C 62.268,209.298 63.4346,206.965 64,204.5C 62.3804,206.241 60.8804,208.075 59.5,210C 58.5165,210.591 57.8499,210.257 57.5,209C 59.3198,206.348 61.3198,203.848 63.5,201.5 Z"/></g>
<g><path style="opacity:1" fill="#e5f3eb" d="M 73.5,210.5 C 74.675,210.281 75.675,210.614 76.5,211.5C 74.2093,214.46 71.7093,217.127 69,219.5C 68.5,219.167 68,218.833 67.5,218.5C 69.9092,216.098 71.9092,213.431 73.5,210.5 Z"/></g>
<g><path style="opacity:1" fill="#e5f3eb" d="M 227.5,206.5 C 230.404,208.737 233.07,211.403 235.5,214.5C 235.167,215.5 234.5,216.167 233.5,216.5C 230.833,215.877 228.333,214.877 226,213.5C 225.333,214.167 225.333,214.833 226,215.5C 227.353,216.685 228.52,218.019 229.5,219.5C 229,219.833 228.5,220.167 228,220.5C 225.566,218.066 223.066,215.566 220.5,213C 221.263,212.056 222.263,211.556 223.5,211.5C 232.317,215.13 233.317,213.964 226.5,208C 227.056,207.617 227.389,207.117 227.5,206.5 Z"/></g>
<g><path style="opacity:1" fill="#e7f4ec" d="M 215.5,215.5 C 219.262,217.413 222.929,219.579 226.5,222C 225.975,222.692 225.308,223.192 224.5,223.5C 223.549,222.674 222.549,222.508 221.5,223C 219.131,224.496 217.798,226.33 217.5,228.5C 215.407,224.282 214.74,219.949 215.5,215.5 Z"/></g>
<g><path style="opacity:1" fill="#3b9f64" d="M 217.5,219.5 C 220.674,219.952 221.007,220.952 218.5,222.5C 217.614,221.675 217.281,220.675 217.5,219.5 Z"/></g>
<g><path style="opacity:1" fill="#e4f3eb" d="M 206.5,221.5 C 208.199,221.34 209.866,221.506 211.5,222C 212.848,224.01 214.182,226.01 215.5,228C 213.567,230.732 211.067,232.899 208,234.5C 205.665,231.834 203.831,228.834 202.5,225.5C 203.549,223.784 204.882,222.451 206.5,221.5 Z"/></g>
<g><path style="opacity:1" fill="#168b42" d="M 207.5,223.5 C 210.028,224.518 209.861,225.518 207,226.5C 206.5,226.167 206,225.833 205.5,225.5C 206.243,224.818 206.909,224.151 207.5,223.5 Z"/></g>
<g><path style="opacity:1" fill="#24904c" d="M 208.5,227.5 C 213.515,227.863 213.682,229.197 209,231.5C 207.232,230.318 207.065,228.985 208.5,227.5 Z"/></g>
<g><path style="opacity:1" fill="#f6f9f7" d="M 139.5,230.5 C 163.121,228.661 186.121,231.494 208.5,239C 212.779,240.473 216.779,242.473 220.5,245C 217.321,249.512 213.488,253.346 209,256.5C 174.004,243.876 139.338,244.543 105,258.5C 101.034,254.864 97.3676,250.864 94,246.5C 93.3828,245.551 93.5494,244.718 94.5,244C 108.982,237.284 123.982,232.784 139.5,230.5 Z"/></g>
<g><path style="opacity:1" fill="#1d1d1d" d="M 144.5,236.5 C 145.978,236.238 147.311,236.571 148.5,237.5C 149.921,240.009 151.588,242.343 153.5,244.5C 153,244.833 152.5,245.167 152,245.5C 148.288,242.579 144.955,242.912 142,246.5C 141.5,246.167 141,245.833 140.5,245.5C 141.573,242.356 142.907,239.356 144.5,236.5 Z"/></g>
<g><path style="opacity:1" fill="#191919" d="M 170.5,236.5 C 171.5,236.5 172.5,236.5 173.5,236.5C 173.494,239.548 174.494,240.048 176.5,238C 178.167,237.333 179.833,237.333 181.5,238C 179.668,238.748 178.001,239.748 176.5,241C 178.019,242.351 179.352,243.851 180.5,245.5C 179.635,246.583 178.635,246.749 177.5,246C 176.696,244.229 175.529,242.729 174,241.5C 172.812,242.563 172.312,243.897 172.5,245.5C 171.5,245.5 170.5,245.5 169.5,245.5C 169.508,242.455 169.841,239.455 170.5,236.5 Z"/></g>
<g><path style="opacity:1" fill="#999a9a" d="M 155.5,235.5 C 155.183,238.572 155.516,241.572 156.5,244.5C 157.029,242.053 157.696,240.387 158.5,239.5C 158.5,241.5 158.5,243.5 158.5,245.5C 157.167,245.5 155.833,245.5 154.5,245.5C 154.187,241.958 154.521,238.625 155.5,235.5 Z"/></g>
<g><path style="opacity:1" fill="#1e1e1e" d="M 155.5,235.5 C 158.988,236.143 161.488,238.143 163,241.5C 163.495,239.527 163.662,237.527 163.5,235.5C 164.5,235.5 165.5,235.5 166.5,235.5C 166.5,238.833 166.5,242.167 166.5,245.5C 165.448,245.649 164.448,245.483 163.5,245C 162.167,242.809 160.5,240.976 158.5,239.5C 157.696,240.387 157.029,242.053 156.5,244.5C 155.516,241.572 155.183,238.572 155.5,235.5 Z"/></g>
<g><path style="opacity:1" fill="#171818" d="M 128.5,238.5 C 131.5,238.5 134.5,238.5 137.5,238.5C 137.568,241.085 138.068,243.418 139,245.5C 135.452,247.512 131.619,248.512 127.5,248.5C 127.726,245.751 127.393,243.084 126.5,240.5C 127.243,239.818 127.909,239.151 128.5,238.5 Z"/></g>
<g><path style="opacity:1" fill="#bdbdbd" d="M 131.5,239.5 C 136.666,240.034 136.666,241.034 131.5,242.5C 130.833,242.167 130.167,241.833 129.5,241.5C 130.243,240.818 130.909,240.151 131.5,239.5 Z"/></g>
<g><path style="opacity:1" fill="#d7d7d7" d="M 145.5,239.5 C 147.465,239.948 147.798,240.948 146.5,242.5C 145.614,241.675 145.281,240.675 145.5,239.5 Z"/></g>
<g><path style="opacity:1" fill="#d9d9da" d="M 130.5,243.5 C 138.333,243.962 138.333,244.962 130.5,246.5C 130.5,245.5 130.5,244.5 130.5,243.5 Z"/></g>
</svg>
