<?xml version="1.0" encoding="UTF-8"?>
<!DOCTYPE svg PUBLIC "-//W3C//DTD SVG 1.1//EN" "http://www.w3.org/Graphics/SVG/1.1/DTD/svg11.dtd">
<svg xmlns="http://www.w3.org/2000/svg" version="1.1" width="300px" height="160px"
     style="shape-rendering:geometricPrecision; text-rendering:geometricPrecision; image-rendering:optimizeQuality; fill-rule:evenodd; clip-rule:evenodd">
<g><path style="opacity:0.993" fill="#fdfdfd" d="M 6.5,-0.5 C 101.5,-0.5 196.5,-0.5 291.5,-0.5C 295.167,1.16667 297.833,3.83333 299.5,7.5C 299.5,55.8333 299.5,104.167 299.5,152.5C 298.2,155.432 296.2,157.766 293.5,159.5C 197.167,159.5 100.833,159.5 4.5,159.5C 2.5,158.167 0.833333,156.5 -0.5,154.5C -0.5,104.833 -0.5,55.1667 -0.5,5.5C 1.23438,2.79973 3.56772,0.799728 6.5,-0.5 Z"/></g>
<g><path style="opacity:1" fill="#086c46" d="M 81.5,6.5 C 84.1667,6.5 86.8333,6.5 89.5,6.5C 89.1739,15.0168 89.5073,23.3501 90.5,31.5C 109.833,31.5 129.167,31.5 148.5,31.5C 148.5,72.1667 148.5,112.833 148.5,153.5C 124.167,153.5 99.8333,153.5 75.5,153.5C 75.5,112.833 75.5,72.1667 75.5,31.5C 77.5,31.5 79.5,31.5 81.5,31.5C 81.5,23.1667 81.5,14.8333 81.5,6.5 Z"/></g>
<g><path style="opacity:1" fill="#64a48d" d="M 81.5,6.5 C 84.2869,5.52333 87.2869,5.19 90.5,5.5C 90.5,14.1667 90.5,22.8333 90.5,31.5C 89.5073,23.3501 89.1739,15.0168 89.5,6.5C 86.8333,6.5 84.1667,6.5 81.5,6.5 Z"/></g>
<g><path style="opacity:1" fill="#33775b" d="M 179.5,41.5 C 176.167,40.1667 172.833,40.1667 169.5,41.5C 169.817,44.5719 169.484,47.5719 168.5,50.5C 167.692,48.5767 167.192,46.5767 167,44.5C 166.477,46.2226 165.477,47.556 164,48.5C 162.97,48.1639 162.47,47.4972 162.5,46.5C 159.894,47.8499 159.894,49.3499 162.5,51C 160.544,50.7782 158.71,49.9448 157,48.5C 157.684,45.8404 157.517,43.1738 156.5,40.5C 157.833,39.8333 159.167,39.1667 160.5,38.5C 159.609,37.4104 158.609,37.4104 157.5,38.5C 156.304,38.1543 156.304,37.6543 157.5,37C 163.47,38.5851 169.803,39.4185 176.5,39.5C 181.167,39.1667 185.833,38.8333 190.5,38.5C 188.295,35.9469 185.962,35.9469 183.5,38.5C 183.167,38.1667 182.833,37.8333 182.5,37.5C 187.446,32.9044 190.78,33.9044 192.5,40.5C 191.746,43.777 191.246,47.1103 191,50.5C 190.491,38.5543 189.658,38.5543 188.5,50.5C 187.996,47.4778 186.329,46.3111 183.5,47C 186.051,48.5158 185.718,49.3491 182.5,49.5C 182.318,47.4086 182.652,45.4086 183.5,43.5C 183.167,42.5 182.5,41.8333 181.5,41.5C 180.179,53.4274 179.512,53.4274 179.5,41.5 Z"/></g>
<g><path style="opacity:1" fill="#79a998" d="M 169.5,41.5 C 172.833,40.1667 176.167,40.1667 179.5,41.5C 178.834,44.3583 178.167,47.3583 177.5,50.5C 176.548,48.9547 176.215,47.288 176.5,45.5C 177.833,44.8333 177.833,44.1667 176.5,43.5C 174.721,41.6565 172.388,40.9898 169.5,41.5 Z"/></g>
<g><path style="opacity:1" fill="#48856b" d="M 220.5,47.5 C 221.234,46.2921 221.567,44.9587 221.5,43.5C 220.167,43.5 218.833,43.5 217.5,43.5C 218.167,45.8333 218.833,48.1667 219.5,50.5C 217.374,47.3125 214.708,45.4792 211.5,45C 210.915,43.6976 210.249,42.531 209.5,41.5C 208.833,41.5 208.167,41.5 207.5,41.5C 206.834,44.3583 206.167,47.3583 205.5,50.5C 205.267,47.7793 204.767,44.7793 204,41.5C 203.821,44.5535 203.321,47.5535 202.5,50.5C 200.46,48.823 198.46,47.1563 196.5,45.5C 197.364,43.8035 198.697,42.6368 200.5,42C 198.744,41.7978 197.078,41.2978 195.5,40.5C 204.894,39.7525 214.227,39.7525 223.5,40.5C 222.975,41.1924 222.308,41.6924 221.5,42C 224.362,44.5575 224.029,46.3908 220.5,47.5 Z"/></g>
<g><path style="opacity:1" fill="#6ba08c" d="M 207.5,41.5 C 208.167,41.5 208.833,41.5 209.5,41.5C 208.833,53.5 208.167,53.5 207.5,41.5 Z"/></g>
<g><path style="opacity:1" fill="#fbfcfc" d="M 162.5,46.5 C 161.948,44.6693 161.948,43.0026 162.5,41.5C 165.063,43.3354 165.063,45.0021 162.5,46.5 Z"/></g>
<g><path style="opacity:1" fill="#e8f1ee" d="M 115.5,42.5 C 116.721,41.5354 118.054,41.702 119.5,43C 120.636,44.1451 121.636,45.3117 122.5,46.5C 122.702,48.9496 122.369,51.283 121.5,53.5C 120.833,53.5 120.167,53.5 119.5,53.5C 120.488,48.8077 119.154,45.141 115.5,42.5 Z"/></g>
<g><path style="opacity:1" fill="#86b1a0" d="M 220.5,47.5 C 220.737,48.791 220.404,49.791 219.5,50.5C 218.833,48.1667 218.167,45.8333 217.5,43.5C 218.833,43.5 220.167,43.5 221.5,43.5C 221.567,44.9587 221.234,46.2921 220.5,47.5 Z"/></g>
<g><path style="opacity:1" fill="#226c4e" d="M 176.5,43.5 C 177.833,44.1667 177.833,44.8333 176.5,45.5C 175.198,46.8069 173.865,46.8069 172.5,45.5C 171.406,46.868 171.74,48.0347 173.5,49C 172.552,49.4828 171.552,49.6495 170.5,49.5C 169.5,44.5 171.5,42.5 176.5,43.5 Z"/></g>
<g><path style="opacity:1" fill="#30775b" d="M 210.5,46.5 C 213.25,47.7033 214.75,49.7033 215,52.5C 212.873,50.8863 211.373,48.8863 210.5,46.5 Z"/></g>
<g><path style="opacity:1" fill="#5b9e84" d="M 122.5,46.5 C 121.636,45.3117 120.636,44.1451 119.5,43C 118.054,41.702 116.721,41.5354 115.5,42.5C 113.83,42.7512 112.33,43.4178 111,44.5C 110.126,47.3787 110.46,50.0454 112,52.5C 112.191,50.2922 112.691,48.2922 113.5,46.5C 113.34,48.1992 113.506,49.8659 114,51.5C 115.249,49.0085 116.416,49.1751 117.5,52C 115.616,52.2163 113.949,52.883 112.5,54C 115.039,54.7958 117.372,54.6291 119.5,53.5C 120.167,53.5 120.833,53.5 121.5,53.5C 120.047,54.8249 120.381,55.6582 122.5,56C 121.929,57.2051 121.262,58.3717 120.5,59.5C 117.891,58.7695 115.224,58.2695 112.5,58C 112.957,57.586 113.291,57.086 113.5,56.5C 111.5,55.1667 109.833,53.5 108.5,51.5C 109.112,50.0047 109.112,48.3381 108.5,46.5C 110.616,40.7084 114.616,39.0417 120.5,41.5C 121.313,42.8139 122.313,43.9805 123.5,45C 122.944,45.3826 122.611,45.8826 122.5,46.5 Z"/></g>
<g><path style="opacity:1" fill="#f2f7f5" d="M 115.5,42.5 C 114.4,43.6049 113.733,44.9382 113.5,46.5C 112.691,48.2922 112.191,50.2922 112,52.5C 110.46,50.0454 110.126,47.3787 111,44.5C 112.33,43.4178 113.83,42.7512 115.5,42.5 Z"/></g>
<g><path style="opacity:1" fill="#277d5c" d="M 115.5,42.5 C 119.154,45.141 120.488,48.8077 119.5,53.5C 117.372,54.6291 115.039,54.7958 112.5,54C 113.949,52.883 115.616,52.2163 117.5,52C 116.416,49.1751 115.249,49.0085 114,51.5C 113.506,49.8659 113.34,48.1992 113.5,46.5C 113.733,44.9382 114.4,43.6049 115.5,42.5 Z"/></g>
<g><path style="opacity:1" fill="#d32815" d="M 187.5,55.5 C 199.5,55.5 211.5,55.5 223.5,55.5C 223.5,57.5 223.5,59.5 223.5,61.5C 222.5,61.5 221.5,61.5 220.5,61.5C 220.667,75.8372 220.5,90.1705 220,104.5C 218.644,105.38 217.144,105.714 215.5,105.5C 215.81,95.9559 211.81,88.7893 203.5,84C 198.671,82.6623 196.338,84.4956 196.5,89.5C 196.548,94.4078 198.881,95.7411 203.5,93.5C 205.256,95.5543 205.59,97.721 204.5,100C 197.516,103.092 193.016,100.925 191,93.5C 189.46,86.4389 191.627,80.9389 197.5,77C 198.793,76.51 200.127,76.3433 201.5,76.5C 201.628,68.9601 197.961,65.6268 190.5,66.5C 190.5,64.5 190.5,62.5 190.5,60.5C 189.5,60.5 188.5,60.5 187.5,60.5C 187.5,58.8333 187.5,57.1667 187.5,55.5 Z"/></g>
<g><path style="opacity:1" fill="#d11d0c" d="M 177.5,55.5 C 181.683,54.8456 184.516,56.5123 186,60.5C 186.5,75.4963 186.667,90.4963 186.5,105.5C 182.856,105.292 180.689,103.292 180,99.5C 179.107,98.9186 178.107,98.5852 177,98.5C 174.62,99.2007 172.453,100.367 170.5,102C 166.303,102.828 163.136,101.328 161,97.5C 158.473,93.4696 157.473,89.1362 158,84.5C 158.414,84.0426 158.914,83.7093 159.5,83.5C 160.845,87.6904 162.845,91.5238 165.5,95C 167.167,95.6667 168.833,95.6667 170.5,95C 173.939,92.0034 177.439,91.8367 181,94.5C 181.81,83.7865 181.643,73.1198 180.5,62.5C 179.998,61.479 179.332,61.3123 178.5,62C 175.265,64.2249 173.265,67.2249 172.5,71C 173.082,74.955 174.749,75.455 177.5,72.5C 180.08,74.713 180.08,76.8797 177.5,79C 170.884,80.2213 167.884,77.388 168.5,70.5C 168.696,63.7681 171.696,58.7681 177.5,55.5 Z"/></g>
<g><path style="opacity:1" fill="#eaf2ef" d="M 102.5,59.5 C 104.176,63.6365 105.176,68.1365 105.5,73C 104.167,73.6667 102.833,73.6667 101.5,73C 102.373,68.3836 102.707,63.8836 102.5,59.5 Z"/></g>
<g><path style="opacity:1" fill="#e7f0ed" d="M 130.5,59.5 C 132.337,59.6395 132.67,60.3061 131.5,61.5C 130.702,61.0431 130.369,60.3764 130.5,59.5 Z"/></g>
<g><path style="opacity:1" fill="#6da792" d="M 89.5,72.5 C 90.7943,70.9522 91.4609,68.9522 91.5,66.5C 91.4609,64.0478 90.7943,62.0478 89.5,60.5C 89.9234,59.3701 91.2568,59.2034 93.5,60C 92.1667,64.3333 92.1667,68.6667 93.5,73C 91.2568,73.7966 89.9234,73.6299 89.5,72.5 Z"/></g>
<g><path style="opacity:1" fill="#fefbfa" d="M 199.5,62.5 C 204.64,61.5119 209.974,61.1786 215.5,61.5C 215.666,69.84 215.5,78.1733 215,86.5C 212.705,83.2026 210.038,80.2026 207,77.5C 206.598,71.3632 204.098,66.3632 199.5,62.5 Z"/></g>
<g><path style="opacity:1" fill="#e2eee9" d="M 114.5,72.5 C 115.814,70.1047 115.814,67.6047 114.5,65C 115.416,64.6258 116.25,64.1258 117,63.5C 120.283,64.0316 123.616,64.365 127,64.5C 127.218,67.4262 127.718,70.2595 128.5,73C 127.167,73.6667 125.833,73.6667 124.5,73C 125.777,70.5341 125.777,68.0341 124.5,65.5C 122.28,67.6631 121.947,70.1631 123.5,73C 122.167,73.6667 120.833,73.6667 119.5,73C 120.777,70.5341 120.777,68.0341 119.5,65.5C 117.28,67.6631 116.947,70.1631 118.5,73C 116.934,73.765 115.601,73.5983 114.5,72.5 Z"/></g>
<g><path style="opacity:1" fill="#dfece7" d="M 131.5,63.5 C 132.201,66.5629 132.868,69.7296 133.5,73C 132.167,73.6667 130.833,73.6667 129.5,73C 130.833,70.3333 130.833,67.6667 129.5,65C 130.416,64.7216 131.082,64.2216 131.5,63.5 Z"/></g>
<g><path style="opacity:1" fill="#c6ded5" d="M 111.5,64.5 C 112.117,64.6107 112.617,64.944 113,65.5C 113.29,67.9204 113.79,70.2537 114.5,72.5C 113.348,73.625 112.348,73.625 111.5,72.5C 111.773,70.549 111.107,69.049 109.5,68C 111.239,67.0812 111.906,65.9145 111.5,64.5 Z"/></g>
<g><path style="opacity:1" fill="#dde9e4" d="M 89.5,60.5 C 90.7943,62.0478 91.4609,64.0478 91.5,66.5C 91.4609,68.9522 90.7943,70.9522 89.5,72.5C 89.5,68.5 89.5,64.5 89.5,60.5 Z"/></g>
<g><path style="opacity:1" fill="#e0ece7" d="M 94.5,64.5 C 96.6657,66.4381 98.6657,68.6047 100.5,71C 100.355,71.772 100.022,72.4387 99.5,73C 97.8659,73.4935 96.1992,73.6602 94.5,73.5C 94.2619,69.9007 95.2619,69.5673 97.5,72.5C 98.4286,70.6783 97.7619,69.3449 95.5,68.5C 94.5713,67.3112 94.238,65.9778 94.5,64.5 Z"/></g>
<g><path style="opacity:1" fill="#70a78f" d="M 111.5,64.5 C 111.906,65.9145 111.239,67.0812 109.5,68C 111.107,69.049 111.773,70.549 111.5,72.5C 106.442,73.8484 105.442,72.3484 108.5,68C 107.483,66.9505 107.316,65.7839 108,64.5C 109.292,63.2089 110.458,63.2089 111.5,64.5 Z"/></g>
<g><path style="opacity:1" fill="#d4e5df" d="M 88.5,75.5 C 92.1046,74.1329 95.7713,74.2996 99.5,76C 99.2795,79.517 99.7795,83.017 101,86.5C 97.0669,88.4777 92.9002,88.9777 88.5,88C 89.822,83.7331 89.822,79.5664 88.5,75.5 Z"/></g>
<g><path style="opacity:1" fill="#066c46" d="M 92.5,76.5 C 94.1667,76.5 95.8333,76.5 97.5,76.5C 97.5,77.8333 97.5,79.1667 97.5,80.5C 95.8333,80.5 94.1667,80.5 92.5,80.5C 92.5,79.1667 92.5,77.8333 92.5,76.5 Z"/></g>
<g><path style="opacity:1" fill="#016a44" d="M 92.5,82.5 C 94.9775,82.0508 96.9775,82.7175 98.5,84.5C 96.9775,86.2825 94.9775,86.9492 92.5,86.5C 92.5,85.1667 92.5,83.8333 92.5,82.5 Z"/></g>
<g><path style="opacity:1" fill="#cde1da" d="M 123.5,74.5 C 124.5,74.5 125.5,74.5 126.5,74.5C 126.336,77.1873 126.503,79.854 127,82.5C 128.84,81.1669 129.34,81.3335 128.5,83C 129.5,85.3333 131.167,87 133.5,88C 132.056,88.7805 130.723,88.6139 129.5,87.5C 126.901,83.3589 126.235,83.5255 127.5,88C 124.446,88.8214 121.446,88.6548 118.5,87.5C 119.374,85.2534 119.708,82.9201 119.5,80.5C 118.178,80.33 117.011,80.6634 116,81.5C 115.242,83.7695 115.409,85.9361 116.5,88C 115.167,88.6667 113.833,88.6667 112.5,88C 113.833,85.3333 113.833,82.6667 112.5,80C 119.754,77.076 122.754,79.576 121.5,87.5C 122.5,87.5 123.5,87.5 124.5,87.5C 124.706,83.1018 124.373,78.7685 123.5,74.5 Z"/></g>
<g><path style="opacity:1" fill="#c5dcd2" d="M 105.5,78.5 C 106.93,78.4208 108.264,78.7542 109.5,79.5C 110.214,82.0272 110.88,84.5272 111.5,87C 110.975,87.6924 110.308,88.1924 109.5,88.5C 107.398,88.5207 105.232,88.1874 103,87.5C 102.135,85.1122 102.968,83.6122 105.5,83C 103.018,81.5394 103.018,80.0394 105.5,78.5 Z"/></g>
<g><path style="opacity:1" fill="#187350" d="M 106.5,83.5 C 108.048,83.8212 108.715,84.8212 108.5,86.5C 105.752,86.5983 105.086,85.5983 106.5,83.5 Z"/></g>
<g><path style="opacity:1" fill="#f18e30" d="M 100.5,110.5 C 100.291,109.078 99.7914,107.745 99,106.5C 98.5003,113.826 98.3337,121.159 98.5,128.5C 97.8919,130.99 96.2252,132.324 93.5,132.5C 91.9707,132.471 90.804,131.804 90,130.5C 88.8729,124.27 88.3729,117.937 88.5,111.5C 88.6667,105.833 88.8333,100.167 89,94.5C 90.8038,91.1829 93.6372,89.8496 97.5,90.5C 100.011,90.288 102.178,90.9546 104,92.5C 106.641,99.7276 108.974,107.061 111,114.5C 113.155,106.354 115.988,98.5206 119.5,91C 123.167,90.3333 126.833,90.3333 130.5,91C 131.333,91.8333 132.167,92.6667 133,93.5C 133.667,105.167 133.667,116.833 133,128.5C 130.472,132.085 127.472,132.418 124,129.5C 123.667,121.5 123.333,113.5 123,105.5C 121,112.833 119,120.167 117,127.5C 114.168,133.201 110.502,133.867 106,129.5C 103.656,123.302 101.822,116.969 100.5,110.5 Z"/></g>
<g><path style="opacity:1" fill="#ada26e" d="M 100.5,110.5 C 99.8333,116.5 99.1667,122.5 98.5,128.5C 98.3337,121.159 98.5003,113.826 99,106.5C 99.7914,107.745 100.291,109.078 100.5,110.5 Z"/></g>
<g><path style="opacity:1" fill="#56937d" d="M 206.5,110.5 C 190.167,110.5 173.833,110.5 157.5,110.5C 157.5,111.5 157.5,112.5 157.5,113.5C 156.566,112.432 156.232,111.099 156.5,109.5C 173.342,109.17 190.008,109.503 206.5,110.5 Z"/></g>
<g><path style="opacity:1" fill="#186647" d="M 157.5,113.5 C 157.5,112.5 157.5,111.5 157.5,110.5C 173.833,110.5 190.167,110.5 206.5,110.5C 207.482,111.141 208.482,111.807 209.5,112.5C 211.787,110.344 214.287,110.011 217,111.5C 218.754,109.75 220.921,109.083 223.5,109.5C 221.744,118.372 221.077,127.372 221.5,136.5C 220.167,136.5 218.833,136.5 217.5,136.5C 217.666,129.825 217.5,123.158 217,116.5C 214.469,113.678 212.969,114.178 212.5,118C 212.67,120.527 213.67,121.027 215.5,119.5C 216.995,125.647 214.995,126.981 209.5,123.5C 204.242,126.987 202.075,125.653 203,119.5C 206.841,120.995 208.174,119.661 207,115.5C 204.865,113.722 202.365,113.055 199.5,113.5C 199.5,121.167 199.5,128.833 199.5,136.5C 198.167,136.5 196.833,136.5 195.5,136.5C 195.5,128.833 195.5,121.167 195.5,113.5C 192.453,112.855 190.287,113.855 189,116.5C 189.471,121.156 190.304,125.822 191.5,130.5C 191.693,134.645 189.693,136.978 185.5,137.5C 185.167,136.833 184.833,136.167 184.5,135.5C 186.363,133.96 187.363,131.96 187.5,129.5C 186.903,126.042 185.903,122.709 184.5,119.5C 184.887,117.726 185.553,116.059 186.5,114.5C 182.205,113.339 177.871,113.172 173.5,114C 178.114,114.952 181.114,117.619 182.5,122C 181.922,126.745 179.256,129.245 174.5,129.5C 174.5,127.833 174.5,126.167 174.5,124.5C 175.833,124.5 177.167,124.5 178.5,124.5C 179.167,121.167 177.833,119.167 174.5,118.5C 173.504,124.463 173.171,130.463 173.5,136.5C 172.022,136.762 170.689,136.429 169.5,135.5C 167.288,130.613 163.622,127.613 158.5,126.5C 158.34,124.801 158.506,123.134 159,121.5C 162.412,118.877 165.912,116.377 169.5,114C 165.514,113.501 161.514,113.334 157.5,113.5 Z"/></g>
<g><path style="opacity:1" fill="#f2f7f5" d="M 168.5,119.5 C 169.638,122.304 169.805,125.304 169,128.5C 167.315,126.983 165.815,125.316 164.5,123.5C 165.867,122.16 167.2,120.827 168.5,119.5 Z"/></g>
<g><path style="opacity:1" fill="#e0ede8" d="M 91.5,133.5 C 94.5959,132.907 96.9292,133.907 98.5,136.5C 96.522,135.869 94.3554,135.869 92,136.5C 90.6115,143.789 92.6115,145.122 98,140.5C 99.052,144.293 97.552,146.293 93.5,146.5C 90.1399,145.467 88.4732,143.134 88.5,139.5C 88.6284,137.045 89.6284,135.045 91.5,133.5 Z"/></g>
<g><path style="opacity:1" fill="#f8fbfa" d="M 123.5,133.5 C 125.256,134.552 125.923,136.219 125.5,138.5C 127.5,138.5 129.5,138.5 131.5,138.5C 131.215,136.712 131.548,135.045 132.5,133.5C 133.833,137.5 133.833,141.5 132.5,145.5C 131.548,143.955 131.215,142.288 131.5,140.5C 129.5,140.5 127.5,140.5 125.5,140.5C 125.785,142.288 125.452,143.955 124.5,145.5C 123.509,141.555 123.176,137.555 123.5,133.5 Z"/></g>
<g><path style="opacity:1" fill="#e2eee9" d="M 114.5,133.5 C 116.467,133.261 118.301,133.594 120,134.5C 120.667,135.5 120.667,136.5 120,137.5C 118.445,135.485 116.611,135.152 114.5,136.5C 115.714,138.069 117.381,138.902 119.5,139C 121.602,140.733 121.935,142.733 120.5,145C 117.901,145.769 115.401,145.602 113,144.5C 112.251,143.365 112.417,142.365 113.5,141.5C 114.842,143.005 116.508,143.672 118.5,143.5C 118.5,142.5 118.5,141.5 118.5,140.5C 112.678,140.388 111.345,138.055 114.5,133.5 Z"/></g>
<g><path style="opacity:1" fill="#ddeae4" d="M 104.5,133.5 C 106.411,133.574 107.578,134.574 108,136.5C 108.837,138.838 109.67,141.172 110.5,143.5C 110.167,144.167 109.833,144.833 109.5,145.5C 106.833,141.5 104.167,141.5 101.5,145.5C 101.212,141.328 102.212,137.328 104.5,133.5 Z"/></g>
<g><path style="opacity:1" fill="#3d6152" d="M 170.5,141.5 C 169.064,141.755 167.564,142.088 166,142.5C 165.833,143.333 165.667,144.167 165.5,145C 165.684,146.376 166.351,147.209 167.5,147.5C 166.791,148.404 165.791,148.737 164.5,148.5C 164.167,140.5 163.833,140.5 163.5,148.5C 162.209,148.737 161.209,148.404 160.5,147.5C 161.693,147.03 162.36,146.03 162.5,144.5C 162.167,143.5 161.833,142.5 161.5,141.5C 161.524,142.786 161.19,144.12 160.5,145.5C 160.631,144.761 160.464,144.094 160,143.5C 159.107,144.711 158.274,144.711 157.5,143.5C 158.641,142.575 158.641,141.741 157.5,141C 163.246,140.184 167.579,140.35 170.5,141.5 Z"/></g>
<g><path style="opacity:1" fill="#3d6053" d="M 187.5,141.5 C 186.064,141.755 184.564,142.088 183,142.5C 182.833,143.333 182.667,144.167 182.5,145C 182.684,146.376 183.351,147.209 184.5,147.5C 183.791,148.404 182.791,148.737 181.5,148.5C 181.167,139.167 180.833,139.167 180.5,148.5C 179.209,148.737 178.209,148.404 177.5,147.5C 178.693,147.03 179.36,146.03 179.5,144.5C 179.167,143.5 178.833,142.5 178.5,141.5C 178.524,142.786 178.19,144.12 177.5,145.5C 177.294,143.451 176.461,143.117 175,144.5C 174.51,143.207 174.343,141.873 174.5,140.5C 180.254,140.139 184.587,140.472 187.5,141.5 Z"/></g>
<g><path style="opacity:1" fill="#567669" d="M 191.5,140.5 C 195.902,140.228 200.235,140.561 204.5,141.5C 205.647,143.765 205.814,146.098 205,148.5C 203.926,147.382 202.76,146.382 201.5,145.5C 202.506,144.604 202.506,143.938 201.5,143.5C 200.253,145.006 200.253,146.506 201.5,148C 200.451,148.492 199.451,148.326 198.5,147.5C 197.702,145.922 197.202,144.256 197,142.5C 196.667,144.5 196.333,146.5 196,148.5C 195.667,147.167 195.333,145.833 195,144.5C 192.79,148.57 192.29,148.403 193.5,144C 192.571,142.923 191.904,141.756 191.5,140.5 Z"/></g>
<g><path style="opacity:1" fill="#436658" d="M 220.5,147.5 C 218.985,146.049 218.152,144.382 218,142.5C 217.667,142.833 217.333,143.167 217,143.5C 216.29,142.027 215.124,141.36 213.5,141.5C 213.795,143.735 213.461,145.735 212.5,147.5C 212.649,146.448 212.483,145.448 212,144.5C 211.667,144.833 211.333,145.167 211,145.5C 210.727,143.671 209.893,142.171 208.5,141C 210.5,140.833 212.5,140.667 214.5,140.5C 217.206,140.952 219.706,140.952 222,140.5C 222.167,141.667 222.333,142.833 222.5,144C 222.392,145.681 221.725,146.848 220.5,147.5 Z"/></g>
<g><path style="opacity:1" fill="#98aca4" d="M 220.5,147.5 C 217.666,147.834 214.999,147.834 212.5,147.5C 213.461,145.735 213.795,143.735 213.5,141.5C 215.124,141.36 216.29,142.027 217,143.5C 217.333,143.167 217.667,142.833 218,142.5C 218.152,144.382 218.985,146.049 220.5,147.5 Z"/></g>
<g><path style="opacity:1" fill="#ced7d3" d="M 160.5,147.5 C 160.5,146.833 160.5,146.167 160.5,145.5C 161.19,144.12 161.524,142.786 161.5,141.5C 161.833,142.5 162.167,143.5 162.5,144.5C 162.36,146.03 161.693,147.03 160.5,147.5 Z"/></g>
<g><path style="opacity:1" fill="#dce3e0" d="M 177.5,147.5 C 177.5,146.833 177.5,146.167 177.5,145.5C 178.19,144.12 178.524,142.786 178.5,141.5C 178.833,142.5 179.167,143.5 179.5,144.5C 179.36,146.03 178.693,147.03 177.5,147.5 Z"/></g>
<g><path style="opacity:1" fill="#acbcb6" d="M 187.5,141.5 C 187.833,142.167 188.167,142.833 188.5,143.5C 187.593,146.804 186.093,147.138 184,144.5C 183.53,145.577 183.697,146.577 184.5,147.5C 183.351,147.209 182.684,146.376 182.5,145C 182.667,144.167 182.833,143.333 183,142.5C 184.564,142.088 186.064,141.755 187.5,141.5 Z"/></g>
<g><path style="opacity:1" fill="#839a90" d="M 170.5,141.5 C 171.341,143.379 171.675,145.379 171.5,147.5C 170.167,147.5 168.833,147.5 167.5,147.5C 166.351,147.209 165.684,146.376 165.5,145C 165.667,144.167 165.833,143.333 166,142.5C 167.564,142.088 169.064,141.755 170.5,141.5 Z"/></g>
<g><path style="opacity:1" fill="#1f4938" d="M 160.5,145.5 C 160.5,146.167 160.5,146.833 160.5,147.5C 156.711,146.404 156.711,145.737 160.5,145.5 Z"/></g>
<g><path style="opacity:1" fill="#1b4535" d="M 177.5,145.5 C 177.5,146.167 177.5,146.833 177.5,147.5C 173.711,146.404 173.711,145.737 177.5,145.5 Z"/></g>
<g><path style="opacity:1" fill="#3d6052" d="M 188.5,143.5 C 188.5,144.833 188.5,146.167 188.5,147.5C 187.167,147.5 185.833,147.5 184.5,147.5C 183.697,146.577 183.53,145.577 184,144.5C 186.093,147.138 187.593,146.804 188.5,143.5 Z"/></g>
</svg>
