<?xml version="1.0" encoding="UTF-8"?>
<svg xmlns="http://www.w3.org/2000/svg" width="696.61pt" height="171.24pt" viewBox="0 0 696.61 171.24" version="1.1">
<defs>
<clipPath id="clip1">
  <path d="M 483 45 L 696.609375 45 L 696.609375 171.238281 L 483 171.238281 Z M 483 45 "/>
</clipPath>
</defs>
<g id="surface1">
<g clip-path="url(#clip1)" clip-rule="nonzero">
<path style=" stroke:none;fill-rule:nonzero;fill:rgb(4.299927%,36.099243%,66.699219%);fill-opacity:1;" d="M 693.558594 45.304688 C 687.800781 45.417969 682.035156 45.445313 676.28125 45.296875 C 673.914063 45.234375 673.238281 46.144531 673.179688 48.347656 C 673.027344 53.957031 672.695313 59.5625 672.394531 66.046875 C 670.847656 64.386719 669.839844 63.308594 668.839844 62.222656 C 664.265625 57.25 659.316406 52.742188 653.148438 49.78125 C 646.53125 46.601563 640.019531 46.328125 633.550781 50.296875 C 628.996094 53.089844 624.179688 55.480469 620.171875 59.085938 C 618.933594 60.199219 618.140625 60.292969 616.78125 59.089844 C 606.84375 50.316406 594.824219 46.957031 581.925781 46.433594 C 572.066406 46.035156 562.1875 46.097656 552.316406 46.074219 C 530.511719 46.03125 508.703125 46.070313 486.898438 46.050781 C 484.527344 46.046875 482.203125 45.722656 484.164063 49.390625 C 485.90625 52.648438 487.4375 56.039063 488.785156 59.476563 C 489.636719 61.640625 490.925781 62.3125 493.148438 62.207031 C 496.5 62.046875 499.867188 62.164063 503.136719 62.164063 C 503.222656 62.777344 503.296875 62.9375 503.246094 63.027344 C 502.976563 63.496094 502.722656 63.984375 502.382813 64.40625 C 496.003906 72.3125 494.742188 81.15625 497.550781 90.746094 C 498.359375 93.503906 499.15625 96.265625 499.984375 99.019531 C 503.34375 110.152344 507.625 121.03125 509.183594 132.667969 C 511.074219 146.789063 507.472656 158.496094 492.539063 163.464844 C 492.074219 163.621094 491.574219 163.941406 491.804688 164.796875 C 496.511719 166.742188 501.320313 168.730469 506.125 170.714844 C 507.148438 171.136719 508.144531 171.351563 509.308594 171.183594 C 520.589844 169.539063 530.132813 160.703125 532.566406 149.492188 C 534.3125 141.429688 533.59375 133.375 532.09375 125.386719 C 529.457031 111.351563 524.808594 97.871094 520.46875 84.308594 C 519.804688 82.222656 519.226563 80.183594 519.796875 77.882813 C 522.078125 68.664063 528.21875 63.726563 537.628906 63.746094 C 538.996094 63.75 540.390625 63.902344 541.738281 63.71875 C 544.835938 63.292969 545.738281 64.589844 545.757813 67.609375 C 545.835938 79.671875 546.246094 91.730469 546.335938 103.792969 C 546.445313 119.289063 546.4375 134.789063 546.292969 150.285156 C 546.265625 153.277344 546.925781 154.394531 550.128906 154.257813 C 556.152344 153.996094 562.203125 153.976563 568.222656 154.265625 C 571.5625 154.421875 572.28125 153.304688 572.265625 150.144531 C 572.132813 127.925781 572.21875 105.710938 572.179688 83.492188 C 572.167969 77.574219 573.019531 71.746094 573.5625 65.882813 C 573.722656 64.144531 574.324219 63.550781 576.007813 63.414063 C 583.546875 62.796875 590.800781 63.703125 597.539063 67.320313 C 601.578125 69.488281 603.726563 72.890625 604.125 77.539063 C 604.808594 85.5625 601.078125 92.058594 593.472656 95.78125 C 589.136719 97.902344 584.417969 98.574219 579.015625 99.375 C 583.128906 104.453125 586.890625 109.085938 590.632813 113.730469 C 591.449219 114.746094 592.519531 114.679688 593.628906 114.566406 C 601.769531 113.71875 609.640625 111.992188 616.347656 106.96875 C 617.941406 105.769531 618.925781 105.710938 620.550781 106.941406 C 627.230469 112.011719 635.125 113.6875 643.25 114.570313 C 644.332031 114.6875 645.417969 114.78125 646.253906 113.746094 C 650.007813 109.097656 653.800781 104.472656 657.957031 99.371094 C 653.113281 98.625 648.933594 98.132813 645.023438 96.5 C 635.257813 92.421875 631.210938 84.726563 633.660156 74.800781 C 635.03125 69.234375 638.578125 66.4375 644.304688 66.5 C 649.773438 66.558594 654.476563 68.605469 658.394531 72.347656 C 665.800781 79.417969 668.664063 88.371094 668.703125 98.351563 C 668.765625 115.492188 668.769531 132.636719 668.667969 149.777344 C 668.652344 152.488281 669.171875 153.699219 672.230469 153.585938 C 678.53125 153.355469 684.847656 153.421875 691.152344 153.5625 C 693.6875 153.621094 694.722656 153.082031 694.757813 150.21875 C 695.140625 116.226563 693.304688 82.195313 696.578125 48.261719 C 696.820313 45.753906 695.773438 45.261719 693.558594 45.304688 "/>
</g>
<path style=" stroke:none;fill-rule:nonzero;fill:rgb(4.299927%,36.099243%,66.699219%);fill-opacity:1;" d="M 146.539063 45.304688 C 140.917969 45.425781 135.289063 45.46875 129.671875 45.289063 C 126.929688 45.203125 126.074219 46.1875 126.148438 48.847656 C 126.300781 54.28125 126.195313 59.722656 126.195313 65.164063 C 125.636719 65.242188 125.074219 65.320313 124.515625 65.402344 C 122.128906 62.972656 119.894531 60.371094 117.335938 58.144531 C 110.921875 52.570313 103.980469 47.925781 94.980469 48.210938 C 86.675781 48.480469 80.292969 53.101563 74.285156 58.15625 C 72.269531 59.851563 71.171875 60.359375 69.015625 58.351563 C 65.066406 54.683594 60.265625 52.265625 55.214844 50.371094 C 46.753906 47.191406 37.996094 45.847656 28.988281 46.203125 C 26.496094 46.304688 25.242188 45.804688 25.375 42.859375 C 25.617188 37.382813 25.566406 31.886719 25.414063 26.40625 C 25.289063 21.839844 27.570313 19.214844 31.644531 17.863281 C 36.113281 16.382813 40.746094 15.988281 45.429688 15.988281 C 58.320313 16 71.210938 16.015625 84.101563 15.976563 C 88.613281 15.960938 94.117188 17.332031 97.359375 15.253906 C 100.597656 13.171875 101.578125 7.570313 103.550781 3.511719 C 103.609375 3.386719 103.660156 3.257813 103.726563 3.140625 C 104.964844 1.011719 104.691406 0.0351563 101.894531 0.0507813 C 80.777344 0.152344 59.644531 -0.265625 38.539063 0.296875 C 15.035156 0.917969 0.429688 15.722656 0.195313 39.273438 C -0.171875 76.300781 0.109375 113.332031 0.0234375 150.359375 C 0.0195313 152.980469 0.949219 153.605469 3.363281 153.558594 C 9.941406 153.433594 16.527344 153.441406 23.109375 153.558594 C 25.367188 153.597656 26.246094 152.980469 26.222656 150.570313 C 25.941406 122.46875 26.640625 94.359375 25.804688 66.261719 C 25.757813 64.730469 25.714844 63.609375 27.71875 63.449219 C 35.929688 62.804688 43.890625 63.496094 51.21875 67.652344 C 57.242188 71.070313 57.628906 76.769531 57 82.726563 C 56.433594 88.144531 52.703125 90.722656 47.914063 92.125 C 43.816406 93.328125 39.582031 93.8125 35.34375 94.117188 C 33.1875 94.269531 32.214844 94.617188 33.613281 96.976563 C 36.90625 102.511719 40.09375 108.113281 43.191406 113.761719 C 44.167969 115.539063 45.453125 115.796875 47.257813 115.628906 C 55.15625 114.898438 62.730469 113.113281 69.191406 108.292969 C 71.15625 106.824219 72.242188 107.097656 74.070313 108.410156 C 80.722656 113.203125 88.410156 115.035156 96.460938 115.675781 C 98.042969 115.800781 99.027344 115.296875 99.800781 113.925781 C 103.027344 108.191406 106.269531 102.46875 109.609375 96.800781 C 110.820313 94.746094 110.171875 94.3125 108.070313 94.136719 C 104.660156 93.851563 101.25 93.414063 97.890625 92.773438 C 86.554688 90.609375 83.925781 84.269531 87.386719 72.925781 C 88.464844 69.386719 91.121094 67.242188 94.882813 66.726563 C 101.144531 65.871094 106.546875 67.859375 111.128906 72.03125 C 118.835938 79.050781 121.78125 88.1875 121.886719 98.261719 C 122.070313 115.539063 121.988281 132.820313 121.882813 150.101563 C 121.867188 152.71875 122.488281 153.691406 125.269531 153.582031 C 130.746094 153.363281 136.238281 153.519531 141.722656 153.519531 C 147.929688 153.515625 147.851563 153.515625 147.941406 147.503906 C 148.4375 114.488281 146.515625 81.425781 149.730469 48.464844 C 150.003906 45.695313 148.902344 45.253906 146.539063 45.304688 "/>
<path style=" stroke:none;fill-rule:nonzero;fill:rgb(4.299927%,36.099243%,66.699219%);fill-opacity:1;" d="M 419.742188 132.183594 C 406.398438 125.777344 393.882813 119.621094 384.550781 108.761719 C 377.261719 100.28125 377.621094 92.707031 385.523438 84.867188 C 393.53125 76.925781 403.101563 71.972656 414.328125 70.324219 C 417.558594 69.851563 419.191406 70.300781 419.117188 74.402344 C 418.804688 91.910156 418.914063 109.425781 419.734375 126.929688 C 419.804688 128.417969 419.742188 129.910156 419.742188 132.183594 Z M 450.300781 47.03125 C 445.761719 46.828125 444.652344 45.132813 445.269531 41.1875 C 445.351563 40.652344 445.285156 40.09375 445.273438 39.546875 C 444.773438 16.109375 430.5 1.304688 407.097656 0.238281 C 399.574219 -0.105469 392.019531 0.0976563 384.480469 0.0898438 C 370.90625 0.0742188 357.332031 0.136719 343.757813 0.046875 C 340.941406 0.0273438 340.328125 0.691406 341.714844 3.277344 C 343.328125 6.292969 344.84375 9.402344 345.996094 12.613281 C 347.011719 15.433594 348.710938 16.074219 351.527344 16.050781 C 367.429688 15.925781 383.335938 16 399.242188 15.984375 C 404.0625 15.980469 408.847656 16.273438 413.457031 17.769531 C 418.222656 19.316406 419.859375 21.613281 419.890625 26.527344 C 419.929688 31.875 419.742188 37.230469 419.964844 42.566406 C 420.085938 45.410156 419.003906 46.289063 416.328125 46.6875 C 410.78125 47.511719 405.207031 48.414063 399.789063 49.847656 C 384.863281 53.792969 371.132813 60.339844 362.453125 73.585938 C 351.671875 90.046875 350.203125 105.382813 367.984375 118.957031 C 380.570313 128.566406 394.128906 136.488281 407.738281 144.460938 C 418.839844 150.960938 430.261719 154.796875 443.207031 153.058594 C 443.34375 153.042969 443.484375 153.039063 443.617188 153.058594 C 446.628906 153.539063 447.320313 152.207031 447.007813 149.355469 C 445.527344 135.984375 445.4375 122.550781 445.5625 111.40625 C 445.5625 97.734375 445.554688 86.355469 445.5625 74.976563 C 445.566406 70.148438 446.046875 69.800781 450.789063 71.0625 C 466.648438 75.273438 472.085938 90.78125 462.257813 103.792969 C 461.433594 104.886719 460.625 106.039063 459.601563 106.917969 C 457.726563 108.527344 458.191406 109.4375 460.179688 110.421875 C 464.722656 112.671875 469.28125 114.910156 473.679688 117.421875 C 476.09375 118.796875 477.199219 118.1875 478.4375 115.921875 C 481.210938 110.851563 483.53125 105.621094 485.296875 100.117188 C 492.441406 77.835938 478.160156 48.285156 450.300781 47.03125 "/>
<path style=" stroke:none;fill-rule:nonzero;fill:rgb(4.299927%,36.099243%,66.699219%);fill-opacity:1;" d="M 317.835938 113.640625 C 317.835938 119.386719 317.832031 125.128906 317.835938 130.871094 C 317.835938 132.484375 317.984375 134.121094 315.472656 132.820313 C 305.386719 127.605469 295.226563 122.484375 286.507813 115.09375 C 278.484375 108.300781 280.164063 99.328125 290.113281 95.613281 C 298.53125 92.46875 307.382813 93.476563 316.101563 93.40625 C 318.253906 93.390625 317.8125 95.136719 317.820313 96.414063 C 317.855469 102.15625 317.835938 107.898438 317.835938 113.640625 Z M 344.121094 114.125 C 344.121094 103.574219 344.492188 93.011719 344.015625 82.484375 C 343.558594 72.324219 339.984375 63.171875 332.179688 56.207031 C 323.960938 48.867188 313.878906 46.601563 303.234375 46.390625 C 293.78125 46.207031 284.324219 46.351563 274.867188 46.351563 C 264.726563 46.347656 254.582031 46.449219 244.441406 46.292969 C 241.070313 46.242188 240.71875 47.191406 242.210938 49.964844 C 243.765625 52.855469 245.121094 55.871094 246.300781 58.933594 C 247.28125 61.484375 248.78125 62.261719 251.546875 62.242188 C 267.304688 62.117188 283.066406 62.195313 298.824219 62.289063 C 303.621094 62.316406 308.410156 62.691406 313.007813 64.246094 C 316.375 65.390625 318.574219 67.476563 319.09375 71.238281 C 319.507813 74.242188 318.738281 75.597656 315.472656 75.28125 C 313.167969 75.058594 310.8125 75.214844 308.488281 75.351563 C 295.3125 76.125 282.21875 77.347656 270.253906 83.660156 C 261.90625 88.070313 256.472656 94.710938 254.675781 104.164063 C 253.511719 110.296875 254.507813 115.621094 259.746094 119.585938 C 262.804688 121.898438 265.761719 124.371094 268.980469 126.429688 C 285.785156 137.1875 303.980469 145.152344 322.328125 152.804688 C 323.515625 153.300781 324.691406 153.425781 325.929688 153.425781 C 331.546875 153.421875 337.171875 153.316406 342.785156 153.476563 C 345.3125 153.546875 346.191406 152.859375 345.804688 150.230469 C 344.035156 138.253906 344.46875 126.175781 344.121094 114.125 "/>
<path style=" stroke:none;fill-rule:nonzero;fill:rgb(4.299927%,36.099243%,66.699219%);fill-opacity:1;" d="M 228.996094 98.738281 C 227.832031 98.207031 225.851563 98.261719 225.761719 96.785156 C 225.675781 95.375 227.515625 94.847656 228.628906 94.132813 C 234.042969 90.65625 238.738281 86.648438 240.53125 80.070313 C 244.261719 66.414063 235.34375 50.898438 220.640625 45.652344 C 214.617188 43.503906 208.390625 42.789063 203.019531 43.113281 C 188.558594 43.152344 180.777344 45.359375 172.988281 51.34375 C 158.4375 62.527344 158.589844 79.433594 173.261719 88.898438 C 175.257813 90.1875 176.78125 90.308594 178.820313 88.964844 C 182.9375 86.25 187.152344 83.660156 191.5 81.339844 C 194.378906 79.804688 194.199219 79.054688 191.714844 77.121094 C 185.140625 72.003906 184.453125 65.644531 189.484375 60.167969 C 195.261719 53.871094 207.078125 53.652344 213.355469 59.722656 C 219.871094 66.019531 220.421875 77.800781 214.460938 83.839844 C 210.925781 87.417969 206.527344 89.644531 202.007813 91.675781 C 193.753906 95.386719 193.898438 95.308594 198.25 103.050781 C 199.734375 105.691406 201.453125 106.703125 204.371094 106.675781 C 208.777344 106.636719 213.140625 107.273438 217.191406 109.136719 C 225.34375 112.886719 228.152344 121.796875 223.535156 129.03125 C 220.015625 134.539063 213.355469 137.335938 206.835938 136.277344 C 200.609375 135.265625 195.609375 132.050781 191.113281 127.910156 C 182.648438 120.113281 174.277344 112.214844 165.820313 104.410156 C 163.222656 102.011719 160.441406 97.226563 158.015625 97.875 C 154.964844 98.691406 155.523438 104.207031 153.914063 107.4375 C 152.796875 109.679688 153.609375 111.136719 155 112.929688 C 165.300781 126.207031 177.453125 137.621094 190.035156 148.683594 C 198.722656 156.316406 208.714844 159.230469 219.949219 158.890625 C 235.894531 158.402344 247.40625 149.511719 249.894531 135.839844 C 252.734375 120.21875 244.617188 105.855469 228.996094 98.738281 "/>
<path style=" stroke:none;fill-rule:nonzero;fill:rgb(4.699707%,36.099243%,66.699219%);fill-opacity:1;" d="M 297.300781 155.378906 C 292.238281 151.128906 286.902344 147.335938 280.921875 144.488281 C 280.304688 144.195313 279.671875 143.9375 279.121094 143.699219 C 277.859375 143.734375 277.496094 144.75 276.945313 145.472656 C 274.796875 148.3125 272.800781 151.273438 270.539063 154.019531 C 269 155.886719 269.527344 156.671875 271.511719 157.511719 C 274.800781 158.910156 277.597656 161.210938 280.695313 162.925781 C 284.210938 164.871094 286.402344 170.902344 290.164063 169.382813 C 293.472656 168.042969 295.160156 162.828125 297.710938 159.4375 C 298.9375 157.804688 298.964844 156.773438 297.300781 155.378906 "/>
</g>
</svg>
